SpartanTT-Light.ufo
<glyph name="exclam" format="2">
  <advance width="723"/>
  <unicode hex="0021"/>
  <outline>
    <component base="period" xOffset="-13"/>
    <contour>
      <point x="402" y="368" type="line"/>
      <point x="410" y="1720" type="line"/>
      <point x="311" y="1720" type="line"/>
      <point x="319" y="368" type="line"/>
    </contour>
  </outline>
</glyph>
<glyph name="numbersign" format="2">
  <advance width="1409"/>
  <unicode hex="0023"/>
  <outline>
    <contour>
      <point x="401" y="0" type="line"/>
      <point x="458" y="417" type="line"/>
      <point x="872" y="417" type="line"/>
      <point x="814" y="0" type="line"/>
      <point x="884" y="0" type="line"/>
      <point x="941" y="417" type="line"/>
      <point x="1202" y="417" type="line"/>
      <point x="1202" y="487" type="line"/>
      <point x="949" y="487" type="line"/>
      <point x="1010" y="923" type="line"/>
      <point x="1202" y="923" type="line"/>
      <point x="1202" y="993" type="line"/>
      <point x="1020" y="993" type="line"/>
      <point x="1077" y="1412" type="line"/>
      <point x="1008" y="1412" type="line"/>
      <point x="950" y="993" type="line"/>
      <point x="537" y="993" type="line"/>
      <point x="595" y="1412" type="line"/>
      <point x="525" y="1412" type="line"/>
      <point x="467" y="993" type="line"/>
      <point x="207" y="993" type="line"/>
      <point x="207" y="923" type="line"/>
      <point x="460" y="923" type="line"/>
      <point x="398" y="487" type="line"/>
      <point x="207" y="487" type="line"/>
      <point x="207" y="417" type="line"/>
      <point x="388" y="417" type="line"/>
      <point x="332" y="0" type="line"/>
    </contour>
    <contour>
      <point x="528" y="923" type="line"/>
      <point x="941" y="923" type="line"/>
      <point x="881" y="487" type="line"/>
      <point x="467" y="487" type="line"/>
    </contour>
  </outline>
</glyph>
<glyph name="dollar" format="2">
  <advance width="1498"/>
  <unicode hex="0024"/>
  <outline>
    <component base="S" xOffset="68"/>
    <contour>
      <point x="742" y="1926" type="line"/>
      <point x="742" y="1673" type="line"/>
      <point x="815" y="1673" type="line"/>
      <point x="815" y="1926" type="line"/>
    </contour>
    <contour>
      <point x="742" y="-26" type="line"/>
      <point x="742" y="-276" type="line"/>
      <point x="815" y="-276" type="line"/>
      <point x="815" y="-26" type="line"/>
    </contour>
  </outline>
</glyph>
<glyph name="percent" format="2">
  <advance width="2229"/>
  <unicode hex="0025"/>
  <outline>
    <contour>
      <point x="616" y="892" type="curve" smooth="yes"/>
      <point x="842" y="892"/>
      <point x="1018" y="1054"/>
      <point x="1018" y="1286" type="curve" smooth="yes"/>
      <point x="1018" y="1518"/>
      <point x="842" y="1680"/>
      <point x="616" y="1680" type="curve" smooth="yes"/>
      <point x="388" y="1680"/>
      <point x="212" y="1518"/>
      <point x="212" y="1286" type="curve" smooth="yes"/>
      <point x="212" y="1054"/>
      <point x="388" y="892"/>
    </contour>
    <contour>
      <point x="616" y="970" type="curve" smooth="yes"/>
      <point x="435" y="970"/>
      <point x="303" y="1101"/>
      <point x="303" y="1286" type="curve" smooth="yes"/>
      <point x="303" y="1471"/>
      <point x="435" y="1602"/>
      <point x="616" y="1602" type="curve" smooth="yes"/>
      <point x="796" y="1602"/>
      <point x="929" y="1472"/>
      <point x="929" y="1286" type="curve" smooth="yes"/>
      <point x="929" y="1101"/>
      <point x="796" y="970"/>
    </contour>
    <contour>
      <point x="1613" y="-32" type="curve" smooth="yes"/>
      <point x="1841" y="-32"/>
      <point x="2017" y="130"/>
      <point x="2017" y="362" type="curve" smooth="yes"/>
      <point x="2017" y="594"/>
      <point x="1841" y="756"/>
      <point x="1613" y="756" type="curve" smooth="yes"/>
      <point x="1387" y="756"/>
      <point x="1209" y="594"/>
      <point x="1209" y="362" type="curve" smooth="yes"/>
      <point x="1209" y="130"/>
      <point x="1387" y="-32"/>
    </contour>
    <contour>
      <point x="1613" y="46" type="curve" smooth="yes"/>
      <point x="1433" y="46"/>
      <point x="1300" y="177"/>
      <point x="1300" y="362" type="curve" smooth="yes"/>
      <point x="1300" y="547"/>
      <point x="1433" y="678"/>
      <point x="1613" y="678" type="curve" smooth="yes"/>
      <point x="1794" y="678"/>
      <point x="1926" y="547"/>
      <point x="1926" y="362" type="curve" smooth="yes"/>
      <point x="1926" y="177"/>
      <point x="1794" y="46"/>
    </contour>
    <contour>
      <point x="674" y="0" type="line"/>
      <point x="1634" y="1650" type="line"/>
      <point x="1548" y="1650" type="line"/>
      <point x="588" y="0" type="line"/>
    </contour>
  </outline>
</glyph>
<glyph name="ampersand" format="2">
  <advance width="1787"/>
  <unicode hex="0026"/>
  <outline>
    <contour>
      <point x="692" y="-32" type="curve" smooth="yes"/>
      <point x="892" y="-32"/>
      <point x="1084" y="67"/>
      <point x="1248" y="251" type="curve"/>
      <point x="1475" y="0" type="line" name=".hr01"/>
      <point x="1604" y="0" type="line"/>
      <point x="1319" y="314" type="line"/>
      <point x="1386" y="395"/>
      <point x="1466" y="515"/>
      <point x="1513" y="600" type="curve"/>
      <point x="1445" y="648" type="line"/>
      <point x="1423" y="612"/>
      <point x="1307" y="443"/>
      <point x="1254" y="384" type="curve"/>
      <point x="765" y="917" type="line"/>
      <point x="995" y="1028"/>
      <point x="1116" y="1135"/>
      <point x="1116" y="1322" type="curve" smooth="yes"/>
      <point x="1116" y="1529"/>
      <point x="965" y="1681"/>
      <point x="749" y="1681" type="curve" smooth="yes"/>
      <point x="538" y="1681"/>
      <point x="377" y="1536"/>
      <point x="377" y="1330" type="curve" smooth="yes"/>
      <point x="377" y="1204"/>
      <point x="437" y="1102"/>
      <point x="612" y="934" type="curve"/>
      <point x="354" y="810"/>
      <point x="219" y="637"/>
      <point x="219" y="412" type="curve" smooth="yes"/>
      <point x="219" y="126"/>
      <point x="436" y="-32" name=".hr02"/>
    </contour>
    <contour>
      <point x="699" y="64" type="curve" smooth="yes"/>
      <point x="500" y="64"/>
      <point x="326" y="191"/>
      <point x="326" y="419" type="curve" smooth="yes"/>
      <point x="326" y="608"/>
      <point x="445" y="765"/>
      <point x="672" y="873" type="curve"/>
      <point x="1183" y="322" type="line"/>
      <point x="1034" y="154"/>
      <point x="868" y="64"/>
    </contour>
    <contour>
      <point x="703" y="979" type="curve"/>
      <point x="526" y="1147"/>
      <point x="477" y="1225"/>
      <point x="477" y="1330" type="curve" smooth="yes"/>
      <point x="477" y="1486"/>
      <point x="594" y="1597"/>
      <point x="750" y="1597" type="curve" smooth="yes"/>
      <point x="903" y="1597"/>
      <point x="1024" y="1491"/>
      <point x="1024" y="1324" type="curve" smooth="yes"/>
      <point x="1024" y="1159"/>
      <point x="906" y="1077"/>
    </contour>
  </outline>
</glyph>
<glyph name="quotesingle" format="2">
  <advance width="635"/>
  <unicode hex="0027"/>
  <outline>
    <contour>
      <point x="355" y="1368" type="line"/>
      <point x="375" y="1720" type="line"/>
      <point x="260" y="1720" type="line"/>
      <point x="280" y="1368" type="line"/>
    </contour>
  </outline>
</glyph>
<glyph name="parenleft" format="2">
  <advance width="755"/>
  <unicode hex="0028"/>
  <outline>
    <contour>
      <point x="622" y="-491" type="line"/>
      <point x="469" y="-264"/>
      <point x="287" y="123"/>
      <point x="287" y="614" type="curve" smooth="yes"/>
      <point x="287" y="1098"/>
      <point x="463" y="1485"/>
      <point x="622" y="1721" type="curve"/>
      <point x="554" y="1750" type="line"/>
      <point x="389" y="1542"/>
      <point x="181" y="1132"/>
      <point x="181" y="614" type="curve" smooth="yes"/>
      <point x="181" y="96"/>
      <point x="389" y="-312"/>
      <point x="554" y="-520" type="curve"/>
    </contour>
  </outline>
</glyph>
<glyph name="asterisk" format="2">
  <advance width="900"/>
  <unicode hex="002A"/>
  <outline>
    <contour>
      <point x="448" y="1473" type="line"/>
      <point x="548" y="1337" type="line"/>
      <point x="586" y="1364" type="line"/>
      <point x="488" y="1503" type="line"/>
      <point x="650" y="1556" type="line"/>
      <point x="635" y="1602" type="line"/>
      <point x="473" y="1550" type="line"/>
      <point x="473" y="1720" type="line"/>
      <point x="424" y="1720" type="line"/>
      <point x="424" y="1550" type="line"/>
      <point x="262" y="1602" type="line"/>
      <point x="247" y="1556" type="line"/>
      <point x="409" y="1503" type="line"/>
      <point x="311" y="1364" type="line"/>
      <point x="349" y="1337" type="line"/>
    </contour>
  </outline>
</glyph>
<glyph name="plus" format="2">
  <advance width="1455"/>
  <unicode hex="002B"/>
  <outline>
    <contour>
      <point x="772" y="316" type="line"/>
      <point x="772" y="784" type="line"/>
      <point x="1240" y="784" type="line"/>
      <point x="1240" y="872" type="line"/>
      <point x="772" y="872" type="line"/>
      <point x="772" y="1340" type="line"/>
      <point x="684" y="1340" type="line"/>
      <point x="684" y="872" type="line"/>
      <point x="216" y="872" type="line"/>
      <point x="216" y="784" type="line"/>
      <point x="684" y="784" type="line"/>
      <point x="684" y="316" type="line"/>
    </contour>
  </outline>
</glyph>
<glyph name="comma" format="2">
  <advance width="718"/>
  <unicode hex="002C"/>
  <outline>
    <contour>
      <point x="319" y="-216" type="line"/>
      <point x="384" y="-165"/>
      <point x="442" y="-59"/>
      <point x="442" y="22" type="curve" smooth="yes"/>
      <point x="442" y="87"/>
      <point x="403" y="121"/>
      <point x="359" y="121" type="curve" smooth="yes"/>
      <point x="315" y="121"/>
      <point x="281" y="87"/>
      <point x="281" y="45" type="curve" smooth="yes"/>
      <point x="281" y="7"/>
      <point x="310" y="-25"/>
      <point x="348" y="-29" type="curve"/>
      <point x="346" y="-95"/>
      <point x="325" y="-155"/>
      <point x="295" y="-194" type="curve"/>
    </contour>
  </outline>
</glyph>
<glyph name="zero" format="2">
  <advance width="1500"/>
  <unicode hex="0030"/>
  <outline>
    <contour>
      <point x="750" y="-32" type="curve" smooth="yes"/>
      <point x="1153" y="-32"/>
      <point x="1422" y="311"/>
      <point x="1422" y="824" type="curve" smooth="yes"/>
      <point x="1422" y="1337"/>
      <point x="1153" y="1680"/>
      <point x="750" y="1680" type="curve" smooth="yes"/>
      <point x="348" y="1680"/>
      <point x="79" y="1337"/>
      <point x="79" y="824" type="curve" smooth="yes"/>
      <point x="79" y="311"/>
      <point x="348" y="-32"/>
    </contour>
    <contour>
      <point x="750" y="65" type="curve" smooth="yes"/>
      <point x="414" y="65"/>
      <point x="191" y="367"/>
      <point x="191" y="824" type="curve" smooth="yes"/>
      <point x="191" y="1281"/>
      <point x="414" y="1583"/>
      <point x="750" y="1583" type="curve" smooth="yes"/>
      <point x="1086" y="1583"/>
      <point x="1309" y="1281"/>
      <point x="1309" y="824" type="curve" smooth="yes"/>
      <point x="1309" y="367"/>
      <point x="1086" y="65"/>
    </contour>
  </outline>
</glyph>
<glyph name="one" format="2">
  <advance width="1500"/>
  <unicode hex="0031"/>
  <outline>
    <contour>
      <point x="853" y="0" type="line"/>
      <point x="853" y="1650" type="line"/>
      <point x="535" y="1650" type="line"/>
      <point x="535" y="1545" type="line"/>
      <point x="747" y="1545" type="line"/>
      <point x="747" y="0" type="line"/>
    </contour>
  </outline>
</glyph>
<glyph name="two" format="2">
  <advance width="1500"/>
  <unicode hex="0032"/>
  <outline>
    <contour>
      <point x="1310" y="0" type="line"/>
      <point x="1310" y="104" type="line"/>
      <point x="399" y="104" type="line"/>
      <point x="1101" y="660"/>
      <point x="1280" y="873"/>
      <point x="1280" y="1139" type="curve" smooth="yes"/>
      <point x="1280" y="1447"/>
      <point x="1038" y="1680"/>
      <point x="737" y="1680" type="curve" smooth="yes"/>
      <point x="445" y="1680"/>
      <point x="214" y="1455"/>
      <point x="195" y="1166" type="curve"/>
      <point x="296" y="1141" type="line"/>
      <point x="303" y="1384"/>
      <point x="497" y="1576"/>
      <point x="734" y="1576" type="curve" smooth="yes"/>
      <point x="971" y="1576"/>
      <point x="1165" y="1383"/>
      <point x="1165" y="1140" type="curve" smooth="yes"/>
      <point x="1165" y="895"/>
      <point x="964" y="675"/>
      <point x="164" y="46" type="curve"/>
      <point x="164" y="0" type="line"/>
    </contour>
  </outline>
</glyph>
<glyph name="three" format="2">
  <advance width="1500"/>
  <unicode hex="0033"/>
  <outline>
    <contour>
      <point x="733" y="-32" type="curve" smooth="yes"/>
      <point x="1041" y="-32"/>
      <point x="1223" y="161"/>
      <point x="1223" y="419" type="curve" smooth="yes"/>
      <point x="1223" y="639"/>
      <point x="1089" y="799"/>
      <point x="924" y="844" type="curve"/>
      <point x="1089" y="903"/>
      <point x="1203" y="1064"/>
      <point x="1203" y="1245" type="curve" smooth="yes"/>
      <point x="1203" y="1487"/>
      <point x="1007" y="1680"/>
      <point x="757" y="1680" type="curve" smooth="yes"/>
      <point x="526" y="1680"/>
      <point x="337" y="1513"/>
      <point x="318" y="1279" type="curve"/>
      <point x="408" y="1255" type="line"/>
      <point x="417" y="1439"/>
      <point x="570" y="1586"/>
      <point x="756" y="1586" type="curve" smooth="yes"/>
      <point x="942" y="1586"/>
      <point x="1099" y="1437"/>
      <point x="1099" y="1243" type="curve" smooth="yes"/>
      <point x="1099" y="1048"/>
      <point x="939" y="883"/>
      <point x="729" y="883" type="curve" smooth="yes"/>
      <point x="679" y="883" type="line"/>
      <point x="679" y="796" type="line"/>
      <point x="696" y="800"/>
      <point x="716" y="802"/>
      <point x="740" y="802" type="curve" smooth="yes"/>
      <point x="943" y="802"/>
      <point x="1111" y="630"/>
      <point x="1111" y="415" type="curve" smooth="yes"/>
      <point x="1111" y="211"/>
      <point x="963" y="71"/>
      <point x="732" y="71" type="curve" smooth="yes"/>
      <point x="502" y="71"/>
      <point x="333" y="209"/>
      <point x="328" y="414" type="curve"/>
      <point x="228" y="393" type="line"/>
      <point x="241" y="139"/>
      <point x="444" y="-32"/>
    </contour>
  </outline>
</glyph>
<glyph name="four" format="2">
  <advance width="1500"/>
  <unicode hex="0034"/>
  <outline>
    <contour>
      <point x="1088" y="0" type="line"/>
      <point x="1088" y="321" type="line"/>
      <point x="1280" y="321" type="line"/>
      <point x="1280" y="415" type="line"/>
      <point x="1088" y="415" type="line"/>
      <point x="1088" y="1650" type="line"/>
      <point x="983" y="1650" type="line"/>
      <point x="157" y="381" type="line"/>
      <point x="157" y="321" type="line"/>
      <point x="986" y="321" type="line"/>
      <point x="986" y="0" type="line"/>
    </contour>
    <contour>
      <point x="986" y="1499" type="line"/>
      <point x="986" y="415" type="line"/>
      <point x="291" y="415" type="line"/>
    </contour>
  </outline>
</glyph>
<glyph name="five" format="2">
  <advance width="1500"/>
  <unicode hex="0035"/>
  <outline>
    <contour>
      <point x="369" y="1650" type="line"/>
      <point x="236" y="790" type="line"/>
      <point x="367" y="932"/>
      <point x="524" y="1008"/>
      <point x="702" y="1008" type="curve" smooth="yes"/>
      <point x="992" y="1008"/>
      <point x="1216" y="818"/>
      <point x="1216" y="514" type="curve" smooth="yes"/>
      <point x="1216" y="232"/>
      <point x="1024" y="58"/>
      <point x="739" y="58" type="curve" smooth="yes"/>
      <point x="505" y="58"/>
      <point x="315" y="176"/>
      <point x="243" y="369" type="curve"/>
      <point x="158" y="326" type="line"/>
      <point x="240" y="105"/>
      <point x="467" y="-32"/>
      <point x="735" y="-32" type="curve" smooth="yes"/>
      <point x="1046" y="-32"/>
      <point x="1317" y="147"/>
      <point x="1317" y="515" type="curve" smooth="yes"/>
      <point x="1317" y="862"/>
      <point x="1074" y="1091"/>
      <point x="735" y="1091" type="curve" smooth="yes"/>
      <point x="581" y="1091"/>
      <point x="449" y="1042"/>
      <point x="344" y="941" type="curve"/>
      <point x="360" y="938" type="line"/>
      <point x="456" y="1557" type="line"/>
      <point x="1211" y="1557" type="line"/>
      <point x="1211" y="1650" type="line"/>
    </contour>
  </outline>
</glyph>
<glyph name="six" format="2">
  <advance width="1500"/>
  <unicode hex="0036"/>
  <outline>
    <contour>
      <point x="749" y="-32" type="curve" smooth="yes"/>
      <point x="1082" y="-32"/>
      <point x="1323" y="203"/>
      <point x="1323" y="529" type="curve" smooth="yes"/>
      <point x="1323" y="862"/>
      <point x="1074" y="1098"/>
      <point x="780" y="1098" type="curve" smooth="yes"/>
      <point x="693" y="1098"/>
      <point x="613" y="1076"/>
      <point x="536" y="1034" type="curve"/>
      <point x="1053" y="1650" type="line"/>
      <point x="922" y="1650" type="line"/>
      <point x="340" y="955" type="line" smooth="yes"/>
      <point x="243" y="840"/>
      <point x="178" y="674"/>
      <point x="178" y="519" type="curve" smooth="yes"/>
      <point x="178" y="238"/>
      <point x="391" y="-32"/>
    </contour>
    <contour>
      <point x="747" y="60" type="curve" smooth="yes"/>
      <point x="464" y="60"/>
      <point x="283" y="273"/>
      <point x="283" y="522" type="curve" smooth="yes"/>
      <point x="283" y="791"/>
      <point x="497" y="1004"/>
      <point x="759" y="1004" type="curve" smooth="yes"/>
      <point x="1014" y="1004"/>
      <point x="1221" y="803"/>
      <point x="1221" y="528" type="curve" smooth="yes"/>
      <point x="1221" y="257"/>
      <point x="1020" y="60"/>
    </contour>
  </outline>
</glyph>
<glyph name="seven" format="2">
  <advance width="1500"/>
  <unicode hex="0037"/>
  <outline>
    <contour>
      <point x="384" y="0" type="line"/>
      <point x="1256" y="1611" type="line"/>
      <point x="1256" y="1650" type="line"/>
      <point x="266" y="1650" type="line"/>
      <point x="266" y="1557" type="line"/>
      <point x="1101" y="1557" type="line"/>
      <point x="259" y="0" type="line"/>
    </contour>
  </outline>
</glyph>
<glyph name="eight" format="2">
  <advance width="1500"/>
  <unicode hex="0038"/>
  <outline>
    <contour>
      <point x="750" y="-32" type="curve" smooth="yes"/>
      <point x="1043" y="-32"/>
      <point x="1255" y="171"/>
      <point x="1255" y="436" type="curve" smooth="yes"/>
      <point x="1255" y="636"/>
      <point x="1132" y="805"/>
      <point x="940" y="875" type="curve"/>
      <point x="1095" y="942"/>
      <point x="1194" y="1090" name=".hr01"/>
      <point x="1194" y="1261" type="curve" smooth="yes"/>
      <point x="1194" y="1501"/>
      <point x="998" y="1680"/>
      <point x="750" y="1680" type="curve" smooth="yes"/>
      <point x="496" y="1680"/>
      <point x="307" y="1496"/>
      <point x="307" y="1261" type="curve" smooth="yes"/>
      <point x="307" y="1091"/>
      <point x="405" y="943"/>
      <point x="561" y="875" type="curve"/>
      <point x="368" y="805"/>
      <point x="246" y="637" name=".hr02"/>
      <point x="246" y="436" type="curve" smooth="yes"/>
      <point x="246" y="171"/>
      <point x="458" y="-32"/>
    </contour>
    <contour>
      <point x="750" y="63" type="curve" smooth="yes"/>
      <point x="521" y="63"/>
      <point x="359" y="226"/>
      <point x="359" y="442" type="curve" smooth="yes"/>
      <point x="359" y="663"/>
      <point x="529" y="822"/>
      <point x="750" y="822" type="curve" smooth="yes"/>
      <point x="975" y="822"/>
      <point x="1142" y="660"/>
      <point x="1142" y="442" type="curve" smooth="yes"/>
      <point x="1142" y="226"/>
      <point x="980" y="63"/>
    </contour>
    <contour>
      <point x="750" y="919" type="curve" smooth="yes"/>
      <point x="555" y="919"/>
      <point x="410" y="1062"/>
      <point x="410" y="1256" type="curve" smooth="yes"/>
      <point x="410" y="1448" name=".hr03"/>
      <point x="556" y="1594"/>
      <point x="750" y="1594" type="curve" smooth="yes"/>
      <point x="944" y="1594"/>
      <point x="1091" y="1448"/>
      <point x="1091" y="1256" type="curve" smooth="yes"/>
      <point x="1091" y="1062"/>
      <point x="945" y="919"/>
    </contour>
  </outline>
</glyph>
<glyph name="nine" format="2">
  <advance width="1500"/>
  <unicode hex="0039"/>
  <outline>
    <contour>
      <point x="578" y="0" type="line"/>
      <point x="1160" y="695" type="line" smooth="yes"/>
      <point x="1264" y="819"/>
      <point x="1321" y="971"/>
      <point x="1321" y="1117" type="curve" smooth="yes"/>
      <point x="1321" y="1441"/>
      <point x="1084" y="1680"/>
      <point x="749" y="1680" type="curve" smooth="yes"/>
      <point x="414" y="1680"/>
      <point x="176" y="1441"/>
      <point x="176" y="1121" type="curve" smooth="yes"/>
      <point x="176" y="795"/>
      <point x="423" y="552"/>
      <point x="735" y="552" type="curve" smooth="yes"/>
      <point x="823" y="552"/>
      <point x="908" y="580"/>
      <point x="977" y="630" type="curve"/>
      <point x="447" y="0" type="line"/>
    </contour>
    <contour>
      <point x="752" y="651" type="curve" smooth="yes"/>
      <point x="485" y="651"/>
      <point x="284" y="854"/>
      <point x="284" y="1123" type="curve" smooth="yes"/>
      <point x="284" y="1388"/>
      <point x="482" y="1583"/>
      <point x="752" y="1583" type="curve" smooth="yes"/>
      <point x="1019" y="1583"/>
      <point x="1213" y="1390"/>
      <point x="1213" y="1123" type="curve" smooth="yes"/>
      <point x="1213" y="864"/>
      <point x="1004" y="651"/>
    </contour>
  </outline>
</glyph>
<glyph name="less" format="2">
  <advance width="1528"/>
  <unicode hex="003C"/>
  <outline>
    <contour>
      <point x="1301" y="360" type="line"/>
      <point x="317" y="832" type="line"/>
      <point x="1301" y="1304" type="line"/>
      <point x="1301" y="1394" type="line"/>
      <point x="207" y="865" type="line"/>
      <point x="207" y="799" type="line"/>
      <point x="1301" y="270" type="line"/>
    </contour>
  </outline>
</glyph>
<glyph name="equal" format="2">
  <advance width="1698"/>
  <unicode hex="003D"/>
  <outline>
    <contour>
      <point x="1361" y="977" type="line"/>
      <point x="1361" y="1065" type="line"/>
      <point x="337" y="1065" type="line"/>
      <point x="337" y="977" type="line"/>
    </contour>
    <contour>
      <point x="1361" y="593" type="line"/>
      <point x="1361" y="681" type="line"/>
      <point x="337" y="681" type="line"/>
      <point x="337" y="593" type="line"/>
    </contour>
  </outline>
</glyph>
<glyph name="greater" format="2">
  <advance width="1528"/>
  <unicode hex="003E"/>
  <outline>
    <contour>
      <point x="1321" y="799" type="line"/>
      <point x="1321" y="865" type="line"/>
      <point x="228" y="1394" type="line"/>
      <point x="228" y="1304" type="line"/>
      <point x="1212" y="832" type="line"/>
      <point x="228" y="360" type="line"/>
      <point x="228" y="270" type="line"/>
    </contour>
  </outline>
</glyph>
<glyph name="question" format="2">
  <advance width="1365"/>
  <unicode hex="003F"/>
  <outline>
    <component base="period" xOffset="253"/>
    <contour>
      <point x="675" y="397" type="line"/>
      <point x="675" y="692" type="line"/>
      <point x="974" y="699"/>
      <point x="1168" y="910"/>
      <point x="1168" y="1190" type="curve" smooth="yes"/>
      <point x="1168" y="1475"/>
      <point x="965" y="1680"/>
      <point x="669" y="1680" type="curve" smooth="yes"/>
      <point x="398" y="1680"/>
      <point x="203" y="1509"/>
      <point x="180" y="1234" type="curve"/>
      <point x="272" y="1219" type="line"/>
      <point x="288" y="1443"/>
      <point x="440" y="1584"/>
      <point x="669" y="1584" type="curve" smooth="yes"/>
      <point x="903" y="1584"/>
      <point x="1069" y="1437"/>
      <point x="1069" y="1188" type="curve" smooth="yes"/>
      <point x="1069" y="930"/>
      <point x="890" y="780"/>
      <point x="647" y="780" type="curve" smooth="yes"/>
      <point x="621" y="780"/>
      <point x="606" y="782"/>
      <point x="581" y="786" type="curve"/>
      <point x="581" y="397" type="line"/>
    </contour>
  </outline>
</glyph>
<glyph name="at" format="2">
  <advance width="2149"/>
  <unicode hex="0040"/>
  <outline>
    <contour>
      <point x="1078" y="-356" type="curve" smooth="yes"/>
      <point x="1362" y="-356"/>
      <point x="1589" y="-228"/>
      <point x="1723" y="-42" type="curve"/>
      <point x="1643" y="4" type="line"/>
      <point x="1532" y="-146"/>
      <point x="1339" y="-266"/>
      <point x="1080" y="-266" type="curve" smooth="yes"/>
      <point x="638" y="-266"/>
      <point x="334" y="79"/>
      <point x="334" y="499" type="curve" smooth="yes"/>
      <point x="334" y="939"/>
      <point x="668" y="1271"/>
      <point x="1097" y="1271" type="curve" smooth="yes"/>
      <point x="1467" y="1271"/>
      <point x="1838" y="1024"/>
      <point x="1838" y="517" type="curve" smooth="yes"/>
      <point x="1838" y="308"/>
      <point x="1775" y="172"/>
      <point x="1674" y="172" type="curve" smooth="yes"/>
      <point x="1600" y="172"/>
      <point x="1543" y="236"/>
      <point x="1543" y="352" type="curve" smooth="yes"/>
      <point x="1543" y="973" type="line"/>
      <point x="1462" y="973" type="line"/>
      <point x="1462" y="741" type="line"/>
      <point x="1385" y="901"/>
      <point x="1228" y="1004"/>
      <point x="1039" y="1004" type="curve" smooth="yes"/>
      <point x="761" y="1004"/>
      <point x="549" y="786"/>
      <point x="549" y="483" type="curve" smooth="yes"/>
      <point x="549" y="179"/>
      <point x="762" y="-35"/>
      <point x="1038" y="-35" type="curve" smooth="yes"/>
      <point x="1230" y="-35"/>
      <point x="1387" y="69"/>
      <point x="1464" y="233" type="curve"/>
      <point x="1495" y="161"/>
      <point x="1571" y="97"/>
      <point x="1667" y="97" type="curve" smooth="yes"/>
      <point x="1845" y="97"/>
      <point x="1916" y="324"/>
      <point x="1916" y="531" type="curve" smooth="yes"/>
      <point x="1916" y="1077"/>
      <point x="1501" y="1356"/>
      <point x="1087" y="1356" type="curve" smooth="yes"/>
      <point x="610" y="1356"/>
      <point x="238" y="983"/>
      <point x="238" y="494" type="curve" smooth="yes"/>
      <point x="238" y="19"/>
      <point x="591" y="-356"/>
    </contour>
    <contour>
      <point x="1050" y="42" type="curve" smooth="yes"/>
      <point x="810" y="42"/>
      <point x="634" y="225"/>
      <point x="634" y="483" type="curve" smooth="yes"/>
      <point x="634" y="744"/>
      <point x="812" y="927"/>
      <point x="1051" y="927" type="curve" smooth="yes"/>
      <point x="1291" y="927"/>
      <point x="1467" y="744"/>
      <point x="1467" y="483" type="curve" smooth="yes"/>
      <point x="1467" y="225"/>
      <point x="1292" y="42"/>
    </contour>
  </outline>
</glyph>
<glyph name="A" format="2">
  <advance width="1654"/>
  <unicode hex="0041"/>
  <anchor x="827" y="0" name="bottom"/>
  <anchor x="1522" y="0" name="ogonek"/>
  <anchor x="827" y="1650" name="top"/>
  <outline>
    <contour>
      <point x="246" y="0" type="line"/>
      <point x="464" y="566" type="line"/>
      <point x="1190" y="566" type="line"/>
      <point x="1408" y="0" type="line"/>
      <point x="1522" y="0" type="line"/>
      <point x="876" y="1650" type="line"/>
      <point x="778" y="1650" type="line"/>
      <point x="132" y="0" type="line"/>
    </contour>
    <contour>
      <point x="827" y="1513" type="line"/>
      <point x="1154" y="660" type="line"/>
      <point x="500" y="660" type="line"/>
    </contour>
  </outline>
</glyph>
<glyph name="B" format="2">
  <advance width="1290"/>
  <unicode hex="0042"/>
  <anchor x="644" y="0" name="bottom"/>
  <anchor x="644" y="1650" name="top"/>
  <outline>
    <contour>
      <point x="672" y="0" type="line" smooth="yes"/>
      <point x="993" y="0"/>
      <point x="1184" y="161"/>
      <point x="1184" y="436" type="curve" smooth="yes"/>
      <point x="1184" y="672"/>
      <point x="1042" y="824"/>
      <point x="794" y="858" type="curve"/>
      <point x="954" y="922"/>
      <point x="1038" y="1052"/>
      <point x="1038" y="1233" type="curve" smooth="yes"/>
      <point x="1038" y="1501"/>
      <point x="853" y="1651"/>
      <point x="530" y="1651" type="curve" smooth="yes"/>
      <point x="214" y="1651" type="line"/>
      <point x="214" y="0" type="line"/>
    </contour>
    <contour>
      <point x="320" y="1564" type="line"/>
      <point x="517" y="1564" type="line" smooth="yes"/>
      <point x="787" y="1564"/>
      <point x="938" y="1443" name=".hr01"/>
      <point x="938" y="1225" type="curve" smooth="yes"/>
      <point x="938" y="1010"/>
      <point x="787" y="889"/>
      <point x="517" y="889" type="curve" smooth="yes"/>
      <point x="320" y="889" type="line"/>
    </contour>
    <contour>
      <point x="320" y="793" type="line"/>
      <point x="651" y="793" type="line" smooth="yes"/>
      <point x="921" y="793"/>
      <point x="1079" y="662"/>
      <point x="1079" y="438" type="curve" smooth="yes"/>
      <point x="1079" y="216"/>
      <point x="923" y="89"/>
      <point x="651" y="89" type="curve" smooth="yes"/>
      <point x="320" y="89" type="line"/>
    </contour>
  </outline>
</glyph>
<glyph name="C" format="2">
  <advance width="1629"/>
  <unicode hex="0043"/>
  <anchor x="941" y="0" name="bottom"/>
  <anchor x="941" y="1650" name="top"/>
  <outline>
    <contour>
      <point x="136" y="824" type="curve" smooth="yes"/>
      <point x="136" y="339"/>
      <point x="498" y="-32"/>
      <point x="995" y="-32" type="curve" smooth="yes"/>
      <point x="1203" y="-32"/>
      <point x="1387" y="31"/>
      <point x="1528" y="142" type="curve"/>
      <point x="1471" y="227" type="line"/>
      <point x="1347" y="127"/>
      <point x="1182" y="73"/>
      <point x="1002" y="73" type="curve" smooth="yes"/>
      <point x="557" y="73"/>
      <point x="252" y="403"/>
      <point x="252" y="824" type="curve" smooth="yes"/>
      <point x="252" y="1245"/>
      <point x="557" y="1575"/>
      <point x="1002" y="1575" type="curve" smooth="yes"/>
      <point x="1182" y="1575"/>
      <point x="1347" y="1521"/>
      <point x="1471" y="1421" type="curve"/>
      <point x="1528" y="1506" type="line"/>
      <point x="1387" y="1617"/>
      <point x="1203" y="1680"/>
      <point x="995" y="1680" type="curve" smooth="yes"/>
      <point x="498" y="1680"/>
      <point x="136" y="1309"/>
    </contour>
  </outline>
</glyph>
<glyph name="D" format="2">
  <advance width="1645"/>
  <unicode hex="0044"/>
  <anchor x="823" y="0" name="bottom"/>
  <anchor x="823" y="825" name="center"/>
  <anchor x="823" y="1650" name="top"/>
  <outline>
    <contour>
      <point x="630" y="0" type="line" smooth="yes"/>
      <point x="1100" y="0"/>
      <point x="1462" y="359"/>
      <point x="1462" y="825" type="curve" smooth="yes"/>
      <point x="1462" y="1291"/>
      <point x="1100" y="1650"/>
      <point x="630" y="1650" type="curve" smooth="yes"/>
      <point x="281" y="1650" type="line"/>
      <point x="281" y="0" type="line"/>
    </contour>
    <contour>
      <point x="387" y="1555" type="line"/>
      <point x="624" y="1555" type="line" smooth="yes"/>
      <point x="1034" y="1555"/>
      <point x="1353" y="1237"/>
      <point x="1353" y="825" type="curve" smooth="yes"/>
      <point x="1353" y="413"/>
      <point x="1034" y="95"/>
      <point x="624" y="95" type="curve" smooth="yes"/>
      <point x="387" y="95" type="line"/>
    </contour>
  </outline>
</glyph>
<glyph name="E" format="2">
  <advance width="1265"/>
  <unicode hex="0045"/>
  <anchor x="701" y="0" name="bottom"/>
  <anchor x="1090" y="0" name="ogonek"/>
  <anchor x="701" y="1650" name="top"/>
  <outline>
    <contour>
      <point x="1090" y="0" type="line"/>
      <point x="1090" y="94" type="line"/>
      <point x="387" y="94" type="line"/>
      <point x="387" y="780" type="line"/>
      <point x="1066" y="780" type="line"/>
      <point x="1066" y="874" type="line"/>
      <point x="387" y="874" type="line"/>
      <point x="387" y="1556" type="line"/>
      <point x="1090" y="1556" type="line"/>
      <point x="1090" y="1650" type="line"/>
      <point x="281" y="1650" type="line"/>
      <point x="281" y="0" type="line"/>
    </contour>
  </outline>
</glyph>
<glyph name="F" format="2">
  <advance width="1242"/>
  <unicode hex="0046"/>
  <anchor x="621" y="0" name="bottom"/>
  <anchor x="621" y="1650" name="top"/>
  <outline>
    <contour>
      <point x="281" y="1650" type="line"/>
      <point x="281" y="0" type="line"/>
      <point x="387" y="0" type="line"/>
      <point x="387" y="780" type="line"/>
      <point x="1046" y="780" type="line"/>
      <point x="1046" y="874" type="line"/>
      <point x="387" y="874" type="line"/>
      <point x="387" y="1556" type="line"/>
      <point x="1092" y="1556" type="line"/>
      <point x="1092" y="1650" type="line"/>
    </contour>
  </outline>
</glyph>
<glyph name="G" format="2">
  <advance width="1924"/>
  <unicode hex="0047"/>
  <anchor x="983" y="0" name="bottom"/>
  <anchor x="983" y="1650" name="top"/>
  <outline>
    <contour>
      <point x="1003" y="-32" type="curve" smooth="yes"/>
      <point x="1354" y="-32"/>
      <point x="1754" y="188"/>
      <point x="1754" y="686" type="curve" smooth="yes"/>
      <point x="1754" y="797" type="line"/>
      <point x="991" y="797" type="line"/>
      <point x="991" y="708" type="line"/>
      <point x="1646" y="708" type="line"/>
      <point x="1646" y="642" type="line" smooth="yes"/>
      <point x="1646" y="287"/>
      <point x="1320" y="65"/>
      <point x="1001" y="65" type="curve" smooth="yes"/>
      <point x="605" y="65"/>
      <point x="300" y="405"/>
      <point x="300" y="824" type="curve" smooth="yes"/>
      <point x="300" y="1214"/>
      <point x="562" y="1585"/>
      <point x="1009" y="1585" type="curve" smooth="yes"/>
      <point x="1236" y="1585"/>
      <point x="1431" y="1488"/>
      <point x="1553" y="1342" type="curve"/>
      <point x="1628" y="1401" type="line"/>
      <point x="1490" y="1565"/>
      <point x="1282" y="1680"/>
      <point x="1009" y="1680" type="curve" smooth="yes"/>
      <point x="486" y="1680"/>
      <point x="187" y="1258"/>
      <point x="187" y="823" type="curve" smooth="yes"/>
      <point x="187" y="350"/>
      <point x="540" y="-32"/>
    </contour>
  </outline>
</glyph>
<glyph name="H" format="2">
  <advance width="1750"/>
  <unicode hex="0048"/>
  <anchor x="875" y="0" name="bottom"/>
  <anchor x="875" y="825" name="center"/>
  <anchor x="875" y="1650" name="top"/>
  <outline>
    <contour>
      <point x="387" y="0" type="line"/>
      <point x="387" y="780" type="line"/>
      <point x="1363" y="780" type="line"/>
      <point x="1363" y="0" type="line"/>
      <point x="1469" y="0" type="line"/>
      <point x="1469" y="1650" type="line"/>
      <point x="1363" y="1650" type="line"/>
      <point x="1363" y="874" type="line"/>
      <point x="387" y="874" type="line"/>
      <point x="387" y="1650" type="line"/>
      <point x="281" y="1650" type="line"/>
      <point x="281" y="0" type="line"/>
    </contour>
  </outline>
</glyph>
<glyph name="J" format="2">
  <advance width="1303"/>
  <unicode hex="004A"/>
  <anchor x="553" y="-4" name="bottom"/>
  <anchor x="654" y="1650" name="top"/>
  <outline>
    <contour>
      <point x="547" y="-32" type="curve" smooth="yes"/>
      <point x="856" y="-32"/>
      <point x="1039" y="152"/>
      <point x="1039" y="464" type="curve" smooth="yes"/>
      <point x="1039" y="1650" type="line"/>
      <point x="933" y="1650" type="line"/>
      <point x="933" y="499" type="line" smooth="yes"/>
      <point x="933" y="225"/>
      <point x="790" y="68"/>
      <point x="542" y="68" type="curve" smooth="yes"/>
      <point x="416" y="68"/>
      <point x="311" y="113"/>
      <point x="223" y="207" type="curve"/>
      <point x="162" y="131" type="line"/>
      <point x="273" y="18"/>
      <point x="392" y="-32"/>
    </contour>
  </outline>
</glyph>
<glyph name="K" format="2">
  <advance width="1469"/>
  <unicode hex="004B"/>
  <anchor x="747" y="0" name="bottom"/>
  <anchor x="748" y="1650" name="top"/>
  <outline>
    <contour>
      <point x="387" y="0" type="line"/>
      <point x="387" y="763" type="line"/>
      <point x="1230" y="0" type="line"/>
      <point x="1381" y="0" type="line"/>
      <point x="475" y="827" type="line"/>
      <point x="1301" y="1650" type="line"/>
      <point x="1163" y="1650" type="line"/>
      <point x="387" y="876" type="line"/>
      <point x="387" y="1650" type="line"/>
      <point x="281" y="1650" type="line"/>
      <point x="281" y="0" type="line"/>
    </contour>
  </outline>
</glyph>
<glyph name="L" format="2">
  <advance width="1233"/>
  <unicode hex="004C"/>
  <anchor x="636" y="0" name="bottom"/>
  <anchor x="617" y="825" name="center"/>
  <anchor x="562" y="1650" name="top"/>
  <anchor x="1213" y="1650" name="topright"/>
  <outline>
    <contour>
      <point x="1103" y="0" type="line"/>
      <point x="1103" y="94" type="line"/>
      <point x="387" y="94" type="line"/>
      <point x="387" y="1650" type="line"/>
      <point x="281" y="1650" type="line"/>
      <point x="281" y="0" type="line"/>
    </contour>
  </outline>
</glyph>
<glyph name="M" format="2">
  <advance width="1929"/>
  <unicode hex="004D"/>
  <anchor x="963" y="116" name="bottom"/>
  <anchor x="964" y="1650" name="top"/>
  <outline>
    <contour>
      <point x="386" y="0" type="line"/>
      <point x="386" y="1400" type="line"/>
      <point x="921" y="116" type="line"/>
      <point x="1007" y="116" type="line"/>
      <point x="1542" y="1400" type="line"/>
      <point x="1542" y="0" type="line"/>
      <point x="1648" y="0" type="line"/>
      <point x="1648" y="1650" type="line"/>
      <point x="1530" y="1650" type="line"/>
      <point x="964" y="289" type="line"/>
      <point x="398" y="1650" type="line"/>
      <point x="280" y="1650" type="line"/>
      <point x="280" y="0" type="line"/>
    </contour>
  </outline>
</glyph>
<glyph name="N" format="2">
  <advance width="1705"/>
  <unicode hex="004E"/>
  <anchor x="853" y="0" name="bottom"/>
  <anchor x="853" y="1650" name="top"/>
  <outline>
    <contour>
      <point x="386" y="0" type="line"/>
      <point x="386" y="1464" type="line"/>
      <point x="1320" y="0" type="line"/>
      <point x="1426" y="0" type="line"/>
      <point x="1426" y="1650" type="line"/>
      <point x="1320" y="1650" type="line"/>
      <point x="1320" y="184" type="line"/>
      <point x="386" y="1650" type="line"/>
      <point x="280" y="1650" type="line"/>
      <point x="280" y="0" type="line"/>
    </contour>
  </outline>
</glyph>
<glyph name="O" format="2">
  <advance width="2033"/>
  <unicode hex="004F"/>
  <anchor x="1017" y="0" name="bottom"/>
  <anchor x="1017" y="824" name="center"/>
  <anchor x="1045" y="0" name="ogonek"/>
  <anchor x="1017" y="1650" name="top"/>
  <anchor x="19" y="1650" name="topleft"/>
  <anchor x="2013" y="1650" name="topright"/>
  <outline>
    <contour>
      <point x="1017" y="-32" type="curve" smooth="yes"/>
      <point x="1479" y="-32"/>
      <point x="1849" y="348"/>
      <point x="1849" y="824" type="curve" smooth="yes"/>
      <point x="1849" y="1300"/>
      <point x="1479" y="1680"/>
      <point x="1017" y="1680" type="curve" smooth="yes"/>
      <point x="555" y="1680"/>
      <point x="185" y="1300"/>
      <point x="185" y="824" type="curve" smooth="yes"/>
      <point x="185" y="348"/>
      <point x="555" y="-32"/>
    </contour>
    <contour>
      <point x="1017" y="70" type="curve" smooth="yes"/>
      <point x="616" y="70"/>
      <point x="299" y="404"/>
      <point x="299" y="824" type="curve" smooth="yes"/>
      <point x="299" y="1244"/>
      <point x="616" y="1578"/>
      <point x="1017" y="1578" type="curve" smooth="yes"/>
      <point x="1418" y="1578"/>
      <point x="1735" y="1244"/>
      <point x="1735" y="824" type="curve" smooth="yes"/>
      <point x="1735" y="404"/>
      <point x="1418" y="70"/>
    </contour>
  </outline>
</glyph>
<glyph name="P" format="2">
  <advance width="1356"/>
  <unicode hex="0050"/>
  <outline>
    <contour>
      <point x="387" y="0" type="line"/>
      <point x="387" y="716" type="line"/>
      <point x="673" y="716" type="line" smooth="yes"/>
      <point x="997" y="716"/>
      <point x="1191" y="902"/>
      <point x="1191" y="1183" type="curve" smooth="yes"/>
      <point x="1191" y="1464"/>
      <point x="997" y="1650"/>
      <point x="673" y="1650" type="curve" smooth="yes"/>
      <point x="281" y="1650" type="line"/>
      <point x="281" y="0" type="line"/>
    </contour>
    <contour>
      <point x="387" y="1562" type="line"/>
      <point x="655" y="1562" type="line" smooth="yes"/>
      <point x="923" y="1562"/>
      <point x="1086" y="1412"/>
      <point x="1086" y="1183" type="curve" smooth="yes"/>
      <point x="1086" y="954"/>
      <point x="923" y="804"/>
      <point x="655" y="804" type="curve" smooth="yes"/>
      <point x="387" y="804" type="line"/>
    </contour>
  </outline>
</glyph>
<glyph name="Q" format="2">
  <advance width="1999"/>
  <unicode hex="0051"/>
  <outline>
    <component base="O" xOffset="-36" yOffset="-1"/>
    <contour>
      <point x="1061" y="472" type="line"/>
      <point x="1257" y="255"/>
      <point x="1533" y="54"/>
      <point x="1805" y="-54" type="curve"/>
      <point x="1848" y="43" type="line"/>
      <point x="1583" y="136"/>
      <point x="1315" y="320"/>
      <point x="1117" y="518" type="curve"/>
    </contour>
  </outline>
</glyph>
<glyph name="R" format="2">
  <advance width="1368"/>
  <unicode hex="0052"/>
  <anchor x="684" y="0" name="bottom"/>
  <anchor x="684" y="1650" name="top"/>
  <outline>
    <contour>
      <point x="387" y="1562" type="line"/>
      <point x="654" y="1562" type="line" smooth="yes"/>
      <point x="927" y="1562"/>
      <point x="1086" y="1412"/>
      <point x="1086" y="1189" type="curve" smooth="yes"/>
      <point x="1086" y="966"/>
      <point x="927" y="816"/>
      <point x="654" y="816" type="curve" smooth="yes"/>
      <point x="387" y="816" type="line"/>
    </contour>
    <contour>
      <point x="387" y="0" type="line"/>
      <point x="387" y="724" type="line"/>
      <point x="597" y="724" type="line"/>
      <point x="1143" y="0" type="line"/>
      <point x="1278" y="0" type="line"/>
      <point x="721" y="731" type="line"/>
      <point x="991" y="744"/>
      <point x="1192" y="907"/>
      <point x="1192" y="1189" type="curve" smooth="yes"/>
      <point x="1192" y="1465"/>
      <point x="998" y="1650"/>
      <point x="673" y="1650" type="curve" smooth="yes"/>
      <point x="281" y="1650" type="line"/>
      <point x="281" y="0" type="line"/>
    </contour>
  </outline>
</glyph>
<glyph name="S" format="2">
  <advance width="1368"/>
  <unicode hex="0053"/>
  <anchor x="696" y="0" name="bottom"/>
  <anchor x="697" y="1662" name="top"/>
  <anchor x="728" y="0" name="cedilla"/>
  <outline>
    <contour>
      <point x="700" y="-32" type="curve" smooth="yes"/>
      <point x="964" y="-32"/>
      <point x="1196" y="131"/>
      <point x="1196" y="423" type="curve" smooth="yes"/>
      <point x="1196" y="659"/>
      <point x="1049" y="792"/>
      <point x="702" y="913" type="curve" smooth="yes"/>
      <point x="458" y="999"/>
      <point x="345" y="1111"/>
      <point x="345" y="1264" type="curve" smooth="yes"/>
      <point x="345" y="1430"/>
      <point x="467" y="1583"/>
      <point x="685" y="1583" type="curve" smooth="yes"/>
      <point x="855" y="1583"/>
      <point x="976" y="1490"/>
      <point x="1026" y="1399" type="curve"/>
      <point x="1099" y="1451" type="line"/>
      <point x="1042" y="1560"/>
      <point x="896" y="1680"/>
      <point x="688" y="1680" type="curve" smooth="yes"/>
      <point x="429" y="1680"/>
      <point x="245" y="1503"/>
      <point x="245" y="1265" type="curve" smooth="yes"/>
      <point x="245" y="1070"/>
      <point x="379" y="924"/>
      <point x="650" y="829" type="curve" smooth="yes"/>
      <point x="972" y="716"/>
      <point x="1088" y="608"/>
      <point x="1088" y="418" type="curve" smooth="yes"/>
      <point x="1088" y="188"/>
      <point x="896" y="65"/>
      <point x="694" y="65" type="curve" smooth="yes"/>
      <point x="490" y="65"/>
      <point x="306" y="189"/>
      <point x="226" y="354" type="curve"/>
      <point x="147" y="307" type="line"/>
      <point x="225" y="121"/>
      <point x="443" y="-32"/>
    </contour>
  </outline>
</glyph>
<glyph name="T" format="2">
  <advance width="1421"/>
  <unicode hex="0054"/>
  <anchor x="710" y="0" name="bottom"/>
  <anchor x="710" y="1650" name="top"/>
  <outline>
    <contour>
      <point x="763" y="0" type="line"/>
      <point x="763" y="1551" type="line"/>
      <point x="1290" y="1551" type="line"/>
      <point x="1290" y="1650" type="line"/>
      <point x="130" y="1650" type="line"/>
      <point x="130" y="1551" type="line"/>
      <point x="657" y="1551" type="line"/>
      <point x="657" y="0" type="line"/>
    </contour>
  </outline>
</glyph>
<glyph name="U" format="2">
  <advance width="1627"/>
  <unicode hex="0055"/>
  <anchor x="813" y="0" name="bottom"/>
  <anchor x="864" y="0" name="ogonek"/>
  <anchor x="813" y="1650" name="top"/>
  <outline>
    <contour>
      <point x="813" y="-32" type="curve" smooth="yes"/>
      <point x="1176" y="-32"/>
      <point x="1370" y="187"/>
      <point x="1370" y="593" type="curve" smooth="yes"/>
      <point x="1370" y="1650" type="line"/>
      <point x="1264" y="1650" type="line"/>
      <point x="1264" y="610" type="line" smooth="yes"/>
      <point x="1264" y="254"/>
      <point x="1112" y="73"/>
      <point x="813" y="73" type="curve" smooth="yes"/>
      <point x="514" y="73"/>
      <point x="363" y="254"/>
      <point x="363" y="610" type="curve" smooth="yes"/>
      <point x="363" y="1650" type="line"/>
      <point x="257" y="1650" type="line"/>
      <point x="257" y="593" type="line" smooth="yes"/>
      <point x="257" y="187"/>
      <point x="450" y="-32"/>
    </contour>
  </outline>
</glyph>
<glyph name="V" format="2">
  <advance width="1729"/>
  <unicode hex="0056"/>
  <anchor x="864" y="0" name="bottom"/>
  <anchor x="864" y="1650" name="top"/>
  <outline>
    <contour>
      <point x="906" y="0" type="line"/>
      <point x="1598" y="1650" type="line"/>
      <point x="1478" y="1650" type="line"/>
      <point x="864" y="159" type="line"/>
      <point x="251" y="1650" type="line"/>
      <point x="131" y="1650" type="line"/>
      <point x="822" y="0" type="line"/>
    </contour>
  </outline>
</glyph>
<glyph name="W" format="2">
  <advance width="2519"/>
  <unicode hex="0057"/>
  <anchor x="1259" y="0" name="bottom"/>
  <anchor x="1259" y="1650" name="top"/>
  <outline>
    <contour>
      <point x="756" y="0" type="line"/>
      <point x="1259" y="1450" type="line"/>
      <point x="1763" y="0" type="line"/>
      <point x="1884" y="0" type="line"/>
      <point x="2378" y="1650" type="line"/>
      <point x="2260" y="1650" type="line"/>
      <point x="1820" y="141" type="line"/>
      <point x="1302" y="1650" type="line"/>
      <point x="1217" y="1650" type="line"/>
      <point x="698" y="141" type="line"/>
      <point x="259" y="1650" type="line"/>
      <point x="141" y="1650" type="line"/>
      <point x="635" y="0" type="line"/>
    </contour>
  </outline>
</glyph>
<glyph name="X" format="2">
  <advance width="1647"/>
  <unicode hex="0058"/>
  <outline>
    <contour>
      <point x="257" y="0" type="line"/>
      <point x="823" y="799" type="line"/>
      <point x="1389" y="0" type="line"/>
      <point x="1523" y="0" type="line"/>
      <point x="890" y="892" type="line"/>
      <point x="1425" y="1650" type="line"/>
      <point x="1297" y="1650" type="line"/>
      <point x="823" y="982" type="line"/>
      <point x="349" y="1650" type="line"/>
      <point x="221" y="1650" type="line"/>
      <point x="757" y="892" type="line"/>
      <point x="123" y="0" type="line"/>
    </contour>
  </outline>
</glyph>
<glyph name="Y" format="2">
  <advance width="1470"/>
  <unicode hex="0059"/>
  <anchor x="735" y="0" name="bottom"/>
  <anchor x="735" y="1650" name="top"/>
  <outline>
    <contour>
      <point x="788" y="0" type="line"/>
      <point x="788" y="710" type="line"/>
      <point x="1347" y="1650" type="line"/>
      <point x="1219" y="1650" type="line"/>
      <point x="735" y="827" type="line"/>
      <point x="251" y="1650" type="line"/>
      <point x="123" y="1650" type="line"/>
      <point x="682" y="710" type="line"/>
      <point x="682" y="0" type="line"/>
    </contour>
  </outline>
</glyph>
<glyph name="Z" format="2">
  <advance width="1597"/>
  <unicode hex="005A"/>
  <anchor x="798" y="0" name="bottom"/>
  <anchor x="798" y="825" name="center"/>
  <anchor x="798" y="1650" name="top"/>
  <outline>
    <contour>
      <point x="1404" y="0" type="line"/>
      <point x="1404" y="99" type="line"/>
      <point x="328" y="99" type="line"/>
      <point x="1459" y="1650" type="line"/>
      <point x="243" y="1650" type="line"/>
      <point x="243" y="1551" type="line"/>
      <point x="1262" y="1551" type="line"/>
      <point x="131" y="0" type="line"/>
    </contour>
  </outline>
</glyph>
<glyph name="bracketleft" format="2">
  <advance width="770"/>
  <unicode hex="005B"/>
  <outline>
    <contour>
      <point x="644" y="-520" type="line"/>
      <point x="644" y="-436" type="line"/>
      <point x="365" y="-436" type="line"/>
      <point x="365" y="1636" type="line"/>
      <point x="644" y="1636" type="line"/>
      <point x="644" y="1720" type="line"/>
      <point x="270" y="1720" type="line"/>
      <point x="270" y="-520" type="line"/>
    </contour>
  </outline>
</glyph>
<glyph name="backslash" format="2">
  <advance width="1048"/>
  <unicode hex="005C"/>
  <outline>
    <contour>
      <point x="977" y="0" type="line"/>
      <point x="153" y="1720" type="line"/>
      <point x="71" y="1720" type="line"/>
      <point x="895" y="0" type="line"/>
    </contour>
  </outline>
</glyph>
<glyph name="asciicircum" format="2">
  <advance width="1287"/>
  <unicode hex="005E"/>
  <outline>
    <contour>
      <point x="293" y="1210" type="line"/>
      <point x="643" y="1612" type="line"/>
      <point x="993" y="1210" type="line"/>
      <point x="1083" y="1210" type="line"/>
      <point x="669" y="1680" type="line"/>
      <point x="617" y="1680" type="line"/>
      <point x="203" y="1210" type="line"/>
    </contour>
  </outline>
</glyph>
<glyph name="underscore" format="2">
  <advance width="1476"/>
  <unicode hex="005F"/>
  <outline>
    <contour>
      <point x="1251" y="-200" type="line"/>
      <point x="1251" y="-140" type="line"/>
      <point x="225" y="-140" type="line"/>
      <point x="225" y="-200" type="line"/>
    </contour>
  </outline>
</glyph>
<glyph name="a" format="2">
  <advance width="1187"/>
  <unicode hex="0061"/>
  <anchor x="591" y="0" name="bottom"/>
  <anchor x="1066" y="10" name="ogonek"/>
  <anchor x="591" y="1025" name="top"/>
  <outline>
    <contour>
      <point x="539" y="-32" type="curve" smooth="yes"/>
      <point x="681" y="-32"/>
      <point x="806" y="21"/>
      <point x="881" y="111" type="curve"/>
      <point x="881" y="0" type="line" name=".hr01"/>
      <point x="984" y="0" type="line"/>
      <point x="984" y="632" type="line" smooth="yes"/>
      <point x="984" y="894"/>
      <point x="822" y="1056"/>
      <point x="560" y="1056" type="curve" smooth="yes"/>
      <point x="410" y="1056"/>
      <point x="289" y="1003"/>
      <point x="198" y="902" type="curve"/>
      <point x="257" y="844" type="line"/>
      <point x="344" y="930"/>
      <point x="440" y="970"/>
      <point x="552" y="970" type="curve" smooth="yes"/>
      <point x="757" y="970"/>
      <point x="881" y="837"/>
      <point x="881" y="618" type="curve" smooth="yes"/>
      <point x="881" y="485" type="line"/>
      <point x="807" y="575"/>
      <point x="679" y="629"/>
      <point x="537" y="629" type="curve" smooth="yes"/>
      <point x="304" y="629"/>
      <point x="135" y="488"/>
      <point x="135" y="296" type="curve" smooth="yes"/>
      <point x="135" y="106"/>
      <point x="304" y="-32" name=".hr02"/>
    </contour>
    <contour>
      <point x="561" y="45" type="curve" smooth="yes"/>
      <point x="373" y="45"/>
      <point x="234" y="154"/>
      <point x="234" y="302" type="curve" smooth="yes"/>
      <point x="234" y="449"/>
      <point x="371" y="555"/>
      <point x="560" y="555" type="curve" smooth="yes"/>
      <point x="750" y="555"/>
      <point x="888" y="447"/>
      <point x="888" y="300" type="curve" smooth="yes"/>
      <point x="888" y="153"/>
      <point x="749" y="45"/>
    </contour>
  </outline>
</glyph>
<glyph name="b" format="2">
  <advance width="1433"/>
  <unicode hex="0062"/>
  <anchor x="716" y="0" name="bottom"/>
  <anchor x="716" y="1720" name="top"/>
  <outline>
    <contour>
      <point x="322" y="512" type="curve" smooth="yes"/>
      <point x="322" y="777"/>
      <point x="500" y="965"/>
      <point x="749" y="965" type="curve" smooth="yes"/>
      <point x="997" y="965"/>
      <point x="1176" y="776"/>
      <point x="1176" y="512" type="curve" smooth="yes"/>
      <point x="1176" y="248"/>
      <point x="997" y="59"/>
      <point x="749" y="59" type="curve" smooth="yes"/>
      <point x="500" y="59"/>
      <point x="322" y="248"/>
    </contour>
    <contour>
      <point x="225" y="1720" type="line"/>
      <point x="225" y="0" type="line"/>
      <point x="328" y="0" type="line" name=".hr01"/>
      <point x="328" y="238" type="line"/>
      <point x="414" y="69"/>
      <point x="577" y="-32"/>
      <point x="769" y="-32" type="curve" smooth="yes" name=".hr02"/>
      <point x="1062" y="-32"/>
      <point x="1280" y="198"/>
      <point x="1280" y="512" type="curve" smooth="yes"/>
      <point x="1280" y="826"/>
      <point x="1062" y="1056"/>
      <point x="769" y="1056" type="curve" smooth="yes"/>
      <point x="577" y="1056"/>
      <point x="414" y="955"/>
      <point x="328" y="786" type="curve"/>
      <point x="328" y="1720" type="line"/>
    </contour>
  </outline>
</glyph>
<glyph name="c" format="2">
  <advance width="1164"/>
  <unicode hex="0063"/>
  <anchor x="649" y="0" name="bottom"/>
  <anchor x="649" y="1024" name="top"/>
  <anchor x="681" y="0" name="cedilla"/>
  <outline>
    <contour>
      <point x="699" y="-32" type="curve" smooth="yes"/>
      <point x="834" y="-32"/>
      <point x="958" y="12"/>
      <point x="1051" y="84" type="curve"/>
      <point x="997" y="151" type="line"/>
      <point x="919" y="89"/>
      <point x="819" y="57"/>
      <point x="709" y="57" type="curve" smooth="yes"/>
      <point x="438" y="57"/>
      <point x="251" y="254"/>
      <point x="251" y="512" type="curve" smooth="yes"/>
      <point x="251" y="773"/>
      <point x="440" y="967"/>
      <point x="708" y="967" type="curve" smooth="yes"/>
      <point x="819" y="967"/>
      <point x="919" y="935"/>
      <point x="998" y="873" type="curve"/>
      <point x="1051" y="940" type="line"/>
      <point x="960" y="1012"/>
      <point x="834" y="1056"/>
      <point x="699" y="1056" type="curve" smooth="yes"/>
      <point x="387" y="1056"/>
      <point x="149" y="827"/>
      <point x="149" y="512" type="curve" smooth="yes"/>
      <point x="149" y="199"/>
      <point x="387" y="-32"/>
    </contour>
  </outline>
</glyph>
<glyph name="d" format="2">
  <advance width="1433"/>
  <unicode hex="0064"/>
  <anchor x="662" y="0" name="bottom"/>
  <anchor x="653" y="1302" name="top"/>
  <outline>
    <contour>
      <point x="257" y="512" type="curve" smooth="yes"/>
      <point x="257" y="776"/>
      <point x="436" y="965"/>
      <point x="684" y="965" type="curve" smooth="yes"/>
      <point x="933" y="965"/>
      <point x="1111" y="777"/>
      <point x="1111" y="512" type="curve" smooth="yes"/>
      <point x="1111" y="248"/>
      <point x="933" y="59"/>
      <point x="684" y="59" type="curve" smooth="yes"/>
      <point x="436" y="59"/>
      <point x="257" y="248"/>
    </contour>
    <contour>
      <point x="153" y="512" type="curve" smooth="yes"/>
      <point x="153" y="198"/>
      <point x="371" y="-32"/>
      <point x="664" y="-32" type="curve" smooth="yes"/>
      <point x="856" y="-32"/>
      <point x="1019" y="69"/>
      <point x="1105" y="238" type="curve"/>
      <point x="1105" y="0" type="line"/>
      <point x="1208" y="0" type="line" name=".hr01"/>
      <point x="1208" y="1720" type="line"/>
      <point x="1105" y="1720" type="line"/>
      <point x="1105" y="786" type="line"/>
      <point x="1019" y="955"/>
      <point x="856" y="1056"/>
      <point x="664" y="1056" type="curve" smooth="yes"/>
      <point x="371" y="1056"/>
      <point x="153" y="826"/>
    </contour>
  </outline>
</glyph>
<glyph name="e" format="2">
  <advance width="1346"/>
  <unicode hex="0065"/>
  <anchor x="704" y="0" name="bottom"/>
  <anchor x="718" y="0" name="ogonek"/>
  <anchor x="681" y="1025" name="top"/>
  <outline>
    <contour>
      <point x="701" y="-32" type="curve" smooth="yes"/>
      <point x="901" y="-32"/>
      <point x="1074" y="59"/>
      <point x="1171" y="216" type="curve"/>
      <point x="1095" y="260" type="line"/>
      <point x="1010" y="130"/>
      <point x="871" y="56"/>
      <point x="704" y="56" type="curve" smooth="yes"/>
      <point x="439" y="56"/>
      <point x="249" y="244"/>
      <point x="249" y="505" type="curve"/>
      <point x="1209" y="505" type="line"/>
      <point x="1210" y="514"/>
      <point x="1210" y="522"/>
      <point x="1210" y="532" type="curve"/>
      <point x="1208" y="806"/>
      <point x="986" y="1056"/>
      <point x="682" y="1056" type="curve" smooth="yes"/>
      <point x="390" y="1056"/>
      <point x="147" y="818"/>
      <point x="147" y="506" type="curve" smooth="yes"/>
      <point x="147" y="203"/>
      <point x="377" y="-32"/>
    </contour>
    <contour>
      <point x="253" y="574" type="line"/>
      <point x="273" y="802"/>
      <point x="457" y="974"/>
      <point x="681" y="974" type="curve" smooth="yes"/>
      <point x="904" y="974"/>
      <point x="1087" y="804"/>
      <point x="1109" y="574" type="curve"/>
    </contour>
  </outline>
</glyph>
<glyph name="f" format="2">
  <advance width="698"/>
  <unicode hex="0066"/>
  <anchor x="290" y="0" name="bottom"/>
  <anchor x="498" y="1720" name="top"/>
  <outline>
    <contour>
      <point x="342" y="0" type="line"/>
      <point x="342" y="946" type="line"/>
      <point x="609" y="946" type="line"/>
      <point x="609" y="1024" type="line"/>
      <point x="342" y="1024" type="line"/>
      <point x="342" y="1431" type="line" smooth="yes"/>
      <point x="342" y="1582"/>
      <point x="406" y="1659"/>
      <point x="506" y="1659" type="curve" smooth="yes"/>
      <point x="551" y="1659"/>
      <point x="601" y="1643"/>
      <point x="636" y="1595" type="curve"/>
      <point x="694" y="1653" type="line"/>
      <point x="639" y="1724"/>
      <point x="565" y="1750"/>
      <point x="491" y="1750" type="curve" smooth="yes"/>
      <point x="339" y="1750"/>
      <point x="239" y="1640"/>
      <point x="239" y="1421" type="curve" smooth="yes"/>
      <point x="239" y="1024" type="line"/>
      <point x="145" y="1024" type="line"/>
      <point x="145" y="946" type="line"/>
      <point x="239" y="946" type="line"/>
      <point x="239" y="0" type="line"/>
    </contour>
  </outline>
</glyph>
<glyph name="g" format="2">
  <advance width="1434"/>
  <unicode hex="0067"/>
  <anchor x="685" y="-520" name="bottom"/>
  <anchor x="685" y="1024" name="top"/>
  <outline>
    <contour>
      <point x="154" y="512" type="curve" smooth="yes"/>
      <point x="154" y="199"/>
      <point x="373" y="-32"/>
      <point x="665" y="-32" type="curve" smooth="yes"/>
      <point x="857" y="-32"/>
      <point x="1020" y="69"/>
      <point x="1106" y="239" type="curve"/>
      <point x="1106" y="-41" type="line" smooth="yes"/>
      <point x="1106" y="-310"/>
      <point x="916" y="-463"/>
      <point x="666" y="-463" type="curve" smooth="yes"/>
      <point x="465" y="-463"/>
      <point x="300" y="-366"/>
      <point x="234" y="-213" type="curve"/>
      <point x="145" y="-252" type="line"/>
      <point x="232" y="-446"/>
      <point x="411" y="-550"/>
      <point x="664" y="-550" type="curve" smooth="yes"/>
      <point x="992" y="-550"/>
      <point x="1209" y="-377"/>
      <point x="1209" y="-28" type="curve" smooth="yes"/>
      <point x="1209" y="1024" type="line"/>
      <point x="1106" y="1024" type="line"/>
      <point x="1106" y="785" type="line"/>
      <point x="1020" y="955"/>
      <point x="857" y="1056" name=".hr01"/>
      <point x="665" y="1056" type="curve" smooth="yes"/>
      <point x="373" y="1056"/>
      <point x="154" y="825"/>
    </contour>
    <contour>
      <point x="258" y="512" type="curve" smooth="yes"/>
      <point x="258" y="776"/>
      <point x="437" y="965"/>
      <point x="685" y="965" type="curve" smooth="yes"/>
      <point x="934" y="965"/>
      <point x="1112" y="777"/>
      <point x="1112" y="512" type="curve" smooth="yes"/>
      <point x="1112" y="248"/>
      <point x="934" y="59"/>
      <point x="685" y="59" type="curve" smooth="yes"/>
      <point x="437" y="59"/>
      <point x="258" y="248"/>
    </contour>
  </outline>
</glyph>
<glyph name="h" format="2">
  <advance width="1258"/>
  <unicode hex="0068"/>
  <anchor x="629" y="0" name="bottom"/>
  <anchor x="629" y="860" name="center"/>
  <anchor x="629" y="1720" name="top"/>
  <outline>
    <contour>
      <point x="328" y="0" type="line"/>
      <point x="328" y="685" type="line" smooth="yes"/>
      <point x="328" y="833"/>
      <point x="445" y="971"/>
      <point x="647" y="971" type="curve" smooth="yes"/>
      <point x="839" y="971"/>
      <point x="949" y="847"/>
      <point x="949" y="619" type="curve" smooth="yes"/>
      <point x="949" y="0" type="line"/>
      <point x="1052" y="0" type="line"/>
      <point x="1052" y="637" type="line" smooth="yes"/>
      <point x="1052" y="907"/>
      <point x="911" y="1056"/>
      <point x="673" y="1056" type="curve" smooth="yes"/>
      <point x="496" y="1056"/>
      <point x="377" y="975"/>
      <point x="328" y="878" type="curve"/>
      <point x="328" y="1720" type="line"/>
      <point x="225" y="1720" type="line"/>
      <point x="225" y="0" type="line"/>
    </contour>
  </outline>
</glyph>
<glyph name="i" format="2">
  <advance width="550"/>
  <unicode hex="0069"/>
  <anchor x="276" y="0" name="bottom"/>
  <anchor x="326" y="0" name="ogonek"/>
  <outline>
    <component base="idotless" xOffset="-1"/>
    <contour>
      <point x="275" y="1227" type="curve" smooth="yes"/>
      <point x="316" y="1227"/>
      <point x="347" y="1259"/>
      <point x="347" y="1300" type="curve" smooth="yes"/>
      <point x="347" y="1341"/>
      <point x="316" y="1372"/>
      <point x="275" y="1372" type="curve" smooth="yes"/>
      <point x="235" y="1372"/>
      <point x="202" y="1341"/>
      <point x="202" y="1300" type="curve" smooth="yes"/>
      <point x="202" y="1259"/>
      <point x="235" y="1227"/>
    </contour>
  </outline>
</glyph>
<glyph name="j" format="2">
  <advance width="554"/>
  <unicode hex="006A"/>
  <outline>
    <contour>
      <point x="78" y="-550" type="curve" smooth="yes"/>
      <point x="232" y="-550"/>
      <point x="329" y="-443"/>
      <point x="329" y="-239" type="curve" smooth="yes"/>
      <point x="329" y="1024" type="line"/>
      <point x="226" y="1024" type="line"/>
      <point x="226" y="-236" type="line" smooth="yes"/>
      <point x="226" y="-381"/>
      <point x="161" y="-459"/>
      <point x="62" y="-459" type="curve" smooth="yes"/>
      <point x="17" y="-459"/>
      <point x="-33" y="-443"/>
      <point x="-68" y="-395" type="curve"/>
      <point x="-126" y="-453" type="line"/>
      <point x="-72" y="-524"/>
      <point x="3" y="-550"/>
    </contour>
    <contour>
      <point x="278" y="1228" type="curve" smooth="yes"/>
      <point x="317" y="1228"/>
      <point x="350" y="1261"/>
      <point x="350" y="1301" type="curve" smooth="yes" name=".hr01"/>
      <point x="350" y="1341"/>
      <point x="317" y="1374"/>
      <point x="278" y="1374" type="curve" smooth="yes"/>
      <point x="238" y="1374"/>
      <point x="204" y="1341"/>
      <point x="204" y="1301" type="curve" smooth="yes"/>
      <point x="204" y="1261"/>
      <point x="238" y="1228"/>
    </contour>
  </outline>
</glyph>
<glyph name="k" format="2">
  <advance width="1051"/>
  <unicode hex="006B"/>
  <anchor x="525" y="0" name="bottom"/>
  <anchor x="525" y="1720" name="top"/>
  <outline>
    <contour>
      <point x="328" y="0" type="line"/>
      <point x="328" y="508" type="line"/>
      <point x="773" y="0" type="line"/>
      <point x="905" y="0" type="line"/>
      <point x="423" y="548" type="line"/>
      <point x="880" y="1024" type="line"/>
      <point x="745" y="1024" type="line"/>
      <point x="328" y="593" type="line"/>
      <point x="328" y="1720" type="line"/>
      <point x="225" y="1720" type="line"/>
      <point x="225" y="0" type="line"/>
    </contour>
  </outline>
</glyph>
<glyph name="l" format="2">
  <advance width="553"/>
  <unicode hex="006C"/>
  <anchor x="276" y="0" name="bottom"/>
  <anchor x="276" y="860" name="center"/>
  <anchor x="276" y="1720" name="top"/>
  <anchor x="327" y="1720" name="topright"/>
  <outline>
    <contour>
      <point x="328" y="0" type="line"/>
      <point x="328" y="1720" type="line"/>
      <point x="225" y="1720" type="line"/>
      <point x="225" y="0" type="line"/>
    </contour>
  </outline>
</glyph>
<glyph name="m" format="2">
  <advance width="1865"/>
  <unicode hex="006D"/>
  <anchor x="1046" y="0" name="bottom"/>
  <anchor x="1021" y="1025" name="top"/>
  <outline>
    <contour>
      <point x="225" y="1024" type="line"/>
      <point x="225" y="0" type="line"/>
      <point x="328" y="0" type="line"/>
      <point x="328" y="627" type="line" smooth="yes"/>
      <point x="328" y="834"/>
      <point x="461" y="969" name=".hr01"/>
      <point x="628" y="969" type="curve" smooth="yes"/>
      <point x="786" y="969"/>
      <point x="890" y="849"/>
      <point x="890" y="658" type="curve" smooth="yes"/>
      <point x="890" y="0" type="line"/>
      <point x="993" y="0" type="line"/>
      <point x="993" y="627" type="line" smooth="yes"/>
      <point x="993" y="834"/>
      <point x="1124" y="969"/>
      <point x="1292" y="969" type="curve" smooth="yes"/>
      <point x="1451" y="969"/>
      <point x="1556" y="848"/>
      <point x="1556" y="641" type="curve" smooth="yes"/>
      <point x="1556" y="0" type="line"/>
      <point x="1659" y="0" type="line"/>
      <point x="1659" y="671" type="line" smooth="yes"/>
      <point x="1659" y="914"/>
      <point x="1514" y="1056"/>
      <point x="1315" y="1056" type="curve" smooth="yes"/>
      <point x="1150" y="1056"/>
      <point x="1023" y="956"/>
      <point x="973" y="808" type="curve"/>
      <point x="933" y="961"/>
      <point x="810" y="1056"/>
      <point x="649" y="1056" type="curve" smooth="yes"/>
      <point x="505" y="1056"/>
      <point x="389" y="980"/>
      <point x="328" y="850" type="curve"/>
      <point x="328" y="1024" type="line" name=".hr02"/>
    </contour>
  </outline>
</glyph>
<glyph name="n" format="2">
  <advance width="1258"/>
  <unicode hex="006E"/>
  <anchor x="647" y="0" name="bottom"/>
  <anchor x="647" y="1017" name="top"/>
  <outline>
    <contour>
      <point x="328" y="0" type="line"/>
      <point x="328" y="607" type="line" smooth="yes"/>
      <point x="328" y="813"/>
      <point x="445" y="969"/>
      <point x="654" y="969" type="curve" smooth="yes"/>
      <point x="842" y="969"/>
      <point x="949" y="843"/>
      <point x="949" y="619" type="curve" smooth="yes"/>
      <point x="949" y="0" type="line"/>
      <point x="1052" y="0" type="line"/>
      <point x="1052" y="637" type="line" smooth="yes"/>
      <point x="1052" y="902"/>
      <point x="915" y="1056"/>
      <point x="682" y="1056" type="curve" smooth="yes"/>
      <point x="496" y="1056"/>
      <point x="377" y="955"/>
      <point x="328" y="841" type="curve"/>
      <point x="328" y="1024" type="line" name=".hr01"/>
      <point x="225" y="1024" type="line"/>
      <point x="225" y="0" type="line"/>
    </contour>
  </outline>
</glyph>
<glyph name="o" format="2">
  <advance width="1415"/>
  <unicode hex="006F"/>
  <anchor x="707" y="0" name="bottom"/>
  <anchor x="707" y="512" name="center"/>
  <anchor x="720" y="0" name="ogonek"/>
  <anchor x="707" y="1024" name="top"/>
  <outline>
    <contour>
      <point x="708" y="-32" type="curve" smooth="yes"/>
      <point x="1023" y="-32"/>
      <point x="1266" y="190"/>
      <point x="1266" y="512" type="curve" smooth="yes"/>
      <point x="1266" y="834"/>
      <point x="1023" y="1056"/>
      <point x="708" y="1056" type="curve" smooth="yes"/>
      <point x="393" y="1056"/>
      <point x="150" y="834"/>
      <point x="150" y="512" type="curve" smooth="yes"/>
      <point x="150" y="190"/>
      <point x="393" y="-32"/>
    </contour>
    <contour>
      <point x="708" y="62" type="curve" smooth="yes"/>
      <point x="446" y="62"/>
      <point x="256" y="250"/>
      <point x="256" y="512" type="curve" smooth="yes"/>
      <point x="256" y="774"/>
      <point x="446" y="962"/>
      <point x="708" y="962" type="curve" smooth="yes"/>
      <point x="970" y="962"/>
      <point x="1160" y="774"/>
      <point x="1160" y="512" type="curve" smooth="yes"/>
      <point x="1160" y="250"/>
      <point x="970" y="62"/>
    </contour>
  </outline>
</glyph>
<glyph name="p" format="2">
  <advance width="1433"/>
  <unicode hex="0070"/>
  <anchor x="747" y="0" name="bottom"/>
  <anchor x="747" y="1024" name="top"/>
  <outline>
    <contour>
      <point x="1176" y="512" type="curve" smooth="yes"/>
      <point x="1176" y="248"/>
      <point x="997" y="59"/>
      <point x="749" y="59" type="curve" smooth="yes"/>
      <point x="500" y="59"/>
      <point x="322" y="248"/>
      <point x="322" y="512" type="curve" smooth="yes"/>
      <point x="322" y="777"/>
      <point x="500" y="965"/>
      <point x="749" y="965" type="curve" smooth="yes"/>
      <point x="997" y="965"/>
      <point x="1176" y="776"/>
    </contour>
    <contour>
      <point x="1280" y="512" type="curve" smooth="yes"/>
      <point x="1280" y="826"/>
      <point x="1062" y="1056"/>
      <point x="769" y="1056" type="curve" smooth="yes"/>
      <point x="577" y="1056"/>
      <point x="414" y="955"/>
      <point x="328" y="786" type="curve"/>
      <point x="328" y="1024" type="line"/>
      <point x="225" y="1024" type="line"/>
      <point x="225" y="-520" type="line"/>
      <point x="328" y="-520" type="line"/>
      <point x="328" y="238" type="line"/>
      <point x="414" y="69"/>
      <point x="577" y="-32"/>
      <point x="769" y="-32" type="curve" smooth="yes"/>
      <point x="1062" y="-32"/>
      <point x="1280" y="198"/>
    </contour>
  </outline>
</glyph>
<glyph name="q" format="2">
  <advance width="1393"/>
  <unicode hex="0071"/>
  <anchor x="697" y="0" name="bottom"/>
  <anchor x="667" y="1024" name="top"/>
  <outline>
    <contour>
      <point x="239" y="512" type="curve" smooth="yes"/>
      <point x="239" y="776"/>
      <point x="418" y="965"/>
      <point x="666" y="965" type="curve" smooth="yes"/>
      <point x="915" y="965"/>
      <point x="1093" y="777"/>
      <point x="1093" y="512" type="curve" smooth="yes"/>
      <point x="1093" y="248"/>
      <point x="915" y="59"/>
      <point x="666" y="59" type="curve" smooth="yes"/>
      <point x="418" y="59"/>
      <point x="239" y="248"/>
    </contour>
    <contour>
      <point x="135" y="512" type="curve" smooth="yes"/>
      <point x="135" y="198"/>
      <point x="353" y="-32"/>
      <point x="646" y="-32" type="curve" smooth="yes"/>
      <point x="838" y="-32"/>
      <point x="1001" y="69"/>
      <point x="1087" y="238" type="curve"/>
      <point x="1087" y="-520" type="line"/>
      <point x="1190" y="-520" type="line"/>
      <point x="1190" y="1024" type="line"/>
      <point x="1087" y="1024" type="line" name=".hr01"/>
      <point x="1087" y="786" type="line"/>
      <point x="1001" y="955"/>
      <point x="838" y="1056"/>
      <point x="646" y="1056" type="curve" smooth="yes" name=".hr02"/>
      <point x="353" y="1056"/>
      <point x="135" y="826"/>
    </contour>
  </outline>
</glyph>
<glyph name="r" format="2">
  <advance width="864"/>
  <unicode hex="0072"/>
  <anchor x="436" y="0" name="bottom"/>
  <anchor x="485" y="1024" name="top"/>
  <outline>
    <contour>
      <point x="328" y="0" type="line"/>
      <point x="328" y="670" type="line" smooth="yes"/>
      <point x="328" y="838"/>
      <point x="457" y="966"/>
      <point x="614" y="966" type="curve" smooth="yes"/>
      <point x="660" y="966"/>
      <point x="712" y="955"/>
      <point x="751" y="939" type="curve"/>
      <point x="792" y="1026" type="line"/>
      <point x="748" y="1044"/>
      <point x="689" y="1056"/>
      <point x="629" y="1056" type="curve" smooth="yes"/>
      <point x="490" y="1056"/>
      <point x="385" y="994"/>
      <point x="328" y="861" type="curve"/>
      <point x="328" y="1024" type="line" name=".hr01"/>
      <point x="225" y="1024" type="line"/>
      <point x="225" y="0" type="line"/>
    </contour>
  </outline>
</glyph>
<glyph name="s" format="2">
  <advance width="983"/>
  <unicode hex="0073"/>
  <anchor x="491" y="0" name="bottom"/>
  <anchor x="478" y="1024" name="top"/>
  <outline>
    <contour>
      <point x="491" y="-32" type="curve" smooth="yes"/>
      <point x="700" y="-32"/>
      <point x="842" y="70"/>
      <point x="842" y="258" type="curve" smooth="yes"/>
      <point x="842" y="445"/>
      <point x="693" y="523"/>
      <point x="499" y="597" type="curve" smooth="yes"/>
      <point x="360" y="649"/>
      <point x="264" y="688"/>
      <point x="264" y="798" type="curve" smooth="yes"/>
      <point x="264" y="903"/>
      <point x="349" y="976"/>
      <point x="483" y="976" type="curve" smooth="yes"/>
      <point x="582" y="976"/>
      <point x="660" y="935"/>
      <point x="710" y="854" type="curve"/>
      <point x="772" y="895" type="line"/>
      <point x="713" y="998"/>
      <point x="607" y="1056"/>
      <point x="478" y="1056" type="curve" smooth="yes"/>
      <point x="294" y="1056"/>
      <point x="167" y="944"/>
      <point x="167" y="796" type="curve" smooth="yes"/>
      <point x="167" y="634"/>
      <point x="318" y="571"/>
      <point x="452" y="520" type="curve" smooth="yes"/>
      <point x="618" y="457"/>
      <point x="742" y="401"/>
      <point x="742" y="261" type="curve" smooth="yes"/>
      <point x="742" y="119"/>
      <point x="622" y="51"/>
      <point x="485" y="51" type="curve" smooth="yes"/>
      <point x="361" y="51"/>
      <point x="251" y="102"/>
      <point x="185" y="220" type="curve"/>
      <point x="120" y="180" type="line"/>
      <point x="199" y="27"/>
      <point x="338" y="-32"/>
    </contour>
  </outline>
</glyph>
<glyph name="t" format="2">
  <advance width="715"/>
  <unicode hex="0074"/>
  <anchor x="447" y="0" name="bottom"/>
  <anchor x="357" y="512" name="center"/>
  <anchor x="370" y="1406" name="top"/>
  <anchor x="681" y="1024" name="topright"/>
  <outline>
    <contour>
      <point x="451" y="-32" type="curve" smooth="yes"/>
      <point x="517" y="-32"/>
      <point x="582" y="-9"/>
      <point x="620" y="22" type="curve"/>
      <point x="575" y="89" type="line"/>
      <point x="548" y="69"/>
      <point x="509" y="58"/>
      <point x="473" y="58" type="curve" smooth="yes"/>
      <point x="385" y="58"/>
      <point x="336" y="125"/>
      <point x="336" y="247" type="curve" smooth="yes"/>
      <point x="336" y="946" type="line"/>
      <point x="599" y="946" type="line"/>
      <point x="599" y="1024" type="line"/>
      <point x="336" y="1024" type="line"/>
      <point x="336" y="1406" type="line"/>
      <point x="233" y="1406" type="line"/>
      <point x="233" y="1024" type="line"/>
      <point x="137" y="1024" type="line"/>
      <point x="137" y="946" type="line"/>
      <point x="233" y="946" type="line"/>
      <point x="233" y="244" type="line" smooth="yes"/>
      <point x="233" y="68"/>
      <point x="313" y="-32"/>
    </contour>
  </outline>
</glyph>
<glyph name="u" format="2">
  <advance width="1230"/>
  <unicode hex="0075"/>
  <anchor x="615" y="0" name="bottom"/>
  <anchor x="628" y="0" name="ogonek"/>
  <anchor x="615" y="1024" name="top"/>
  <outline>
    <contour>
      <point x="615" y="-32" type="curve" smooth="yes"/>
      <point x="896" y="-32"/>
      <point x="1023" y="114"/>
      <point x="1023" y="436" type="curve" smooth="yes"/>
      <point x="1023" y="1024" type="line"/>
      <point x="920" y="1024" type="line"/>
      <point x="920" y="450" type="line" smooth="yes"/>
      <point x="920" y="170"/>
      <point x="833" y="57"/>
      <point x="615" y="57" type="curve" smooth="yes"/>
      <point x="397" y="57"/>
      <point x="310" y="170"/>
      <point x="310" y="450" type="curve" smooth="yes"/>
      <point x="310" y="1024" type="line"/>
      <point x="207" y="1024" type="line"/>
      <point x="207" y="436" type="line" smooth="yes"/>
      <point x="207" y="114"/>
      <point x="334" y="-32"/>
    </contour>
  </outline>
</glyph>
<glyph name="v" format="2">
  <advance width="1209"/>
  <unicode hex="0076"/>
  <anchor x="604" y="0" name="bottom"/>
  <anchor x="604" y="1025" name="top"/>
  <outline>
    <contour>
      <point x="639" y="0" type="line"/>
      <point x="1123" y="1024" type="line"/>
      <point x="1004" y="1024" type="line"/>
      <point x="604" y="155" type="line"/>
      <point x="205" y="1024" type="line"/>
      <point x="85" y="1024" type="line"/>
      <point x="571" y="0" type="line"/>
    </contour>
  </outline>
</glyph>
<glyph name="w" format="2">
  <advance width="1951"/>
  <unicode hex="0077"/>
  <anchor x="975" y="0" name="bottom"/>
  <anchor x="975" y="1025" name="top"/>
  <outline>
    <contour>
      <point x="639" y="0" type="line"/>
      <point x="975" y="853" type="line"/>
      <point x="1312" y="0" type="line"/>
      <point x="1380" y="0" type="line"/>
      <point x="1865" y="1024" type="line"/>
      <point x="1747" y="1024" type="line"/>
      <point x="1348" y="156" type="line"/>
      <point x="1009" y="1024" type="line"/>
      <point x="942" y="1024" type="line"/>
      <point x="602" y="156" type="line"/>
      <point x="203" y="1024" type="line"/>
      <point x="85" y="1024" type="line"/>
      <point x="571" y="0" type="line"/>
    </contour>
  </outline>
</glyph>
<glyph name="x" format="2">
  <advance width="1163"/>
  <unicode hex="0078"/>
  <anchor x="582" y="0" name="bottom"/>
  <anchor x="582" y="1024" name="top"/>
  <outline>
    <contour>
      <point x="202" y="0" type="line"/>
      <point x="582" y="466" type="line"/>
      <point x="962" y="0" type="line"/>
      <point x="1082" y="0" type="line"/>
      <point x="651" y="527" type="line"/>
      <point x="1024" y="1024" type="line"/>
      <point x="907" y="1024" type="line"/>
      <point x="582" y="594" type="line"/>
      <point x="256" y="1024" type="line"/>
      <point x="139" y="1024" type="line"/>
      <point x="513" y="527" type="line"/>
      <point x="82" y="0" type="line"/>
    </contour>
  </outline>
</glyph>
<glyph name="y" format="2">
  <advance width="1224"/>
  <unicode hex="0079"/>
  <anchor x="613" y="0" name="bottom"/>
  <anchor x="612" y="1024" name="top"/>
  <outline>
    <contour>
      <point x="455" y="-520" type="line"/>
      <point x="1138" y="1024" type="line"/>
      <point x="1022" y="1024" type="line"/>
      <point x="630" y="108" type="line"/>
      <point x="201" y="1024" type="line"/>
      <point x="85" y="1024" type="line"/>
      <point x="572" y="-2" type="line"/>
      <point x="340" y="-520" type="line"/>
    </contour>
  </outline>
</glyph>
<glyph name="z" format="2">
  <advance width="1201"/>
  <unicode hex="007A"/>
  <anchor x="600" y="0" name="bottom"/>
  <anchor x="600" y="1023" name="top"/>
  <outline>
    <contour>
      <point x="1079" y="0" type="line"/>
      <point x="1079" y="89" type="line"/>
      <point x="288" y="89" type="line"/>
      <point x="1099" y="1024" type="line"/>
      <point x="166" y="1024" type="line"/>
      <point x="166" y="935" type="line"/>
      <point x="899" y="935" type="line"/>
      <point x="91" y="0" type="line"/>
    </contour>
  </outline>
</glyph>
<glyph name="braceleft" format="2">
  <advance width="770"/>
  <unicode hex="007B"/>
  <outline>
    <contour>
      <point x="636" y="-520" type="line"/>
      <point x="636" y="-433" type="line"/>
      <point x="597" y="-433" type="line" smooth="yes"/>
      <point x="433" y="-433"/>
      <point x="357" y="-331"/>
      <point x="357" y="-153" type="curve" smooth="yes"/>
      <point x="357" y="502" type="line" smooth="yes"/>
      <point x="357" y="553"/>
      <point x="342" y="584"/>
      <point x="314" y="600" type="curve"/>
      <point x="342" y="616"/>
      <point x="357" y="646"/>
      <point x="357" y="698" type="curve" smooth="yes"/>
      <point x="357" y="1354" type="line" smooth="yes"/>
      <point x="357" y="1531"/>
      <point x="433" y="1633"/>
      <point x="597" y="1633" type="curve" smooth="yes"/>
      <point x="636" y="1633" type="line"/>
      <point x="636" y="1720" type="line"/>
      <point x="580" y="1720" type="line" smooth="yes"/>
      <point x="324" y="1720"/>
      <point x="262" y="1524"/>
      <point x="262" y="1358" type="curve" smooth="yes"/>
      <point x="262" y="728" type="line" smooth="yes"/>
      <point x="262" y="661"/>
      <point x="237" y="635"/>
      <point x="184" y="635" type="curve"/>
      <point x="184" y="565" type="line"/>
      <point x="237" y="565"/>
      <point x="262" y="539"/>
      <point x="262" y="472" type="curve" smooth="yes"/>
      <point x="262" y="-158" type="line" smooth="yes"/>
      <point x="262" y="-324"/>
      <point x="324" y="-520"/>
      <point x="580" y="-520" type="curve" smooth="yes"/>
    </contour>
  </outline>
</glyph>
<glyph name="asciitilde" format="2">
  <advance width="1528"/>
  <unicode hex="007E"/>
  <outline>
    <contour>
      <point x="275" y="770" type="curve"/>
      <point x="339" y="728" type="line"/>
      <point x="386" y="808"/>
      <point x="460" y="871"/>
      <point x="563" y="871" type="curve" smooth="yes"/>
      <point x="727" y="871"/>
      <point x="781" y="711"/>
      <point x="965" y="711" type="curve" smooth="yes"/>
      <point x="1079" y="711"/>
      <point x="1181" y="774"/>
      <point x="1252" y="896" type="curve"/>
      <point x="1188" y="938" type="line"/>
      <point x="1134" y="846"/>
      <point x="1054" y="795"/>
      <point x="962" y="795" type="curve" smooth="yes"/>
      <point x="799" y="795"/>
      <point x="746" y="955"/>
      <point x="561" y="955" type="curve" smooth="yes"/>
      <point x="432" y="955"/>
      <point x="336" y="877"/>
    </contour>
  </outline>
</glyph>
<glyph name="cent" format="2">
  <advance width="1391"/>
  <unicode hex="00A2"/>
  <outline>
    <component base="c" xOffset="102"/>
    <contour>
      <point x="713" y="1272" type="line"/>
      <point x="713" y="1020" type="line"/>
      <point x="784" y="1020" type="line"/>
      <point x="784" y="1272" type="line"/>
    </contour>
    <contour>
      <point x="759" y="0" type="line" name=".hr01"/>
      <point x="759" y="-258" type="line"/>
      <point x="832" y="-258" type="line"/>
      <point x="832" y="0" type="line"/>
    </contour>
  </outline>
</glyph>
<glyph name="sterling" format="2">
  <advance width="1749"/>
  <unicode hex="00A3"/>
  <outline>
    <contour>
      <point x="1163" y="-30" type="curve" smooth="yes"/>
      <point x="1360" y="-30"/>
      <point x="1497" y="106"/>
      <point x="1526" y="277" type="curve"/>
      <point x="1439" y="319" type="line"/>
      <point x="1423" y="189"/>
      <point x="1333" y="59"/>
      <point x="1160" y="59" type="curve" smooth="yes"/>
      <point x="973" y="59"/>
      <point x="832" y="220"/>
      <point x="656" y="223" type="curve"/>
      <point x="691" y="303"/>
      <point x="705" y="382"/>
      <point x="705" y="448" type="curve" smooth="yes"/>
      <point x="705" y="524"/>
      <point x="686" y="578"/>
      <point x="654" y="634" type="curve"/>
      <point x="1148" y="634" type="line"/>
      <point x="1148" y="703" type="line"/>
      <point x="625" y="703" type="line"/>
      <point x="554" y="824"/>
      <point x="467" y="946"/>
      <point x="467" y="1141" type="curve" smooth="yes"/>
      <point x="467" y="1411"/>
      <point x="635" y="1594"/>
      <point x="905" y="1594" type="curve" smooth="yes"/>
      <point x="1182" y="1594"/>
      <point x="1320" y="1403"/>
      <point x="1356" y="1227" type="curve"/>
      <point x="1445" y="1260" type="line"/>
      <point x="1386" y="1528"/>
      <point x="1165" y="1680"/>
      <point x="903" y="1680" type="curve" smooth="yes"/>
      <point x="591" y="1680"/>
      <point x="368" y="1466"/>
      <point x="368" y="1140" type="curve" smooth="yes"/>
      <point x="368" y="949"/>
      <point x="446" y="819"/>
      <point x="526" y="703" type="curve"/>
      <point x="234" y="703" type="line"/>
      <point x="234" y="634" type="line"/>
      <point x="565" y="634" type="line"/>
      <point x="594" y="583"/>
      <point x="618" y="528"/>
      <point x="618" y="447" type="curve" smooth="yes"/>
      <point x="618" y="368"/>
      <point x="598" y="285"/>
      <point x="574" y="226" type="curve"/>
      <point x="417" y="216"/>
      <point x="299" y="111"/>
      <point x="289" y="0" type="curve"/>
      <point x="382" y="0" type="line"/>
      <point x="396" y="87"/>
      <point x="506" y="145"/>
      <point x="616" y="145" type="curve" smooth="yes"/>
      <point x="808" y="145"/>
      <point x="939" y="-30"/>
    </contour>
  </outline>
</glyph>
<glyph name="currency" format="2">
  <advance width="1223"/>
  <unicode hex="00A4"/>
  <outline>
    <contour>
      <point x="313" y="313" type="line"/>
      <point x="392" y="243"/>
      <point x="496" y="201"/>
      <point x="611" y="201" type="curve" smooth="yes"/>
      <point x="726" y="201"/>
      <point x="830" y="243"/>
      <point x="909" y="313" type="curve"/>
      <point x="1043" y="178" type="line"/>
      <point x="1087" y="223" type="line"/>
      <point x="953" y="357" type="line"/>
      <point x="1022" y="436"/>
      <point x="1064" y="540"/>
      <point x="1064" y="655" type="curve" smooth="yes"/>
      <point x="1064" y="770"/>
      <point x="1022" y="874"/>
      <point x="953" y="953" type="curve"/>
      <point x="1087" y="1087" type="line"/>
      <point x="1043" y="1132" type="line"/>
      <point x="909" y="997" type="line"/>
      <point x="830" y="1067"/>
      <point x="726" y="1109"/>
      <point x="611" y="1109" type="curve" smooth="yes"/>
      <point x="496" y="1109"/>
      <point x="392" y="1067"/>
      <point x="313" y="997" type="curve"/>
      <point x="179" y="1132" type="line"/>
      <point x="135" y="1087" type="line"/>
      <point x="269" y="953" type="line"/>
      <point x="200" y="874"/>
      <point x="158" y="770"/>
      <point x="158" y="655" type="curve" smooth="yes"/>
      <point x="158" y="540"/>
      <point x="200" y="436"/>
      <point x="269" y="357" type="curve"/>
      <point x="135" y="223" type="line"/>
      <point x="179" y="178" type="line"/>
    </contour>
    <contour>
      <point x="611" y="283" type="curve" smooth="yes"/>
      <point x="404" y="283"/>
      <point x="239" y="448"/>
      <point x="239" y="655" type="curve" smooth="yes"/>
      <point x="239" y="862"/>
      <point x="404" y="1027"/>
      <point x="611" y="1027" type="curve" smooth="yes"/>
      <point x="818" y="1027"/>
      <point x="983" y="862"/>
      <point x="983" y="655" type="curve" smooth="yes"/>
      <point x="983" y="448"/>
      <point x="818" y="283"/>
    </contour>
  </outline>
</glyph>
<glyph name="yen" format="2">
  <advance width="1641"/>
  <unicode hex="00A5"/>
  <outline>
    <component base="Y" xOffset="84"/>
    <contour>
      <point x="378" y="762" type="line"/>
      <point x="378" y="682" type="line"/>
      <point x="1263" y="682" type="line"/>
      <point x="1263" y="762" type="line"/>
    </contour>
    <contour>
      <point x="378" y="418" type="line"/>
      <point x="378" y="338" type="line"/>
      <point x="1263" y="338" type="line"/>
      <point x="1263" y="418" type="line"/>
    </contour>
  </outline>
</glyph>
<glyph name="section" format="2">
  <advance width="1484"/>
  <unicode hex="00A7"/>
  <outline>
    <contour>
      <point x="754" y="-550" type="curve" smooth="yes"/>
      <point x="1024" y="-550"/>
      <point x="1237" y="-375"/>
      <point x="1237" y="-107" type="curve" smooth="yes"/>
      <point x="1237" y="38"/>
      <point x="1175" y="150"/>
      <point x="1048" y="240" type="curve"/>
      <point x="1166" y="289"/>
      <point x="1244" y="402"/>
      <point x="1245" y="521" type="curve" smooth="yes"/>
      <point x="1246" y="747"/>
      <point x="970" y="850"/>
      <point x="778" y="925" type="curve" smooth="yes"/>
      <point x="605" y="992"/>
      <point x="417" y="1061"/>
      <point x="417" y="1263" type="curve" smooth="yes"/>
      <point x="417" y="1442"/>
      <point x="557" y="1586"/>
      <point x="745" y="1586" type="curve" smooth="yes"/>
      <point x="891" y="1586"/>
      <point x="1021" y="1501"/>
      <point x="1062" y="1388" type="curve"/>
      <point x="1156" y="1418" type="line"/>
      <point x="1101" y="1560"/>
      <point x="951" y="1680"/>
      <point x="743" y="1680" type="curve" smooth="yes"/>
      <point x="492" y="1680"/>
      <point x="308" y="1501"/>
      <point x="308" y="1259" type="curve" smooth="yes"/>
      <point x="308" y="1122"/>
      <point x="368" y="1018"/>
      <point x="490" y="938" type="curve"/>
      <point x="377" y="895"/>
      <point x="299" y="781"/>
      <point x="298" y="658" type="curve" smooth="yes"/>
      <point x="295" y="451"/>
      <point x="512" y="356"/>
      <point x="688" y="287" type="curve"/>
      <point x="944" y="189"/>
      <point x="1126" y="111"/>
      <point x="1126" y="-109" type="curve" smooth="yes"/>
      <point x="1126" y="-320"/>
      <point x="965" y="-456"/>
      <point x="754" y="-456" type="curve" smooth="yes"/>
      <point x="552" y="-456"/>
      <point x="368" y="-333"/>
      <point x="304" y="-158" type="curve"/>
      <point x="211" y="-189" type="line"/>
      <point x="258" y="-351"/>
      <point x="465" y="-550"/>
    </contour>
    <contour>
      <point x="968" y="283" type="curve"/>
      <point x="879" y="330"/>
      <point x="859" y="341"/>
      <point x="728" y="389" type="curve" smooth="yes"/>
      <point x="519" y="467"/>
      <point x="411" y="526"/>
      <point x="411" y="663" type="curve" smooth="yes"/>
      <point x="411" y="779"/>
      <point x="489" y="870"/>
      <point x="570" y="896" type="curve"/>
      <point x="639" y="863"/>
      <point x="665" y="851"/>
      <point x="723" y="830" type="curve" smooth="yes"/>
      <point x="1031" y="720"/>
      <point x="1132" y="638"/>
      <point x="1132" y="511" type="curve" smooth="yes"/>
      <point x="1132" y="406"/>
      <point x="1059" y="315"/>
    </contour>
  </outline>
</glyph>
<glyph name="copyright" format="2">
  <advance width="2148"/>
  <unicode hex="00A9"/>
  <outline>
    <component base="c" xScale="0.9599" yScale="0.9599" xOffset="427" yOffset="331"/>
    <contour>
      <point x="1073" y="-32" type="curve" smooth="yes"/>
      <point x="1544" y="-32"/>
      <point x="1912" y="341"/>
      <point x="1912" y="820" type="curve" smooth="yes"/>
      <point x="1912" y="1301"/>
      <point x="1541" y="1680"/>
      <point x="1073" y="1680" type="curve" smooth="yes"/>
      <point x="607" y="1680"/>
      <point x="237" y="1299"/>
      <point x="237" y="820" type="curve" smooth="yes"/>
      <point x="237" y="338"/>
      <point x="601" y="-32"/>
    </contour>
    <contour>
      <point x="1073" y="49" type="curve" smooth="yes"/>
      <point x="648" y="49"/>
      <point x="324" y="382"/>
      <point x="324" y="820" type="curve" smooth="yes"/>
      <point x="324" y="1254"/>
      <point x="656" y="1599"/>
      <point x="1073" y="1599" type="curve" smooth="yes"/>
      <point x="1493" y="1599"/>
      <point x="1825" y="1255"/>
      <point x="1825" y="820" type="curve" smooth="yes"/>
      <point x="1825" y="386"/>
      <point x="1497" y="49"/>
    </contour>
  </outline>
</glyph>
<glyph name="ordfeminine" format="2">
  <advance width="1053"/>
  <unicode hex="00AA"/>
  <outline>
    <contour>
      <point x="489" y="1008" type="curve" smooth="yes"/>
      <point x="610" y="1008"/>
      <point x="710" y="1073"/>
      <point x="760" y="1175" type="curve"/>
      <point x="760" y="1028" type="line"/>
      <point x="824" y="1028" type="line"/>
      <point x="824" y="1660" type="line"/>
      <point x="760" y="1660" type="line"/>
      <point x="760" y="1514" type="line"/>
      <point x="710" y="1617"/>
      <point x="609" y="1680"/>
      <point x="491" y="1680" type="curve" smooth="yes"/>
      <point x="309" y="1680"/>
      <point x="173" y="1538"/>
      <point x="173" y="1344" type="curve" smooth="yes"/>
      <point x="173" y="1147"/>
      <point x="310" y="1008"/>
    </contour>
    <contour>
      <point x="500" y="1063" type="curve" smooth="yes"/>
      <point x="348" y="1063"/>
      <point x="237" y="1182"/>
      <point x="237" y="1344" type="curve" smooth="yes"/>
      <point x="237" y="1508"/>
      <point x="349" y="1625"/>
      <point x="500" y="1625" type="curve" smooth="yes"/>
      <point x="651" y="1625"/>
      <point x="761" y="1508"/>
      <point x="761" y="1344" type="curve" smooth="yes"/>
      <point x="761" y="1182"/>
      <point x="652" y="1063"/>
    </contour>
  </outline>
</glyph>
<glyph name="guillemetleft" format="2">
  <advance width="1077"/>
  <unicode hex="00AB"/>
  <outline>
    <contour>
      <point x="600" y="109" type="line"/>
      <point x="250" y="557" type="line"/>
      <point x="600" y="1004" type="line"/>
      <point x="533" y="1057" type="line"/>
      <point x="143" y="557" type="line"/>
      <point x="533" y="57" type="line"/>
    </contour>
    <contour>
      <point x="920" y="109" type="line"/>
      <point x="570" y="557" type="line"/>
      <point x="920" y="1004" type="line"/>
      <point x="854" y="1057" type="line"/>
      <point x="464" y="557" type="line"/>
      <point x="854" y="57" type="line"/>
    </contour>
  </outline>
</glyph>
<glyph name="logicalnot" format="2">
  <advance width="1455"/>
  <unicode hex="00AC"/>
  <outline>
    <contour>
      <point x="1240" y="316" type="line"/>
      <point x="1240" y="872" type="line"/>
      <point x="216" y="872" type="line"/>
      <point x="216" y="784" type="line"/>
      <point x="1152" y="784" type="line"/>
      <point x="1152" y="316" type="line"/>
    </contour>
  </outline>
</glyph>
<glyph name="softhyphen" format="2">
  <advance width="1094"/>
  <unicode hex="00AD"/>
  <outline>
    <contour>
      <point x="869" y="536" type="line"/>
      <point x="869" y="624" type="line"/>
      <point x="225" y="624" type="line"/>
      <point x="225" y="536" type="line"/>
    </contour>
  </outline>
</glyph>
<glyph name="registered" format="2">
  <advance width="1420"/>
  <unicode hex="00AE"/>
  <outline>
    <component base="R" xScale="0.3547" yScale="0.3547" xOffset="452" yOffset="939"/>
    <contour>
      <point x="710" y="770" type="curve" smooth="yes"/>
      <point x="962" y="770"/>
      <point x="1169" y="979"/>
      <point x="1169" y="1231" type="curve" smooth="yes"/>
      <point x="1169" y="1483"/>
      <point x="962" y="1692"/>
      <point x="710" y="1692" type="curve" smooth="yes"/>
      <point x="457" y="1692"/>
      <point x="250" y="1483"/>
      <point x="250" y="1231" type="curve" smooth="yes"/>
      <point x="250" y="979"/>
      <point x="457" y="770"/>
    </contour>
    <contour>
      <point x="710" y="817" type="curve" smooth="yes"/>
      <point x="482" y="817"/>
      <point x="297" y="1004"/>
      <point x="297" y="1231" type="curve" smooth="yes"/>
      <point x="297" y="1458"/>
      <point x="482" y="1645"/>
      <point x="710" y="1645" type="curve" smooth="yes"/>
      <point x="937" y="1645"/>
      <point x="1122" y="1458"/>
      <point x="1122" y="1231" type="curve" smooth="yes"/>
      <point x="1122" y="1004"/>
      <point x="937" y="817"/>
    </contour>
  </outline>
</glyph>
<glyph name="degree" format="2">
  <advance width="1013"/>
  <unicode hex="00B0"/>
  <outline>
    <contour>
      <point x="506" y="1338" type="curve" smooth="yes"/>
      <point x="628" y="1338"/>
      <point x="714" y="1424"/>
      <point x="714" y="1544" type="curve" smooth="yes"/>
      <point x="714" y="1666"/>
      <point x="623" y="1750"/>
      <point x="506" y="1750" type="curve" smooth="yes"/>
      <point x="391" y="1750"/>
      <point x="299" y="1666"/>
      <point x="299" y="1543" type="curve" smooth="yes"/>
      <point x="299" y="1426"/>
      <point x="381" y="1338"/>
    </contour>
    <contour>
      <point x="507" y="1397" type="curve" smooth="yes"/>
      <point x="420" y="1397"/>
      <point x="362" y="1456"/>
      <point x="362" y="1542" type="curve" smooth="yes"/>
      <point x="362" y="1631"/>
      <point x="424" y="1691"/>
      <point x="506" y="1691" type="curve" smooth="yes"/>
      <point x="586" y="1691"/>
      <point x="651" y="1633"/>
      <point x="651" y="1543" type="curve" smooth="yes"/>
      <point x="651" y="1457"/>
      <point x="593" y="1397"/>
    </contour>
  </outline>
</glyph>
<glyph name="plusminus" format="2">
  <advance width="1493"/>
  <unicode hex="00B1"/>
  <outline>
    <contour>
      <point x="791" y="331" type="line"/>
      <point x="791" y="792" type="line"/>
      <point x="1259" y="792" type="line"/>
      <point x="1259" y="880" type="line"/>
      <point x="791" y="880" type="line"/>
      <point x="791" y="1340" type="line"/>
      <point x="702" y="1340" type="line"/>
      <point x="702" y="880" type="line"/>
      <point x="234" y="880" type="line"/>
      <point x="234" y="792" type="line"/>
      <point x="702" y="792" type="line"/>
      <point x="702" y="331" type="line"/>
    </contour>
    <contour>
      <point x="1259" y="0" type="line"/>
      <point x="1259" y="88" type="line"/>
      <point x="234" y="88" type="line"/>
      <point x="234" y="0" type="line"/>
    </contour>
  </outline>
</glyph>
<glyph name="twosuperior" format="2">
  <advance width="952"/>
  <unicode hex="00B2"/>
  <outline>
    <contour>
      <point x="702" y="1026" type="line"/>
      <point x="702" y="1081" type="line"/>
      <point x="359" y="1081" type="line"/>
      <point x="617" y="1273"/>
      <point x="690" y="1361"/>
      <point x="690" y="1471" type="curve" smooth="yes"/>
      <point x="690" y="1597"/>
      <point x="593" y="1680"/>
      <point x="475" y="1680" type="curve" smooth="yes"/>
      <point x="358" y="1680"/>
      <point x="266" y="1596"/>
      <point x="254" y="1480" type="curve"/>
      <point x="309" y="1461" type="line"/>
      <point x="318" y="1554"/>
      <point x="387" y="1625"/>
      <point x="476" y="1625" type="curve" smooth="yes"/>
      <point x="559" y="1625"/>
      <point x="623" y="1564"/>
      <point x="623" y="1477" type="curve" smooth="yes"/>
      <point x="623" y="1369"/>
      <point x="521" y="1256"/>
      <point x="247" y="1063" type="curve"/>
      <point x="247" y="1026" type="line"/>
    </contour>
  </outline>
</glyph>
<glyph name="threesuperior" format="2">
  <advance width="900"/>
  <unicode hex="00B3"/>
  <outline>
    <contour>
      <point x="453" y="1026" type="curve" smooth="yes"/>
      <point x="576" y="1026"/>
      <point x="650" y="1100"/>
      <point x="650" y="1203" type="curve" smooth="yes"/>
      <point x="650" y="1277"/>
      <point x="608" y="1342"/>
      <point x="540" y="1364" type="curve"/>
      <point x="598" y="1390"/>
      <point x="639" y="1450"/>
      <point x="639" y="1515" type="curve" smooth="yes"/>
      <point x="639" y="1606"/>
      <point x="563" y="1680"/>
      <point x="459" y="1680" type="curve" smooth="yes"/>
      <point x="361" y="1680"/>
      <point x="289" y="1614"/>
      <point x="281" y="1525" type="curve"/>
      <point x="332" y="1508" type="line"/>
      <point x="336" y="1577"/>
      <point x="391" y="1628"/>
      <point x="459" y="1628" type="curve" smooth="yes"/>
      <point x="524" y="1628"/>
      <point x="578" y="1576"/>
      <point x="578" y="1509" type="curve" smooth="yes"/>
      <point x="578" y="1440"/>
      <point x="520" y="1383"/>
      <point x="448" y="1383" type="curve" smooth="yes"/>
      <point x="426" y="1383" type="line"/>
      <point x="426" y="1338" type="line"/>
      <point x="431" y="1340"/>
      <point x="441" y="1341"/>
      <point x="450" y="1341" type="curve" smooth="yes"/>
      <point x="522" y="1341"/>
      <point x="585" y="1281"/>
      <point x="585" y="1203" type="curve" smooth="yes"/>
      <point x="585" y="1135"/>
      <point x="538" y="1082"/>
      <point x="450" y="1082" type="curve" smooth="yes"/>
      <point x="363" y="1082"/>
      <point x="306" y="1136"/>
      <point x="305" y="1209" type="curve"/>
      <point x="247" y="1188" type="line"/>
      <point x="257" y="1098"/>
      <point x="330" y="1026"/>
    </contour>
  </outline>
</glyph>
<glyph name="micro" format="2">
  <advance width="1481"/>
  <unicode hex="00B5"/>
  <outline>
    <contour>
      <point x="450" y="-320" type="line"/>
      <point x="450" y="110" type="line"/>
      <point x="506" y="16"/>
      <point x="607" y="-32"/>
      <point x="748" y="-32" type="curve" smooth="yes"/>
      <point x="887" y="-32"/>
      <point x="1022" y="42"/>
      <point x="1071" y="146" type="curve"/>
      <point x="1071" y="0" type="line" name=".hr01"/>
      <point x="1174" y="0" type="line"/>
      <point x="1174" y="1024" type="line"/>
      <point x="1071" y="1024" type="line"/>
      <point x="1071" y="340" type="line" smooth="yes"/>
      <point x="1071" y="181"/>
      <point x="934" y="53" name=".hr02"/>
      <point x="761" y="53" type="curve" smooth="yes"/>
      <point x="556" y="53"/>
      <point x="450" y="174"/>
      <point x="450" y="408" type="curve" smooth="yes"/>
      <point x="450" y="1024" type="line"/>
      <point x="347" y="1024" type="line"/>
      <point x="347" y="441" type="line" smooth="yes"/>
      <point x="347" y="151"/>
      <point x="312" y="16"/>
      <point x="312" y="-320" type="curve"/>
    </contour>
  </outline>
</glyph>
<glyph name="paragraph" format="2">
  <advance width="1482"/>
  <unicode hex="00B6"/>
  <outline>
    <contour>
      <point x="1004" y="0" type="line"/>
      <point x="1004" y="1577" type="line"/>
      <point x="1065" y="1577" type="line"/>
      <point x="1065" y="0" type="line"/>
      <point x="1145" y="0" type="line"/>
      <point x="1145" y="1650" type="line"/>
      <point x="730" y="1650" type="line" smooth="yes"/>
      <point x="408" y="1650"/>
      <point x="221" y="1465"/>
      <point x="221" y="1192" type="curve" smooth="yes"/>
      <point x="221" y="923"/>
      <point x="408" y="717"/>
      <point x="730" y="717" type="curve" smooth="yes"/>
      <point x="924" y="717" type="line"/>
      <point x="924" y="0" type="line"/>
    </contour>
  </outline>
</glyph>
<glyph name="onesuperior" format="2">
  <advance width="616"/>
  <unicode hex="00B9"/>
  <outline>
    <contour>
      <point x="366" y="1026" type="line"/>
      <point x="366" y="1650" type="line"/>
      <point x="247" y="1650" type="line"/>
      <point x="247" y="1590" type="line"/>
      <point x="307" y="1590" type="line"/>
      <point x="307" y="1026" type="line"/>
    </contour>
  </outline>
</glyph>
<glyph name="ordmasculine" format="2">
  <advance width="1016"/>
  <unicode hex="00BA"/>
  <outline>
    <contour>
      <point x="508" y="1008" type="curve" smooth="yes"/>
      <point x="701" y="1008"/>
      <point x="851" y="1146"/>
      <point x="851" y="1344" type="curve" smooth="yes"/>
      <point x="851" y="1544"/>
      <point x="701" y="1680"/>
      <point x="508" y="1680" type="curve" smooth="yes"/>
      <point x="313" y="1680"/>
      <point x="164" y="1544"/>
      <point x="164" y="1344" type="curve" smooth="yes"/>
      <point x="164" y="1146"/>
      <point x="313" y="1008"/>
    </contour>
    <contour>
      <point x="507" y="1063" type="curve" smooth="yes"/>
      <point x="347" y="1063"/>
      <point x="228" y="1179"/>
      <point x="228" y="1344" type="curve" smooth="yes"/>
      <point x="228" y="1506"/>
      <point x="345" y="1624"/>
      <point x="508" y="1624" type="curve" smooth="yes"/>
      <point x="668" y="1624"/>
      <point x="788" y="1506"/>
      <point x="788" y="1344" type="curve" smooth="yes"/>
      <point x="788" y="1181"/>
      <point x="668" y="1063"/>
    </contour>
  </outline>
</glyph>
<glyph name="AE" format="2">
  <advance width="1811"/>
  <unicode hex="00C6"/>
  <outline>
    <contour>
      <point x="827" y="1514" type="line"/>
      <point x="827" y="661" type="line"/>
      <point x="500" y="661" type="line"/>
    </contour>
    <contour>
      <point x="778" y="1651" type="line"/>
      <point x="132" y="0" type="line"/>
      <point x="246" y="0" type="line"/>
      <point x="464" y="567" type="line"/>
      <point x="827" y="567" type="line"/>
      <point x="827" y="0" type="line"/>
      <point x="1636" y="0" type="line"/>
      <point x="1636" y="94" type="line" name=".hr01"/>
      <point x="933" y="94" type="line"/>
      <point x="933" y="780" type="line"/>
      <point x="1612" y="780" type="line"/>
      <point x="1612" y="874" type="line"/>
      <point x="933" y="874" type="line"/>
      <point x="933" y="1557" type="line"/>
      <point x="1636" y="1557" type="line"/>
      <point x="1636" y="1651" type="line"/>
    </contour>
  </outline>
</glyph>
<glyph name="Eth" format="2">
  <advance width="1677"/>
  <unicode hex="00D0"/>
  <outline>
    <component base="D" xOffset="32"/>
    <contour>
      <point x="148" y="868" type="line"/>
      <point x="148" y="782" type="line"/>
      <point x="906" y="782" type="line"/>
      <point x="906" y="868" type="line"/>
    </contour>
  </outline>
</glyph>
<glyph name="multiply" format="2">
  <advance width="1327"/>
  <unicode hex="00D7"/>
  <outline>
    <contour>
      <point x="664" y="768" type="line"/>
      <point x="1045" y="384" type="line"/>
      <point x="1107" y="446" type="line"/>
      <point x="724" y="828" type="line"/>
      <point x="1107" y="1212" type="line"/>
      <point x="1047" y="1272" type="line"/>
      <point x="664" y="889" type="line"/>
      <point x="281" y="1272" type="line"/>
      <point x="219" y="1212" type="line"/>
      <point x="603" y="828" type="line"/>
      <point x="219" y="446" type="line"/>
      <point x="280" y="384" type="line"/>
    </contour>
  </outline>
</glyph>
<glyph name="Thorn" format="2">
  <advance width="1356"/>
  <unicode hex="00DE"/>
  <anchor x="678" y="0" name="bottom"/>
  <anchor x="678" y="1650" name="top"/>
  <outline>
    <contour>
      <point x="387" y="0" type="line"/>
      <point x="387" y="350" type="line"/>
      <point x="673" y="350" type="line" smooth="yes"/>
      <point x="997" y="350"/>
      <point x="1191" y="536"/>
      <point x="1191" y="817" type="curve" smooth="yes"/>
      <point x="1191" y="1097"/>
      <point x="997" y="1283"/>
      <point x="673" y="1283" type="curve" smooth="yes"/>
      <point x="387" y="1283" type="line"/>
      <point x="387" y="1650" type="line"/>
      <point x="281" y="1650" type="line"/>
      <point x="281" y="0" type="line"/>
    </contour>
    <contour>
      <point x="387" y="1195" type="line"/>
      <point x="655" y="1195" type="line" smooth="yes"/>
      <point x="923" y="1195"/>
      <point x="1086" y="1045"/>
      <point x="1086" y="817" type="curve" smooth="yes"/>
      <point x="1086" y="588"/>
      <point x="923" y="438"/>
      <point x="655" y="438" type="curve" smooth="yes"/>
      <point x="387" y="438" type="line"/>
    </contour>
  </outline>
</glyph>
<glyph name="germandbls" format="2">
  <advance width="1341"/>
  <unicode hex="00DF"/>
  <anchor x="671" y="0" name="bottom"/>
  <anchor x="671" y="1025" name="top"/>
  <outline>
    <contour>
      <point x="695" y="-32" type="line"/>
      <point x="976" y="-31"/>
      <point x="1197" y="188"/>
      <point x="1197" y="464" type="curve" smooth="yes"/>
      <point x="1197" y="671"/>
      <point x="1071" y="850"/>
      <point x="877" y="919" type="curve"/>
      <point x="1036" y="985"/>
      <point x="1137" y="1137"/>
      <point x="1137" y="1310" type="curve" smooth="yes"/>
      <point x="1137" y="1555"/>
      <point x="942" y="1750"/>
      <point x="696" y="1750" type="curve" smooth="yes"/>
      <point x="450" y="1750"/>
      <point x="253" y="1553"/>
      <point x="253" y="1308" type="curve" smooth="yes"/>
      <point x="253" y="830" type="line"/>
      <point x="121" y="830" type="line"/>
      <point x="121" y="739" type="line"/>
      <point x="253" y="739" type="line"/>
      <point x="253" y="0" type="line" name=".hr01"/>
      <point x="356" y="0" type="line"/>
      <point x="356" y="1310" type="line" smooth="yes"/>
      <point x="356" y="1503"/>
      <point x="507" y="1656"/>
      <point x="695" y="1656" type="curve" smooth="yes"/>
      <point x="885" y="1656"/>
      <point x="1038" y="1501"/>
      <point x="1038" y="1309" type="curve" smooth="yes"/>
      <point x="1038" y="1117"/>
      <point x="885" y="961"/>
      <point x="695" y="961" type="curve" smooth="yes"/>
      <point x="505" y="961" type="line"/>
      <point x="505" y="872" type="line"/>
      <point x="695" y="872" type="line" smooth="yes"/>
      <point x="914" y="872"/>
      <point x="1091" y="693"/>
      <point x="1091" y="468" type="curve" smooth="yes"/>
      <point x="1091" y="245"/>
      <point x="914" y="66" name=".hr02"/>
      <point x="695" y="66" type="curve" smooth="yes"/>
      <point x="505" y="66" type="line"/>
      <point x="505" y="-32" type="line"/>
    </contour>
  </outline>
</glyph>
<glyph name="ae" format="2">
  <advance width="2094"/>
  <unicode hex="00E6"/>
  <outline>
    <contour>
      <point x="555" y="-32" type="curve" smooth="yes"/>
      <point x="752" y="-32"/>
      <point x="906" y="70"/>
      <point x="972" y="236" type="curve"/>
      <point x="1065" y="68"/>
      <point x="1240" y="-32"/>
      <point x="1447" y="-32" type="curve" smooth="yes"/>
      <point x="1649" y="-32"/>
      <point x="1821" y="58"/>
      <point x="1919" y="215" type="curve"/>
      <point x="1842" y="259" type="line"/>
      <point x="1758" y="129"/>
      <point x="1618" y="56" name=".hr01"/>
      <point x="1452" y="56" type="curve" smooth="yes"/>
      <point x="1186" y="56"/>
      <point x="997" y="244"/>
      <point x="997" y="505" type="curve"/>
      <point x="1958" y="505" type="line"/>
      <point x="1958" y="512"/>
      <point x="1958" y="514"/>
      <point x="1958" y="520" type="curve" smooth="yes"/>
      <point x="1958" y="820"/>
      <point x="1723" y="1056"/>
      <point x="1429" y="1056" type="curve" smooth="yes"/>
      <point x="1228" y="1056"/>
      <point x="1056" y="939"/>
      <point x="968" y="770" type="curve"/>
      <point x="928" y="936"/>
      <point x="798" y="1056"/>
      <point x="577" y="1056" type="curve" smooth="yes"/>
      <point x="437" y="1056"/>
      <point x="312" y="1008"/>
      <point x="216" y="902" type="curve"/>
      <point x="275" y="843" type="line"/>
      <point x="352" y="920"/>
      <point x="445" y="970"/>
      <point x="570" y="970" type="curve" smooth="yes"/>
      <point x="773" y="970"/>
      <point x="899" y="841"/>
      <point x="899" y="619" type="curve" smooth="yes"/>
      <point x="899" y="485" type="line"/>
      <point x="828" y="574"/>
      <point x="701" y="629" name=".hr02"/>
      <point x="558" y="629" type="curve" smooth="yes"/>
      <point x="328" y="629"/>
      <point x="153" y="494"/>
      <point x="153" y="297" type="curve" smooth="yes"/>
      <point x="153" y="97"/>
      <point x="329" y="-32"/>
    </contour>
    <contour>
      <point x="579" y="45" type="curve" smooth="yes"/>
      <point x="399" y="45"/>
      <point x="252" y="148"/>
      <point x="252" y="302" type="curve" smooth="yes"/>
      <point x="252" y="456"/>
      <point x="398" y="555"/>
      <point x="578" y="555" type="curve" smooth="yes"/>
      <point x="759" y="555"/>
      <point x="906" y="455"/>
      <point x="906" y="302" type="curve" smooth="yes"/>
      <point x="906" y="147"/>
      <point x="759" y="45"/>
    </contour>
    <contour>
      <point x="1001" y="576" type="line"/>
      <point x="1022" y="802"/>
      <point x="1205" y="975" name=".hr03"/>
      <point x="1429" y="975" type="curve" smooth="yes"/>
      <point x="1653" y="975"/>
      <point x="1834" y="803"/>
      <point x="1856" y="576" type="curve"/>
    </contour>
  </outline>
</glyph>
<glyph name="eth" format="2">
  <advance width="1441"/>
  <unicode hex="00F0"/>
  <outline>
    <contour>
      <point x="709" y="-32" type="curve" smooth="yes"/>
      <point x="1026" y="-32"/>
      <point x="1266" y="192"/>
      <point x="1266" y="512" type="curve" smooth="yes"/>
      <point x="1266" y="972"/>
      <point x="1106" y="1325"/>
      <point x="827" y="1551" type="curve"/>
      <point x="970" y="1692" type="line"/>
      <point x="913" y="1750" type="line"/>
      <point x="760" y="1598" type="line"/>
      <point x="668" y="1662"/>
      <point x="565" y="1712"/>
      <point x="457" y="1750" type="curve"/>
      <point x="427" y="1660" type="line"/>
      <point x="519" y="1627"/>
      <point x="609" y="1583"/>
      <point x="690" y="1526" type="curve"/>
      <point x="545" y="1382" type="line"/>
      <point x="603" y="1325" type="line"/>
      <point x="759" y="1480" type="line"/>
      <point x="939" y="1336"/>
      <point x="1068" y="1121"/>
      <point x="1120" y="834" type="curve"/>
      <point x="1038" y="973"/>
      <point x="885" y="1058"/>
      <point x="705" y="1058" type="curve" smooth="yes"/>
      <point x="403" y="1058"/>
      <point x="150" y="842"/>
      <point x="150" y="512" type="curve" smooth="yes"/>
      <point x="150" y="192"/>
      <point x="389" y="-32"/>
    </contour>
    <contour>
      <point x="709" y="59" type="curve" smooth="yes"/>
      <point x="443" y="59"/>
      <point x="253" y="249"/>
      <point x="253" y="512" type="curve" smooth="yes"/>
      <point x="253" y="776"/>
      <point x="445" y="965"/>
      <point x="709" y="965" type="curve" smooth="yes"/>
      <point x="970" y="965"/>
      <point x="1164" y="776"/>
      <point x="1164" y="512" type="curve" smooth="yes"/>
      <point x="1164" y="249"/>
      <point x="971" y="59"/>
    </contour>
  </outline>
</glyph>
<glyph name="divide" format="2">
  <advance width="1462"/>
  <unicode hex="00F7"/>
  <outline>
    <contour>
      <point x="872" y="786" type="line"/>
      <point x="1219" y="818" type="line"/>
      <point x="541" y="874" type="line"/>
      <point x="194" y="843" type="line"/>
    </contour>
    <contour>
      <point x="707" y="267" type="curve" smooth="yes"/>
      <point x="742" y="267"/>
      <point x="772" y="297"/>
      <point x="772" y="334" type="curve" smooth="yes"/>
      <point x="772" y="370"/>
      <point x="742" y="400"/>
      <point x="707" y="400" type="curve" smooth="yes"/>
      <point x="671" y="400"/>
      <point x="641" y="370"/>
      <point x="641" y="334" type="curve" smooth="yes"/>
      <point x="641" y="297"/>
      <point x="671" y="267"/>
    </contour>
    <contour>
      <point x="707" y="1261" type="curve" smooth="yes"/>
      <point x="742" y="1261"/>
      <point x="772" y="1291"/>
      <point x="772" y="1328" type="curve" smooth="yes"/>
      <point x="772" y="1364"/>
      <point x="742" y="1394"/>
      <point x="707" y="1394" type="curve" smooth="yes"/>
      <point x="671" y="1394"/>
      <point x="641" y="1364"/>
      <point x="641" y="1328" type="curve" smooth="yes"/>
      <point x="641" y="1291"/>
      <point x="671" y="1261"/>
    </contour>
  </outline>
</glyph>
<glyph name="thorn" format="2">
  <advance width="1433"/>
  <unicode hex="00FE"/>
  <anchor x="717" y="0" name="bottom"/>
  <anchor x="717" y="1025" name="top"/>
  <outline>
    <contour>
      <point x="322" y="512" type="curve" smooth="yes"/>
      <point x="322" y="777"/>
      <point x="500" y="965"/>
      <point x="749" y="965" type="curve" smooth="yes"/>
      <point x="997" y="965"/>
      <point x="1176" y="776"/>
      <point x="1176" y="512" type="curve" smooth="yes"/>
      <point x="1176" y="248"/>
      <point x="997" y="59"/>
      <point x="749" y="59" type="curve" smooth="yes"/>
      <point x="500" y="59"/>
      <point x="322" y="248"/>
    </contour>
    <contour>
      <point x="225" y="1720" type="line"/>
      <point x="225" y="-520" type="line"/>
      <point x="328" y="-520" type="line"/>
      <point x="328" y="238" type="line"/>
      <point x="414" y="69"/>
      <point x="577" y="-32"/>
      <point x="769" y="-32" type="curve" smooth="yes"/>
      <point x="1062" y="-32"/>
      <point x="1280" y="198"/>
      <point x="1280" y="512" type="curve" smooth="yes"/>
      <point x="1280" y="826"/>
      <point x="1062" y="1056"/>
      <point x="769" y="1056" type="curve" smooth="yes"/>
      <point x="577" y="1056"/>
      <point x="414" y="955"/>
      <point x="328" y="786" type="curve"/>
      <point x="328" y="1720" type="line"/>
    </contour>
  </outline>
</glyph>
<glyph name="dcroat" format="2">
  <advance width="1495"/>
  <unicode hex="0111"/>
  <outline>
    <component base="d"/>
    <contour>
      <point x="671" y="1408" type="line"/>
      <point x="671" y="1334" type="line"/>
      <point x="1395" y="1334" type="line"/>
      <point x="1395" y="1408" type="line"/>
    </contour>
  </outline>
</glyph>
<glyph name="eogonek" format="2">
  <advance width="1346"/>
  <unicode hex="0119"/>
  <anchor x="704" y="0" name="bottom"/>
  <anchor x="718" y="0" name="ogonek"/>
  <anchor x="681" y="1025" name="top"/>
  <anchor x="718" y="0" name="_ogonek"/>
  <outline>
    <contour>
      <point x="701" y="-32" type="curve" smooth="yes"/>
      <point x="794" y="-32"/>
      <point x="881" y="-12"/>
      <point x="957" y="26" type="curve"/>
      <point x="929" y="26" type="line"/>
      <point x="795" y="-108"/>
      <point x="718" y="-235"/>
      <point x="718" y="-335" type="curve" smooth="yes"/>
      <point x="718" y="-458"/>
      <point x="823" y="-559"/>
      <point x="970" y="-559" type="curve" smooth="yes"/>
      <point x="1078" y="-559"/>
      <point x="1183" y="-504"/>
      <point x="1244" y="-415" type="curve"/>
      <point x="1193" y="-378" type="line"/>
      <point x="1127" y="-452"/>
      <point x="1059" y="-485"/>
      <point x="979" y="-485" type="curve" smooth="yes"/>
      <point x="857" y="-485"/>
      <point x="795" y="-410"/>
      <point x="795" y="-326" type="curve" smooth="yes"/>
      <point x="795" y="-226"/>
      <point x="885" y="-73"/>
      <point x="1083" y="109" type="curve"/>
      <point x="1117" y="139"/>
      <point x="1147" y="176"/>
      <point x="1171" y="216" type="curve"/>
      <point x="1095" y="260" type="line"/>
      <point x="1010" y="130"/>
      <point x="871" y="56"/>
      <point x="704" y="56" type="curve" smooth="yes"/>
      <point x="439" y="56"/>
      <point x="249" y="244"/>
      <point x="249" y="505" type="curve"/>
      <point x="1209" y="505" type="line"/>
      <point x="1210" y="514"/>
      <point x="1210" y="522"/>
      <point x="1210" y="532" type="curve"/>
      <point x="1208" y="806"/>
      <point x="986" y="1056"/>
      <point x="682" y="1056" type="curve" smooth="yes"/>
      <point x="390" y="1056"/>
      <point x="147" y="818"/>
      <point x="147" y="506" type="curve" smooth="yes"/>
      <point x="147" y="203"/>
      <point x="377" y="-32"/>
    </contour>
    <contour>
      <point x="253" y="574" type="line"/>
      <point x="273" y="802"/>
      <point x="457" y="974"/>
      <point x="681" y="974" type="curve" smooth="yes"/>
      <point x="904" y="974"/>
      <point x="1087" y="804"/>
      <point x="1109" y="574" type="curve"/>
    </contour>
  </outline>
</glyph>
<glyph name="Hbar" format="2">
  <advance width="1751"/>
  <unicode hex="0126"/>
  <outline>
    <contour>
      <point x="387" y="0" type="line"/>
      <point x="387" y="747" type="line"/>
      <point x="1364" y="747" type="line"/>
      <point x="1364" y="0" type="line"/>
      <point x="1470" y="0" type="line"/>
      <point x="1470" y="1651" type="line"/>
      <point x="1364" y="1651" type="line"/>
      <point x="1364" y="829" type="line"/>
      <point x="387" y="829" type="line"/>
      <point x="387" y="1651" type="line"/>
      <point x="281" y="1651" type="line"/>
      <point x="281" y="0" type="line"/>
    </contour>
    <contour>
      <point x="1605" y="1070" type="line"/>
      <point x="1605" y="1152" type="line"/>
      <point x="146" y="1152" type="line"/>
      <point x="146" y="1070" type="line"/>
    </contour>
  </outline>
</glyph>
<glyph name="hbar" format="2">
  <advance width="1258"/>
  <unicode hex="0127"/>
  <outline>
    <component base="h"/>
    <contour>
      <point x="544" y="1323" type="line"/>
      <point x="544" y="1400" type="line"/>
      <point x="82" y="1400" type="line"/>
      <point x="82" y="1323" type="line"/>
    </contour>
  </outline>
</glyph>
<glyph name="idotless" format="2">
  <advance width="553"/>
  <unicode hex="0131"/>
  <anchor x="276" y="0" name="bottom"/>
  <anchor x="327" y="0" name="ogonek"/>
  <anchor x="276" y="1025" name="top"/>
  <outline>
    <contour>
      <point x="328" y="0" type="line"/>
      <point x="328" y="1024" type="line"/>
      <point x="225" y="1024" type="line"/>
      <point x="225" y="0" type="line"/>
    </contour>
  </outline>
</glyph>
<glyph name="Lslash" format="2">
  <advance width="1266"/>
  <unicode hex="0141"/>
  <outline>
    <component base="L" xOffset="34"/>
    <contour>
      <point x="636" y="975" type="line"/>
      <point x="636" y="1062" type="line"/>
      <point x="150" y="679" type="line"/>
      <point x="150" y="593" type="line"/>
    </contour>
  </outline>
</glyph>
<glyph name="lslash" format="2">
  <advance width="558"/>
  <unicode hex="0142"/>
  <outline>
    <component base="l" xOffset="3"/>
    <contour>
      <point x="225" y="876" type="line"/>
      <point x="225" y="898" type="line"/>
      <point x="333" y="983" type="line"/>
      <point x="333" y="962" type="line"/>
    </contour>
  </outline>
</glyph>
<glyph name="Eng" format="2">
  <advance width="1689"/>
  <unicode hex="014A"/>
  <outline>
    <contour>
      <point x="280" y="1650" type="line"/>
      <point x="280" y="0" type="line"/>
      <point x="386" y="0" type="line"/>
      <point x="386" y="1464" type="line"/>
      <point x="1319" y="0" type="line"/>
      <point x="1319" y="-27" type="line" smooth="yes"/>
      <point x="1319" y="-287"/>
      <point x="1182" y="-451"/>
      <point x="928" y="-451" type="curve" smooth="yes"/>
      <point x="810" y="-451"/>
      <point x="702" y="-412"/>
      <point x="608" y="-312" type="curve"/>
      <point x="547" y="-387" type="line"/>
      <point x="655" y="-502"/>
      <point x="772" y="-551"/>
      <point x="933" y="-551" type="curve" smooth="yes"/>
      <point x="1241" y="-551"/>
      <point x="1425" y="-366"/>
      <point x="1425" y="-55" type="curve" smooth="yes"/>
      <point x="1425" y="1650" type="line"/>
      <point x="1319" y="1650" type="line"/>
      <point x="1319" y="184" type="line"/>
      <point x="386" y="1650" type="line"/>
    </contour>
  </outline>
</glyph>
<glyph name="eng" format="2">
  <advance width="1255"/>
  <unicode hex="014B"/>
  <outline>
    <contour>
      <point x="225" y="1025" type="line"/>
      <point x="225" y="0" type="line"/>
      <point x="328" y="0" type="line"/>
      <point x="328" y="660" type="line" smooth="yes"/>
      <point x="328" y="854"/>
      <point x="470" y="970" name=".hr01"/>
      <point x="643" y="970" type="curve" smooth="yes"/>
      <point x="841" y="970"/>
      <point x="949" y="815"/>
      <point x="949" y="615" type="curve" smooth="yes"/>
      <point x="949" y="-237" type="line" smooth="yes"/>
      <point x="949" y="-382"/>
      <point x="885" y="-459"/>
      <point x="786" y="-459" type="curve" smooth="yes"/>
      <point x="740" y="-459"/>
      <point x="690" y="-443"/>
      <point x="655" y="-395" type="curve"/>
      <point x="598" y="-453" type="line"/>
      <point x="652" y="-524"/>
      <point x="726" y="-550"/>
      <point x="802" y="-550" type="curve" smooth="yes"/>
      <point x="955" y="-550"/>
      <point x="1051" y="-444"/>
      <point x="1051" y="-239" type="curve" smooth="yes"/>
      <point x="1051" y="640" type="line" smooth="yes"/>
      <point x="1051" y="887"/>
      <point x="900" y="1056"/>
      <point x="664" y="1056" type="curve" smooth="yes"/>
      <point x="507" y="1056"/>
      <point x="378" y="981"/>
      <point x="328" y="874" type="curve"/>
      <point x="328" y="1025" type="line" name=".hr02"/>
    </contour>
  </outline>
</glyph>
<glyph name="OE" format="2">
  <advance width="2011"/>
  <unicode hex="0152"/>
  <outline>
    <contour>
      <point x="1836" y="0" type="line"/>
      <point x="1836" y="94" type="line"/>
      <point x="1133" y="94" type="line"/>
      <point x="1133" y="780" type="line"/>
      <point x="1812" y="780" type="line"/>
      <point x="1812" y="874" type="line"/>
      <point x="1133" y="874" type="line"/>
      <point x="1133" y="1557" type="line"/>
      <point x="1836" y="1557" type="line"/>
      <point x="1836" y="1650" type="line"/>
      <point x="1039" y="1650" type="line" smooth="yes"/>
      <point x="539" y="1650"/>
      <point x="185" y="1294"/>
      <point x="185" y="825" type="curve" smooth="yes"/>
      <point x="185" y="356"/>
      <point x="539" y="0"/>
      <point x="1039" y="0" type="curve" smooth="yes"/>
    </contour>
    <contour>
      <point x="1027" y="96" type="line"/>
      <point x="607" y="96"/>
      <point x="299" y="410"/>
      <point x="299" y="825" type="curve" smooth="yes"/>
      <point x="299" y="1241"/>
      <point x="610" y="1555"/>
      <point x="1027" y="1555" type="curve"/>
    </contour>
  </outline>
</glyph>
<glyph name="oe" format="2">
  <advance width="2352"/>
  <unicode hex="0153"/>
  <anchor x="1176" y="0" name="bottom"/>
  <anchor x="1176" y="1025" name="top"/>
  <outline>
    <contour>
      <point x="705" y="-32" type="curve" smooth="yes"/>
      <point x="938" y="-32"/>
      <point x="1131" y="94"/>
      <point x="1206" y="294" type="curve"/>
      <point x="1285" y="93"/>
      <point x="1476" y="-32"/>
      <point x="1705" y="-32" type="curve" smooth="yes"/>
      <point x="1907" y="-32"/>
      <point x="2079" y="59"/>
      <point x="2177" y="215" type="curve"/>
      <point x="2100" y="259" type="line"/>
      <point x="2016" y="129"/>
      <point x="1877" y="56" name=".hr01"/>
      <point x="1710" y="56" type="curve" smooth="yes"/>
      <point x="1445" y="56"/>
      <point x="1256" y="244"/>
      <point x="1256" y="505" type="curve"/>
      <point x="2216" y="505" type="line"/>
      <point x="2216" y="514"/>
      <point x="2216" y="517"/>
      <point x="2216" y="522" type="curve" smooth="yes"/>
      <point x="2216" y="820"/>
      <point x="1980" y="1056"/>
      <point x="1688" y="1056" type="curve" smooth="yes"/>
      <point x="1471" y="1056"/>
      <point x="1285" y="921"/>
      <point x="1207" y="726" type="curve"/>
      <point x="1132" y="930"/>
      <point x="938" y="1056"/>
      <point x="705" y="1056" type="curve" smooth="yes"/>
      <point x="389" y="1056"/>
      <point x="150" y="833"/>
      <point x="150" y="512" type="curve" smooth="yes"/>
      <point x="150" y="191"/>
      <point x="389" y="-32"/>
    </contour>
    <contour>
      <point x="708" y="59" type="curve" smooth="yes"/>
      <point x="444" y="59"/>
      <point x="252" y="249"/>
      <point x="252" y="512" type="curve" smooth="yes"/>
      <point x="252" y="775"/>
      <point x="444" y="965"/>
      <point x="708" y="965" type="curve" smooth="yes"/>
      <point x="971" y="965"/>
      <point x="1164" y="775"/>
      <point x="1164" y="512" type="curve" smooth="yes"/>
      <point x="1164" y="249"/>
      <point x="971" y="59"/>
    </contour>
    <contour>
      <point x="1259" y="576" type="line"/>
      <point x="1280" y="802"/>
      <point x="1463" y="975"/>
      <point x="1688" y="975" type="curve" smooth="yes"/>
      <point x="1912" y="975" name=".hr02"/>
      <point x="2093" y="803"/>
      <point x="2115" y="576" type="curve"/>
    </contour>
  </outline>
</glyph>
<glyph name="Tbar" format="2">
  <advance width="1421"/>
  <unicode hex="0166"/>
  <outline>
    <component base="T"/>
    <contour>
      <point x="1079" y="975" type="line"/>
      <point x="1079" y="1057" type="line"/>
      <point x="343" y="1057" type="line"/>
      <point x="343" y="975" type="line"/>
    </contour>
  </outline>
</glyph>
<glyph name="tbar" format="2">
  <advance width="715"/>
  <unicode hex="0167"/>
  <outline>
    <contour>
      <point x="451" y="-32" type="curve" smooth="yes"/>
      <point x="517" y="-32"/>
      <point x="582" y="-9"/>
      <point x="620" y="22" type="curve"/>
      <point x="575" y="89" type="line"/>
      <point x="548" y="69"/>
      <point x="509" y="58"/>
      <point x="473" y="58" type="curve" smooth="yes"/>
      <point x="385" y="58"/>
      <point x="336" y="125"/>
      <point x="336" y="247" type="curve" smooth="yes"/>
      <point x="336" y="759" type="line"/>
      <point x="599" y="759" type="line"/>
      <point x="599" y="824" type="line"/>
      <point x="336" y="824" type="line"/>
      <point x="336" y="973" type="line"/>
      <point x="599" y="973" type="line"/>
      <point x="599" y="1038" type="line"/>
      <point x="336" y="1038" type="line"/>
      <point x="336" y="1407" type="line"/>
      <point x="233" y="1407" type="line"/>
      <point x="233" y="1038" type="line"/>
      <point x="137" y="1038" type="line"/>
      <point x="137" y="973" type="line"/>
      <point x="233" y="973" type="line"/>
      <point x="233" y="824" type="line"/>
      <point x="137" y="824" type="line"/>
      <point x="137" y="759" type="line"/>
      <point x="233" y="759" type="line"/>
      <point x="233" y="244" type="line" smooth="yes"/>
      <point x="233" y="68"/>
      <point x="313" y="-32"/>
    </contour>
  </outline>
</glyph>
<glyph name="Uogonek" format="2">
  <advance width="1628"/>
  <unicode hex="0172"/>
  <outline>
    <contour>
      <point x="813" y="-32" type="curve" smooth="yes"/>
      <point x="908" y="-32"/>
      <point x="991" y="-16"/>
      <point x="1062" y="14" type="curve"/>
      <point x="1041" y="14" type="line"/>
      <point x="915" y="-117"/>
      <point x="844" y="-234"/>
      <point x="844" y="-335" type="curve" smooth="yes"/>
      <point x="844" y="-458"/>
      <point x="948" y="-559"/>
      <point x="1095" y="-559" type="curve" smooth="yes"/>
      <point x="1204" y="-559"/>
      <point x="1310" y="-504"/>
      <point x="1371" y="-415" type="curve"/>
      <point x="1319" y="-378" type="line"/>
      <point x="1253" y="-452"/>
      <point x="1184" y="-485"/>
      <point x="1104" y="-485" type="curve" smooth="yes"/>
      <point x="982" y="-485"/>
      <point x="920" y="-413"/>
      <point x="920" y="-324" type="curve" smooth="yes"/>
      <point x="920" y="-213"/>
      <point x="1019" y="-59"/>
      <point x="1189" y="89" type="curve" smooth="yes"/>
      <point x="1308" y="194"/>
      <point x="1370" y="362"/>
      <point x="1370" y="593" type="curve" smooth="yes"/>
      <point x="1370" y="1650" type="line"/>
      <point x="1264" y="1650" type="line"/>
      <point x="1264" y="610" type="line" smooth="yes"/>
      <point x="1264" y="254"/>
      <point x="1112" y="73"/>
      <point x="813" y="73" type="curve" smooth="yes"/>
      <point x="515" y="73"/>
      <point x="363" y="254"/>
      <point x="363" y="610" type="curve" smooth="yes"/>
      <point x="363" y="1650" type="line"/>
      <point x="257" y="1650" type="line"/>
      <point x="257" y="593" type="line" smooth="yes"/>
      <point x="257" y="187"/>
      <point x="451" y="-32"/>
    </contour>
  </outline>
</glyph>
<glyph name="uogonek" format="2">
  <advance width="1230"/>
  <unicode hex="0173"/>
  <outline>
    <contour>
      <point x="615" y="-32" type="curve" smooth="yes"/>
      <point x="691" y="-32"/>
      <point x="755" y="-22"/>
      <point x="809" y="0" type="curve"/>
      <point x="776" y="0" type="line"/>
      <point x="659" y="-125"/>
      <point x="593" y="-237"/>
      <point x="593" y="-333" type="curve" smooth="yes"/>
      <point x="593" y="-458"/>
      <point x="697" y="-559"/>
      <point x="843" y="-559" type="curve" smooth="yes"/>
      <point x="952" y="-559"/>
      <point x="1058" y="-504"/>
      <point x="1119" y="-415" type="curve"/>
      <point x="1068" y="-378" type="line"/>
      <point x="1001" y="-452"/>
      <point x="933" y="-485"/>
      <point x="853" y="-485" type="curve" smooth="yes"/>
      <point x="731" y="-485"/>
      <point x="669" y="-410"/>
      <point x="669" y="-324" type="curve" smooth="yes"/>
      <point x="669" y="-225"/>
      <point x="755" y="-79"/>
      <point x="903" y="59" type="curve" smooth="yes"/>
      <point x="984" y="135"/>
      <point x="1023" y="258"/>
      <point x="1023" y="436" type="curve" smooth="yes"/>
      <point x="1023" y="1024" type="line"/>
      <point x="920" y="1024" type="line"/>
      <point x="920" y="450" type="line" smooth="yes"/>
      <point x="920" y="170"/>
      <point x="833" y="57"/>
      <point x="615" y="57" type="curve" smooth="yes"/>
      <point x="397" y="57"/>
      <point x="310" y="170"/>
      <point x="310" y="450" type="curve" smooth="yes"/>
      <point x="310" y="1024" type="line"/>
      <point x="207" y="1024" type="line"/>
      <point x="207" y="436" type="line" smooth="yes"/>
      <point x="207" y="114"/>
      <point x="334" y="-32"/>
    </contour>
  </outline>
</glyph>
<glyph name="florin" format="2">
  <advance width="863"/>
  <unicode hex="0192"/>
  <outline>
    <contour>
      <point x="38" y="-551" type="curve" smooth="yes"/>
      <point x="204" y="-551"/>
      <point x="313" y="-430"/>
      <point x="334" y="-222" type="curve" smooth="yes"/>
      <point x="454" y="948" type="line"/>
      <point x="721" y="948" type="line"/>
      <point x="728" y="1025" type="line"/>
      <point x="461" y="1025" type="line"/>
      <point x="505" y="1427" type="line" smooth="yes"/>
      <point x="521" y="1578"/>
      <point x="592" y="1660"/>
      <point x="701" y="1660" type="curve" smooth="yes"/>
      <point x="743" y="1660"/>
      <point x="784" y="1647"/>
      <point x="810" y="1627" type="curve"/>
      <point x="859" y="1696" type="line"/>
      <point x="818" y="1732"/>
      <point x="761" y="1750"/>
      <point x="697" y="1750" type="curve" smooth="yes"/>
      <point x="530" y="1750"/>
      <point x="422" y="1629"/>
      <point x="400" y="1421" type="curve" smooth="yes"/>
      <point x="359" y="1025" type="line"/>
      <point x="265" y="1025" type="line"/>
      <point x="257" y="948" type="line"/>
      <point x="351" y="948" type="line"/>
      <point x="230" y="-229" type="line" smooth="yes"/>
      <point x="214" y="-380"/>
      <point x="141" y="-461"/>
      <point x="33" y="-461" type="curve" smooth="yes"/>
      <point x="-9" y="-461"/>
      <point x="-50" y="-448"/>
      <point x="-76" y="-428" type="curve"/>
      <point x="-126" y="-497" type="line"/>
      <point x="-85" y="-533"/>
      <point x="-27" y="-551"/>
    </contour>
  </outline>
</glyph>
<glyph name="gravecomb" format="2">
  <advance width="263"/>
  <unicode hex="0300"/>
  <anchor x="131" y="1024" name="_top"/>
  <anchor x="131" y="1660" name="top"/>
  <outline>
    <contour>
      <point x="337" y="1308" type="line"/>
      <point x="-8" y="1508" type="line"/>
      <point x="-62" y="1416" type="line"/>
      <point x="299" y="1247" type="line"/>
    </contour>
  </outline>
</glyph>
<glyph name="acutecomb" format="2">
  <advance width="257"/>
  <unicode hex="0301"/>
  <anchor x="58" y="1024" name="_top"/>
  <anchor x="72" y="1682" name="top"/>
  <outline>
    <contour>
      <point x="-80" y="1308" type="line"/>
      <point x="-42" y="1247" type="line"/>
      <point x="314" y="1413" type="line"/>
      <point x="265" y="1508" type="line"/>
    </contour>
  </outline>
</glyph>
<glyph name="circumflexcomb" format="2">
  <advance width="706"/>
  <unicode hex="0302"/>
  <anchor x="353" y="1024" name="_top"/>
  <anchor x="353" y="1680" name="top"/>
  <outline>
    <contour>
      <point x="353" y="1582" type="line"/>
      <point x="659" y="1358" type="line"/>
      <point x="706" y="1422" type="line"/>
      <point x="353" y="1680" type="line"/>
      <point x="0" y="1422" type="line"/>
      <point x="47" y="1358" type="line"/>
    </contour>
  </outline>
</glyph>
<glyph name="tildecomb" format="2">
  <advance width="978"/>
  <unicode hex="0303"/>
  <anchor x="489" y="1024" name="_top"/>
  <anchor x="489" y="1536" name="top"/>
  <outline>
    <contour>
      <point x="0" y="1351" type="curve"/>
      <point x="64" y="1310" type="line"/>
      <point x="111" y="1389"/>
      <point x="186" y="1453"/>
      <point x="289" y="1453" type="curve" smooth="yes"/>
      <point x="452" y="1453"/>
      <point x="507" y="1293"/>
      <point x="691" y="1293" type="curve" smooth="yes"/>
      <point x="820" y="1293"/>
      <point x="916" y="1371"/>
      <point x="978" y="1479" type="curve"/>
      <point x="914" y="1520" type="line"/>
      <point x="867" y="1441"/>
      <point x="792" y="1377"/>
      <point x="689" y="1377" type="curve" smooth="yes"/>
      <point x="526" y="1377"/>
      <point x="471" y="1537"/>
      <point x="287" y="1537" type="curve" smooth="yes"/>
      <point x="158" y="1537"/>
      <point x="62" y="1459"/>
    </contour>
  </outline>
</glyph>
<glyph name="brevecomb" format="2">
  <advance width="802"/>
  <unicode hex="0306"/>
  <anchor x="401" y="1024" name="_top"/>
  <anchor x="401" y="1680" name="top"/>
  <outline>
    <contour>
      <point x="401" y="1347" type="curve" smooth="yes"/>
      <point x="604" y="1347"/>
      <point x="765" y="1473"/>
      <point x="802" y="1660" type="curve"/>
      <point x="720" y="1680" type="line"/>
      <point x="690" y="1531"/>
      <point x="568" y="1425"/>
      <point x="401" y="1425" type="curve" smooth="yes"/>
      <point x="234" y="1425"/>
      <point x="112" y="1531"/>
      <point x="82" y="1680" type="curve"/>
      <point x="0" y="1660" type="line"/>
      <point x="38" y="1473"/>
      <point x="198" y="1347"/>
    </contour>
  </outline>
</glyph>
<glyph name="dotaccentcomb" format="2">
  <advance width="146"/>
  <unicode hex="0307"/>
  <anchor x="73" y="1024" name="_top"/>
  <anchor x="73" y="1546" name="top"/>
  <outline>
    <contour>
      <point x="73" y="1400" type="curve" smooth="yes"/>
      <point x="113" y="1400"/>
      <point x="146" y="1433"/>
      <point x="146" y="1473" type="curve" smooth="yes"/>
      <point x="146" y="1513"/>
      <point x="113" y="1546"/>
      <point x="73" y="1546" type="curve" smooth="yes"/>
      <point x="33" y="1546"/>
      <point x="0" y="1513"/>
      <point x="0" y="1473" type="curve" smooth="yes"/>
      <point x="0" y="1433"/>
      <point x="33" y="1400"/>
    </contour>
  </outline>
</glyph>
<glyph name="dieresiscomb" format="2">
  <advance width="610"/>
  <unicode hex="0308"/>
  <anchor x="305" y="1024" name="_top"/>
  <anchor x="305" y="1467" name="top"/>
  <outline>
    <contour>
      <point x="540" y="1328" type="curve" smooth="yes"/>
      <point x="578" y="1328"/>
      <point x="610" y="1360"/>
      <point x="610" y="1398" type="curve" smooth="yes"/>
      <point x="610" y="1436"/>
      <point x="578" y="1468"/>
      <point x="540" y="1468" type="curve" smooth="yes"/>
      <point x="502" y="1468"/>
      <point x="470" y="1436"/>
      <point x="470" y="1398" type="curve" smooth="yes"/>
      <point x="470" y="1360"/>
      <point x="502" y="1328"/>
    </contour>
    <contour>
      <point x="70" y="1328" type="curve" smooth="yes"/>
      <point x="108" y="1328"/>
      <point x="140" y="1360"/>
      <point x="140" y="1398" type="curve" smooth="yes"/>
      <point x="140" y="1436"/>
      <point x="108" y="1468"/>
      <point x="70" y="1468" type="curve" smooth="yes"/>
      <point x="32" y="1468"/>
      <point x="0" y="1436"/>
      <point x="0" y="1398" type="curve" smooth="yes"/>
      <point x="0" y="1360"/>
      <point x="32" y="1328"/>
    </contour>
  </outline>
</glyph>
<glyph name="ringcomb" format="2">
  <advance width="428"/>
  <unicode hex="030A"/>
  <anchor x="214" y="1024" name="_top"/>
  <anchor x="214" y="1654" name="top"/>
  <outline>
    <contour>
      <point x="214" y="1274" type="curve" smooth="yes"/>
      <point x="334" y="1274"/>
      <point x="428" y="1353"/>
      <point x="428" y="1464" type="curve" smooth="yes"/>
      <point x="428" y="1575"/>
      <point x="334" y="1654"/>
      <point x="214" y="1654" type="curve" smooth="yes"/>
      <point x="94" y="1654"/>
      <point x="0" y="1575"/>
      <point x="0" y="1464" type="curve" smooth="yes"/>
      <point x="0" y="1353"/>
      <point x="94" y="1274"/>
    </contour>
    <contour>
      <point x="214" y="1343" type="curve" smooth="yes"/>
      <point x="134" y="1343"/>
      <point x="75" y="1394"/>
      <point x="75" y="1464" type="curve" smooth="yes"/>
      <point x="75" y="1534"/>
      <point x="134" y="1584"/>
      <point x="214" y="1584" type="curve" smooth="yes"/>
      <point x="294" y="1584"/>
      <point x="353" y="1534"/>
      <point x="353" y="1464" type="curve" smooth="yes"/>
      <point x="353" y="1394"/>
      <point x="294" y="1343"/>
    </contour>
  </outline>
</glyph>
<glyph name="hungarumlautcomb" format="2">
  <advance width="600"/>
  <unicode hex="030B"/>
  <anchor x="243" y="1024" name="_top"/>
  <anchor x="243" y="1680" name="top"/>
  <outline>
    <contour>
      <point x="600" y="1591" type="line"/>
      <point x="511" y="1680" type="line"/>
      <point x="315" y="1482" type="line"/>
      <point x="372" y="1422" type="line"/>
    </contour>
    <contour>
      <point x="284" y="1591" type="line"/>
      <point x="197" y="1680" type="line"/>
      <point x="0" y="1482" type="line"/>
      <point x="56" y="1422" type="line"/>
    </contour>
  </outline>
</glyph>
<glyph name="caroncomb" format="2">
  <advance width="706"/>
  <unicode hex="030C"/>
  <anchor x="353" y="1025" name="_top"/>
  <anchor x="353" y="1680" name="top"/>
  <outline>
    <contour>
      <point x="706" y="1495" type="line"/>
      <point x="659" y="1558" type="line"/>
      <point x="353" y="1334" type="line"/>
      <point x="47" y="1558" type="line"/>
      <point x="0" y="1495" type="line"/>
      <point x="353" y="1236" type="line"/>
    </contour>
  </outline>
</glyph>
<glyph name="commaaccentcomb" format="2">
  <advance width="718"/>
  <unicode hex="0326"/>
  <anchor x="353" y="0" name="_bottom"/>
  <anchor x="353" y="-490" name="bottom"/>
  <outline>
    <contour>
      <point x="316" y="-457" type="line"/>
      <point x="372" y="-414"/>
      <point x="425" y="-306"/>
      <point x="425" y="-223" type="curve" smooth="yes"/>
      <point x="425" y="-162"/>
      <point x="395" y="-131"/>
      <point x="353" y="-131" type="curve" smooth="yes"/>
      <point x="312" y="-131"/>
      <point x="284" y="-160"/>
      <point x="284" y="-198" type="curve" smooth="yes"/>
      <point x="284" y="-235"/>
      <point x="313" y="-264"/>
      <point x="348" y="-266" type="curve"/>
      <point x="347" y="-339"/>
      <point x="329" y="-398"/>
      <point x="298" y="-441" type="curve"/>
    </contour>
  </outline>
</glyph>
<glyph name="cedillacomb" format="2">
  <advance width="488"/>
  <unicode hex="0327"/>
  <anchor x="276" y="26" name="_cedilla"/>
  <anchor x="241" y="-555" name="bottom"/>
  <outline>
    <contour>
      <point x="209" y="26" type="line"/>
      <point x="124" y="-238" type="line"/>
      <point x="130" y="-242" type="line"/>
      <point x="166" y="-219"/>
      <point x="228" y="-203"/>
      <point x="275" y="-203" type="curve" smooth="yes"/>
      <point x="358" y="-203"/>
      <point x="416" y="-254"/>
      <point x="416" y="-329" type="curve" smooth="yes"/>
      <point x="416" y="-410"/>
      <point x="349" y="-466"/>
      <point x="249" y="-466" type="curve" smooth="yes"/>
      <point x="165" y="-466"/>
      <point x="95" y="-427"/>
      <point x="56" y="-359" type="curve"/>
      <point x="0" y="-394" type="line"/>
      <point x="51" y="-482"/>
      <point x="140" y="-534"/>
      <point x="249" y="-534" type="curve" smooth="yes"/>
      <point x="388" y="-534"/>
      <point x="488" y="-449"/>
      <point x="488" y="-330" type="curve" smooth="yes"/>
      <point x="488" y="-215"/>
      <point x="392" y="-146"/>
      <point x="278" y="-146" type="curve" smooth="yes"/>
      <point x="255" y="-146"/>
      <point x="232" y="-149"/>
      <point x="206" y="-156" type="curve"/>
      <point x="214" y="-162" type="line"/>
      <point x="276" y="26" type="line"/>
    </contour>
  </outline>
</glyph>
<glyph name="ogonekcomb" format="2">
  <advance width="526"/>
  <unicode hex="0328"/>
  <anchor x="251" y="26" name="_ogonek"/>
  <outline>
    <contour>
      <point x="250" y="-533" type="curve" smooth="yes"/>
      <point x="359" y="-533"/>
      <point x="465" y="-478"/>
      <point x="526" y="-389" type="curve"/>
      <point x="475" y="-352" type="line"/>
      <point x="408" y="-426"/>
      <point x="341" y="-459"/>
      <point x="260" y="-459" type="curve" smooth="yes"/>
      <point x="138" y="-459"/>
      <point x="76" y="-387"/>
      <point x="76" y="-298" type="curve" smooth="yes"/>
      <point x="76" y="-209"/>
      <point x="139" y="-92"/>
      <point x="251" y="26" type="curve"/>
      <point x="184" y="26" type="line"/>
      <point x="66" y="-99"/>
      <point x="0" y="-211"/>
      <point x="0" y="-308" type="curve" smooth="yes"/>
      <point x="0" y="-432"/>
      <point x="103" y="-533"/>
    </contour>
  </outline>
</glyph>
<glyph name="Delta" format="2">
  <advance width="1600"/>
  <unicode hex="0394"/>
  <outline>
    <contour>
      <point x="778" y="1650" type="line"/>
      <point x="132" y="0" type="line"/>
      <point x="1468" y="0" type="line"/>
      <point x="822" y="1650" type="line"/>
    </contour>
    <contour>
      <point x="780" y="1589" type="line"/>
      <point x="1353" y="73" type="line"/>
      <point x="247" y="73" type="line"/>
      <point x="820" y="1589" type="line"/>
    </contour>
  </outline>
</glyph>
<glyph name="Omega" format="2">
  <advance width="1939"/>
  <unicode hex="03A9"/>
  <outline>
    <contour>
      <point x="969" y="1680" type="curve" smooth="yes"/>
      <point x="531" y="1680"/>
      <point x="185" y="1324"/>
      <point x="185" y="878" type="curve" smooth="yes"/>
      <point x="185" y="506"/>
      <point x="438" y="188"/>
      <point x="793" y="78" type="curve"/>
      <point x="284" y="77" type="line"/>
      <point x="284" y="0" type="line"/>
      <point x="925" y="0" type="line"/>
      <point x="925" y="78" type="line"/>
      <point x="896" y="86" type="line"/>
      <point x="555" y="190"/>
      <point x="288" y="520"/>
      <point x="288" y="859" type="curve" smooth="yes"/>
      <point x="288" y="1251"/>
      <point x="580" y="1584"/>
      <point x="969" y="1584" type="curve" smooth="yes"/>
      <point x="1359" y="1584"/>
      <point x="1651" y="1251"/>
      <point x="1651" y="859" type="curve" smooth="yes"/>
      <point x="1651" y="520"/>
      <point x="1383" y="190"/>
      <point x="1042" y="86" type="curve" smooth="yes"/>
      <point x="1014" y="78" type="line"/>
      <point x="1014" y="0" type="line"/>
      <point x="1654" y="0" type="line"/>
      <point x="1654" y="77" type="line"/>
      <point x="1146" y="78" type="line"/>
      <point x="1500" y="188"/>
      <point x="1755" y="506"/>
      <point x="1755" y="878" type="curve" smooth="yes"/>
      <point x="1755" y="1324"/>
      <point x="1408" y="1680"/>
    </contour>
  </outline>
</glyph>
<glyph name="mu" format="2">
  <advance width="1481"/>
  <unicode hex="03BC"/>
  <outline>
    <contour>
      <point x="449" y="-320" type="line"/>
      <point x="449" y="111" type="line"/>
      <point x="502" y="22"/>
      <point x="596" y="-32"/>
      <point x="748" y="-32" type="curve" smooth="yes"/>
      <point x="861" y="-32"/>
      <point x="1015" y="22"/>
      <point x="1071" y="147" type="curve"/>
      <point x="1071" y="0" type="line"/>
      <point x="1174" y="0" type="line"/>
      <point x="1174" y="1024" type="line"/>
      <point x="1071" y="1024" type="line"/>
      <point x="1071" y="341" type="line" smooth="yes"/>
      <point x="1071" y="202"/>
      <point x="956" y="53"/>
      <point x="761" y="53" type="curve" smooth="yes"/>
      <point x="548" y="53"/>
      <point x="449" y="185"/>
      <point x="449" y="409" type="curve" smooth="yes"/>
      <point x="449" y="1024" type="line"/>
      <point x="347" y="1024" type="line"/>
      <point x="347" y="441" type="line" smooth="yes"/>
      <point x="347" y="151"/>
      <point x="312" y="16"/>
      <point x="312" y="-320" type="curve"/>
    </contour>
  </outline>
</glyph>
<glyph name="pi" format="2">
  <advance width="1275"/>
  <unicode hex="03C0"/>
  <outline>
    <contour>
      <point x="487" y="0" type="line"/>
      <point x="487" y="938" type="line"/>
      <point x="807" y="938" type="line"/>
      <point x="807" y="172" type="line" smooth="yes"/>
      <point x="807" y="48"/>
      <point x="855" y="0"/>
      <point x="984" y="0" type="curve"/>
      <point x="984" y="89" type="line"/>
      <point x="917" y="89"/>
      <point x="896" y="112"/>
      <point x="896" y="182" type="curve" smooth="yes"/>
      <point x="896" y="938" type="line"/>
      <point x="1069" y="938" type="line"/>
      <point x="1069" y="1024" type="line"/>
      <point x="225" y="1024" type="line"/>
      <point x="225" y="938" type="line"/>
      <point x="397" y="938" type="line"/>
      <point x="397" y="0" type="line"/>
    </contour>
  </outline>
</glyph>
<glyph name="Germandbls" format="2">
  <advance width="1522"/>
  <unicode hex="1E9E"/>
  <outline>
    <contour>
      <point x="910" y="-31" type="curve" smooth="yes"/>
      <point x="1166" y="-31"/>
      <point x="1350" y="142"/>
      <point x="1350" y="392" type="curve" smooth="yes"/>
      <point x="1350" y="766"/>
      <point x="935" y="754"/>
      <point x="935" y="905" type="curve" smooth="yes"/>
      <point x="935" y="1014"/>
      <point x="1148" y="1034"/>
      <point x="1148" y="1303" type="curve" smooth="yes"/>
      <point x="1148" y="1545"/>
      <point x="976" y="1681"/>
      <point x="748" y="1681" type="curve" smooth="yes"/>
      <point x="448" y="1681"/>
      <point x="281" y="1446"/>
      <point x="281" y="1091" type="curve" smooth="yes"/>
      <point x="281" y="0" type="line" name=".hr01"/>
      <point x="387" y="0" type="line"/>
      <point x="387" y="1092" type="line" smooth="yes"/>
      <point x="387" y="1392"/>
      <point x="513" y="1574"/>
      <point x="741" y="1574" type="curve" smooth="yes"/>
      <point x="911" y="1574"/>
      <point x="1038" y="1473"/>
      <point x="1038" y="1290" type="curve" smooth="yes"/>
      <point x="1038" y="1051"/>
      <point x="823" y="1057"/>
      <point x="823" y="899" type="curve" smooth="yes"/>
      <point x="823" y="680"/>
      <point x="1242" y="724"/>
      <point x="1242" y="394" type="curve" smooth="yes"/>
      <point x="1242" y="196"/>
      <point x="1095" y="71" name=".hr02"/>
      <point x="910" y="71" type="curve" smooth="yes"/>
      <point x="796" y="71"/>
      <point x="701" y="118"/>
      <point x="595" y="197" type="curve"/>
      <point x="539" y="109" type="line"/>
      <point x="673" y="14"/>
      <point x="783" y="-31"/>
    </contour>
  </outline>
</glyph>
<glyph name="endash" format="2">
  <advance width="1273"/>
  <unicode hex="2013"/>
  <outline>
    <contour>
      <point x="1048" y="536" type="line"/>
      <point x="1048" y="622" type="line"/>
      <point x="225" y="622" type="line"/>
      <point x="225" y="536" type="line"/>
    </contour>
  </outline>
</glyph>
<glyph name="emdash" format="2">
  <advance width="2054"/>
  <unicode hex="2014"/>
  <outline>
    <contour>
      <point x="1830" y="536" type="line"/>
      <point x="1830" y="622" type="line"/>
      <point x="225" y="622" type="line"/>
      <point x="225" y="536" type="line"/>
    </contour>
  </outline>
</glyph>
<glyph name="quotesinglbase" format="2">
  <advance width="718"/>
  <unicode hex="201A"/>
  <outline>
    <contour>
      <point x="271" y="-207" type="line"/>
      <point x="334" y="-158"/>
      <point x="390" y="-56"/>
      <point x="390" y="23" type="curve" smooth="yes"/>
      <point x="390" y="86"/>
      <point x="352" y="118"/>
      <point x="309" y="118" type="curve" smooth="yes"/>
      <point x="267" y="118"/>
      <point x="234" y="85"/>
      <point x="234" y="46" type="curve" smooth="yes"/>
      <point x="234" y="8"/>
      <point x="262" y="-22"/>
      <point x="299" y="-26" type="curve"/>
      <point x="297" y="-91"/>
      <point x="276" y="-149"/>
      <point x="247" y="-186" type="curve"/>
    </contour>
  </outline>
</glyph>
<glyph name="dagger" format="2">
  <advance width="1202"/>
  <unicode hex="2020"/>
  <outline>
    <contour>
      <point x="649" y="0" type="line"/>
      <point x="649" y="1119" type="line"/>
      <point x="1003" y="1119" type="line"/>
      <point x="1003" y="1209" type="line"/>
      <point x="649" y="1209" type="line"/>
      <point x="649" y="1720" type="line"/>
      <point x="554" y="1720" type="line"/>
      <point x="554" y="1209" type="line"/>
      <point x="199" y="1209" type="line"/>
      <point x="199" y="1119" type="line"/>
      <point x="554" y="1119" type="line"/>
      <point x="554" y="0" type="line"/>
    </contour>
  </outline>
</glyph>
<glyph name="daggerdbl" format="2">
  <advance width="1249"/>
  <unicode hex="2021"/>
  <outline>
    <contour>
      <point x="672" y="0" type="line"/>
      <point x="672" y="551" type="line"/>
      <point x="1027" y="551" type="line"/>
      <point x="1027" y="641" type="line"/>
      <point x="672" y="641" type="line"/>
      <point x="672" y="1113" type="line"/>
      <point x="1027" y="1113" type="line"/>
      <point x="1027" y="1203" type="line"/>
      <point x="672" y="1203" type="line"/>
      <point x="672" y="1720" type="line"/>
      <point x="577" y="1720" type="line"/>
      <point x="577" y="1203" type="line"/>
      <point x="223" y="1203" type="line"/>
      <point x="223" y="1113" type="line"/>
      <point x="577" y="1113" type="line"/>
      <point x="577" y="641" type="line"/>
      <point x="223" y="641" type="line"/>
      <point x="223" y="551" type="line"/>
      <point x="577" y="551" type="line"/>
      <point x="577" y="0" type="line"/>
    </contour>
  </outline>
</glyph>
<glyph name="bullet" format="2">
  <advance width="804"/>
  <unicode hex="2022"/>
  <outline>
    <contour>
      <point x="402" y="604" type="curve" smooth="yes"/>
      <point x="464" y="604"/>
      <point x="512" y="653"/>
      <point x="512" y="714" type="curve" smooth="yes"/>
      <point x="512" y="775"/>
      <point x="464" y="824"/>
      <point x="402" y="824" type="curve" smooth="yes"/>
      <point x="342" y="824"/>
      <point x="291" y="775"/>
      <point x="291" y="714" type="curve" smooth="yes"/>
      <point x="291" y="653"/>
      <point x="342" y="604"/>
    </contour>
  </outline>
</glyph>
<glyph name="perthousand" format="2">
  <advance width="3192"/>
  <unicode hex="2030"/>
  <outline>
    <component base="percent"/>
    <contour>
      <point x="2576" y="-32" type="curve" smooth="yes"/>
      <point x="2804" y="-32"/>
      <point x="2980" y="130"/>
      <point x="2980" y="362" type="curve" smooth="yes"/>
      <point x="2980" y="594"/>
      <point x="2804" y="756"/>
      <point x="2576" y="756" type="curve" smooth="yes"/>
      <point x="2350" y="756"/>
      <point x="2172" y="594"/>
      <point x="2172" y="362" type="curve" smooth="yes"/>
      <point x="2172" y="130"/>
      <point x="2350" y="-32"/>
    </contour>
    <contour>
      <point x="2576" y="46" type="curve" smooth="yes"/>
      <point x="2396" y="46"/>
      <point x="2263" y="177"/>
      <point x="2263" y="362" type="curve" smooth="yes"/>
      <point x="2263" y="547"/>
      <point x="2396" y="678"/>
      <point x="2576" y="678" type="curve" smooth="yes"/>
      <point x="2757" y="678"/>
      <point x="2889" y="547"/>
      <point x="2889" y="362" type="curve" smooth="yes"/>
      <point x="2889" y="177"/>
      <point x="2757" y="46"/>
    </contour>
  </outline>
</glyph>
<glyph name="guilsinglleft" format="2">
  <advance width="758"/>
  <unicode hex="2039"/>
  <outline>
    <contour>
      <point x="601" y="110" type="line"/>
      <point x="252" y="556" type="line"/>
      <point x="601" y="1003" type="line"/>
      <point x="533" y="1056" type="line"/>
      <point x="143" y="556" type="line"/>
      <point x="533" y="56" type="line"/>
    </contour>
  </outline>
</glyph>
<glyph name="guilsinglright" format="2">
  <advance width="757"/>
  <unicode hex="203A"/>
  <outline>
    <contour>
      <point x="614" y="556" type="line"/>
      <point x="224" y="1056" type="line"/>
      <point x="156" y="1003" type="line"/>
      <point x="505" y="556" type="line"/>
      <point x="156" y="110" type="line"/>
      <point x="224" y="56" type="line"/>
    </contour>
  </outline>
</glyph>
<glyph name="fraction" format="2">
  <advance width="238"/>
  <unicode hex="2044"/>
  <outline>
    <contour>
      <point x="-411" y="0" type="line"/>
      <point x="723" y="1650" type="line"/>
      <point x="649" y="1650" type="line"/>
      <point x="-485" y="0" type="line"/>
    </contour>
  </outline>
</glyph>
<glyph name="foursuperior" format="2">
  <advance width="968"/>
  <unicode hex="2074"/>
  <outline>
    <contour>
      <point x="639" y="1040" type="line"/>
      <point x="639" y="1153" type="line"/>
      <point x="718" y="1153" type="line"/>
      <point x="718" y="1203" type="line"/>
      <point x="639" y="1203" type="line"/>
      <point x="639" y="1650" type="line"/>
      <point x="587" y="1650" type="line"/>
      <point x="247" y="1182" type="line"/>
      <point x="247" y="1153" type="line"/>
      <point x="586" y="1153" type="line"/>
      <point x="586" y="1040" type="line"/>
    </contour>
    <contour>
      <point x="586" y="1572" type="line"/>
      <point x="586" y="1203" type="line"/>
      <point x="321" y="1203" type="line"/>
    </contour>
  </outline>
</glyph>
<glyph name="euro" format="2">
  <advance width="2003"/>
  <unicode hex="20AC"/>
  <outline>
    <component base="C" xOffset="243" yOffset="-1"/>
    <contour>
      <point x="239" y="1028" type="line"/>
      <point x="239" y="955" type="line"/>
      <point x="1483" y="955" type="line"/>
      <point x="1483" y="1028" type="line"/>
    </contour>
    <contour>
      <point x="239" y="692" type="line"/>
      <point x="239" y="619" type="line"/>
      <point x="1483" y="619" type="line"/>
      <point x="1483" y="692" type="line"/>
    </contour>
  </outline>
</glyph>
<glyph name="arrowleft" format="2">
  <advance width="2130"/>
  <unicode hex="2190"/>
  <outline>
    <contour>
      <point x="300" y="878" type="line"/>
      <point x="300" y="772" type="line"/>
      <point x="1905" y="772" type="line"/>
      <point x="1905" y="878" type="line"/>
    </contour>
    <contour>
      <point x="225" y="825" type="line"/>
      <point x="1050" y="0" type="line"/>
      <point x="1200" y="0" type="line"/>
      <point x="347" y="844" type="line"/>
      <point x="347" y="806" type="line"/>
      <point x="1200" y="1650" type="line"/>
      <point x="1050" y="1650" type="line"/>
    </contour>
  </outline>
</glyph>
<glyph name="arrowup" format="2">
  <advance width="2100"/>
  <unicode hex="2191"/>
  <outline>
    <contour>
      <point x="1103" y="1605" type="line"/>
      <point x="997" y="1605" type="line"/>
      <point x="997" y="0" type="line"/>
      <point x="1103" y="0" type="line"/>
    </contour>
    <contour>
      <point x="1050" y="1680" type="line"/>
      <point x="225" y="855" type="line"/>
      <point x="225" y="705" type="line"/>
      <point x="1069" y="1558" type="line"/>
      <point x="1031" y="1558" type="line"/>
      <point x="1875" y="705" type="line"/>
      <point x="1875" y="855" type="line"/>
    </contour>
  </outline>
</glyph>
<glyph name="arrowboth" format="2">
  <advance width="2472"/>
  <unicode hex="2194"/>
  <outline>
    <contour>
      <point x="293" y="878" type="line"/>
      <point x="293" y="772" type="line"/>
      <point x="2182" y="772" type="line"/>
      <point x="2182" y="878" type="line"/>
    </contour>
    <contour>
      <point x="883" y="1650" type="line"/>
      <point x="225" y="825" type="line"/>
      <point x="883" y="0" type="line"/>
      <point x="1023" y="0" type="line"/>
      <point x="344" y="844" type="line"/>
      <point x="344" y="806" type="line"/>
      <point x="1023" y="1650" type="line"/>
    </contour>
    <contour>
      <point x="1449" y="1650" type="line"/>
      <point x="2128" y="806" type="line"/>
      <point x="2128" y="844" type="line"/>
      <point x="1449" y="0" type="line"/>
      <point x="1589" y="0" type="line"/>
      <point x="2247" y="825" type="line"/>
      <point x="1589" y="1650" type="line"/>
    </contour>
  </outline>
</glyph>
<glyph name="arrowupdn" format="2">
  <advance width="1580"/>
  <unicode hex="2195"/>
  <outline>
    <contour>
      <point x="843" y="1605" type="line"/>
      <point x="737" y="1605" type="line"/>
      <point x="737" y="33" type="line"/>
      <point x="843" y="33" type="line"/>
    </contour>
    <contour>
      <point x="790" y="1680" type="line"/>
      <point x="225" y="1141" type="line"/>
      <point x="225" y="1015" type="line"/>
      <point x="809" y="1574" type="line"/>
      <point x="771" y="1574" type="line"/>
      <point x="1355" y="1015" type="line"/>
      <point x="1355" y="1141" type="line"/>
    </contour>
    <contour>
      <point x="225" y="635" type="line"/>
      <point x="225" y="509" type="line"/>
      <point x="790" y="-30" type="line"/>
      <point x="1355" y="509" type="line"/>
      <point x="1355" y="635" type="line"/>
      <point x="771" y="76" type="line"/>
      <point x="809" y="76" type="line"/>
    </contour>
  </outline>
</glyph>
<glyph name="arrowNW" format="2">
  <advance width="1984"/>
  <unicode hex="2196"/>
  <outline>
    <contour>
      <point x="315" y="1634" type="line"/>
      <point x="241" y="1560" type="line"/>
      <point x="1656" y="144" type="line"/>
      <point x="1731" y="219" type="line"/>
    </contour>
    <contour>
      <point x="225" y="1650" type="line"/>
      <point x="225" y="221" type="line"/>
      <point x="331" y="116" type="line"/>
      <point x="325" y="1577" type="line"/>
      <point x="298" y="1550" type="line"/>
      <point x="1759" y="1544" type="line"/>
      <point x="1653" y="1650" type="line"/>
    </contour>
  </outline>
</glyph>
<glyph name="arrowNE" format="2">
  <advance width="1984"/>
  <unicode hex="2197"/>
  <outline>
    <contour>
      <point x="1743" y="1560" type="line"/>
      <point x="1669" y="1634" type="line"/>
      <point x="253" y="219" type="line"/>
      <point x="328" y="144" type="line"/>
    </contour>
    <contour>
      <point x="1759" y="1650" type="line"/>
      <point x="330" y="1650" type="line"/>
      <point x="225" y="1544" type="line"/>
      <point x="1686" y="1550" type="line"/>
      <point x="1659" y="1577" type="line"/>
      <point x="1653" y="116" type="line"/>
      <point x="1759" y="222" type="line"/>
    </contour>
  </outline>
</glyph>
<glyph name="arrowSE" format="2">
  <advance width="1984"/>
  <unicode hex="2198"/>
  <outline>
    <contour>
      <point x="1669" y="16" type="line"/>
      <point x="1743" y="90" type="line"/>
      <point x="328" y="1506" type="line"/>
      <point x="253" y="1431" type="line"/>
    </contour>
    <contour>
      <point x="1759" y="0" type="line"/>
      <point x="1759" y="1429" type="line"/>
      <point x="1653" y="1534" type="line"/>
      <point x="1659" y="73" type="line"/>
      <point x="1686" y="100" type="line"/>
      <point x="225" y="106" type="line"/>
      <point x="331" y="0" type="line"/>
    </contour>
  </outline>
</glyph>
<glyph name="arrowSW" format="2">
  <advance width="1984"/>
  <unicode hex="2199"/>
  <outline>
    <contour>
      <point x="241" y="90" type="line"/>
      <point x="315" y="16" type="line"/>
      <point x="1731" y="1431" type="line"/>
      <point x="1656" y="1506" type="line"/>
    </contour>
    <contour>
      <point x="225" y="0" type="line"/>
      <point x="1654" y="0" type="line"/>
      <point x="1759" y="106" type="line"/>
      <point x="298" y="100" type="line"/>
      <point x="325" y="73" type="line"/>
      <point x="331" y="1534" type="line"/>
      <point x="225" y="1428" type="line"/>
    </contour>
  </outline>
</glyph>
<glyph name="partialdiff" format="2">
  <advance width="1494"/>
  <unicode hex="2202"/>
  <outline>
    <contour>
      <point x="759" y="-32" type="curve" smooth="yes"/>
      <point x="1151" y="-32"/>
      <point x="1317" y="264"/>
      <point x="1317" y="695" type="curve" smooth="yes"/>
      <point x="1317" y="1171"/>
      <point x="1112" y="1552"/>
      <point x="719" y="1781" type="curve"/>
      <point x="670" y="1701" type="line"/>
      <point x="1029" y="1493"/>
      <point x="1193" y="1176"/>
      <point x="1206" y="759" type="curve"/>
      <point x="1131" y="949"/>
      <point x="931" y="1065"/>
      <point x="720" y="1065" type="curve" smooth="yes"/>
      <point x="397" y="1065"/>
      <point x="178" y="809"/>
      <point x="178" y="513" type="curve" smooth="yes"/>
      <point x="178" y="196"/>
      <point x="428" y="-32"/>
    </contour>
    <contour>
      <point x="744" y="61" type="curve" smooth="yes"/>
      <point x="498" y="61"/>
      <point x="280" y="233"/>
      <point x="280" y="508" type="curve" smooth="yes"/>
      <point x="280" y="752"/>
      <point x="452" y="969"/>
      <point x="729" y="969" type="curve" smooth="yes"/>
      <point x="975" y="969"/>
      <point x="1194" y="795"/>
      <point x="1194" y="522" type="curve" smooth="yes"/>
      <point x="1194" y="277"/>
      <point x="1020" y="61"/>
    </contour>
  </outline>
</glyph>
<glyph name="emptyset" format="2">
  <advance width="1200"/>
  <unicode hex="2205"/>
  <outline>
    <contour>
      <point x="1088" y="1087" type="line"/>
      <point x="1044" y="1131" type="line"/>
      <point x="135" y="222" type="line"/>
      <point x="179" y="179" type="line"/>
    </contour>
    <contour>
      <point x="611" y="201" type="curve" smooth="yes"/>
      <point x="862" y="201"/>
      <point x="1065" y="402"/>
      <point x="1065" y="655" type="curve" smooth="yes"/>
      <point x="1065" y="905"/>
      <point x="865" y="1108"/>
      <point x="612" y="1108" type="curve" smooth="yes"/>
      <point x="358" y="1108"/>
      <point x="158" y="905"/>
      <point x="158" y="654" type="curve" smooth="yes"/>
      <point x="158" y="403"/>
      <point x="358" y="201"/>
    </contour>
    <contour>
      <point x="612" y="273" type="curve" smooth="yes"/>
      <point x="398" y="273"/>
      <point x="229" y="441"/>
      <point x="229" y="655" type="curve" smooth="yes"/>
      <point x="229" y="869"/>
      <point x="398" y="1037"/>
      <point x="612" y="1037" type="curve" smooth="yes"/>
      <point x="824" y="1037"/>
      <point x="995" y="869"/>
      <point x="995" y="655" type="curve" smooth="yes"/>
      <point x="995" y="441"/>
      <point x="824" y="273"/>
    </contour>
  </outline>
</glyph>
<glyph name="product" format="2">
  <advance width="1858"/>
  <unicode hex="220F"/>
  <outline>
    <contour>
      <point x="542" y="0" type="line"/>
      <point x="542" y="1634" type="line"/>
      <point x="1315" y="1634" type="line"/>
      <point x="1315" y="0" type="line"/>
      <point x="1405" y="0" type="line"/>
      <point x="1405" y="1634" type="line"/>
      <point x="1577" y="1634" type="line"/>
      <point x="1577" y="1720" type="line"/>
      <point x="281" y="1720" type="line"/>
      <point x="281" y="1634" type="line"/>
      <point x="452" y="1634" type="line"/>
      <point x="452" y="0" type="line"/>
    </contour>
  </outline>
</glyph>
<glyph name="summation" format="2">
  <advance width="1580"/>
  <unicode hex="2211"/>
  <outline>
    <contour>
      <point x="1299" y="0" type="line"/>
      <point x="1299" y="86" type="line"/>
      <point x="441" y="86" type="line"/>
      <point x="949" y="860" type="line"/>
      <point x="441" y="1634" type="line"/>
      <point x="1299" y="1634" type="line"/>
      <point x="1299" y="1720" type="line"/>
      <point x="281" y="1720" type="line"/>
      <point x="846" y="860" type="line"/>
      <point x="281" y="0" type="line"/>
    </contour>
  </outline>
</glyph>
<glyph name="minus" format="2">
  <advance width="1698"/>
  <unicode hex="2212"/>
  <outline>
    <contour>
      <point x="1361" y="784" type="line"/>
      <point x="1361" y="872" type="line"/>
      <point x="337" y="872" type="line"/>
      <point x="337" y="784" type="line"/>
    </contour>
  </outline>
</glyph>
<glyph name="radical" format="2">
  <advance width="1642"/>
  <unicode hex="221A"/>
  <outline>
    <contour>
      <point x="611" y="-32" type="line"/>
      <point x="1012" y="1634" type="line"/>
      <point x="1361" y="1634" type="line"/>
      <point x="1361" y="1720" type="line"/>
      <point x="940" y="1720" type="line"/>
      <point x="556" y="94" type="line"/>
      <point x="371" y="609" type="line"/>
      <point x="281" y="609" type="line"/>
      <point x="513" y="-32" type="line"/>
    </contour>
  </outline>
</glyph>
<glyph name="infinity" format="2">
  <advance width="2153"/>
  <unicode hex="221E"/>
  <outline>
    <contour>
      <point x="566" y="121" type="curve" smooth="yes"/>
      <point x="762" y="121"/>
      <point x="914" y="276"/>
      <point x="1077" y="479" type="curve"/>
      <point x="1240" y="276"/>
      <point x="1392" y="121"/>
      <point x="1588" y="121" type="curve" smooth="yes"/>
      <point x="1799" y="121"/>
      <point x="2004" y="297"/>
      <point x="2004" y="545" type="curve" smooth="yes"/>
      <point x="2004" y="793"/>
      <point x="1798" y="968"/>
      <point x="1588" y="968" type="curve" smooth="yes"/>
      <point x="1392" y="968"/>
      <point x="1240" y="813"/>
      <point x="1077" y="611" type="curve"/>
      <point x="914" y="813"/>
      <point x="762" y="968"/>
      <point x="566" y="968" type="curve" smooth="yes"/>
      <point x="356" y="968"/>
      <point x="150" y="793"/>
      <point x="150" y="545" type="curve" smooth="yes"/>
      <point x="150" y="297"/>
      <point x="355" y="121"/>
    </contour>
    <contour>
      <point x="572" y="212" type="curve" smooth="yes"/>
      <point x="410" y="212"/>
      <point x="247" y="347"/>
      <point x="247" y="545" type="curve" smooth="yes"/>
      <point x="247" y="743"/>
      <point x="411" y="877"/>
      <point x="572" y="877" type="curve" smooth="yes"/>
      <point x="742" y="877"/>
      <point x="865" y="729"/>
      <point x="1024" y="545" type="curve"/>
      <point x="865" y="360"/>
      <point x="741" y="212"/>
    </contour>
    <contour>
      <point x="1581" y="212" type="curve" smooth="yes"/>
      <point x="1412" y="212"/>
      <point x="1289" y="360"/>
      <point x="1130" y="545" type="curve"/>
      <point x="1289" y="729"/>
      <point x="1412" y="877"/>
      <point x="1581" y="877" type="curve" smooth="yes"/>
      <point x="1742" y="877"/>
      <point x="1907" y="743"/>
      <point x="1907" y="545" type="curve" smooth="yes"/>
      <point x="1907" y="347"/>
      <point x="1743" y="212"/>
    </contour>
  </outline>
</glyph>
<glyph name="integral" format="2">
  <advance width="863"/>
  <unicode hex="222B"/>
  <outline>
    <contour>
      <point x="41" y="-551" type="curve" smooth="yes"/>
      <point x="212" y="-551"/>
      <point x="312" y="-437"/>
      <point x="334" y="-222" type="curve" smooth="yes"/>
      <point x="505" y="1428" type="line"/>
      <point x="519" y="1579"/>
      <point x="588" y="1660"/>
      <point x="700" y="1660" type="curve" smooth="yes"/>
      <point x="747" y="1660"/>
      <point x="790" y="1646"/>
      <point x="816" y="1622" type="curve"/>
      <point x="859" y="1697" type="line"/>
      <point x="818" y="1732"/>
      <point x="761" y="1750"/>
      <point x="693" y="1750" type="curve" smooth="yes"/>
      <point x="522" y="1750"/>
      <point x="422" y="1636"/>
      <point x="400" y="1421" type="curve" smooth="yes"/>
      <point x="230" y="-229" type="line" smooth="yes"/>
      <point x="214" y="-380"/>
      <point x="147" y="-461"/>
      <point x="34" y="-461" type="curve" smooth="yes"/>
      <point x="-13" y="-461"/>
      <point x="-55" y="-447"/>
      <point x="-82" y="-423" type="curve"/>
      <point x="-126" y="-498" type="line"/>
      <point x="-85" y="-533"/>
      <point x="-27" y="-551"/>
    </contour>
  </outline>
</glyph>
<glyph name="notequal" format="2">
  <advance width="1525"/>
  <unicode hex="2260"/>
  <outline>
    <component base="equal" xOffset="-92"/>
    <contour>
      <point x="427" y="281" type="line"/>
      <point x="1059" y="1369" type="line"/>
      <point x="982" y="1369" type="line"/>
      <point x="350" y="281" type="line"/>
    </contour>
  </outline>
</glyph>
<glyph name="lessequal" format="2">
  <advance width="1560"/>
  <unicode hex="2264"/>
  <outline>
    <contour>
      <point x="1316" y="511" type="line"/>
      <point x="324" y="989" type="line"/>
      <point x="1316" y="1469" type="line"/>
      <point x="1316" y="1552" type="line"/>
      <point x="221" y="1023" type="line"/>
      <point x="221" y="957" type="line"/>
      <point x="1316" y="428" type="line"/>
    </contour>
    <contour>
      <point x="1316" y="169" type="line"/>
      <point x="1316" y="257" type="line"/>
      <point x="221" y="257" type="line"/>
      <point x="221" y="169" type="line"/>
    </contour>
  </outline>
</glyph>
<glyph name="greaterequal" format="2">
  <advance width="1560"/>
  <unicode hex="2265"/>
  <outline>
    <contour>
      <point x="1339" y="957" type="line"/>
      <point x="1339" y="1023" type="line"/>
      <point x="245" y="1552" type="line"/>
      <point x="245" y="1469" type="line"/>
      <point x="1236" y="989" type="line"/>
      <point x="245" y="511" type="line"/>
      <point x="245" y="428" type="line"/>
    </contour>
    <contour>
      <point x="1339" y="169" type="line"/>
      <point x="1339" y="257" type="line"/>
      <point x="245" y="257" type="line"/>
      <point x="245" y="169" type="line"/>
    </contour>
  </outline>
</glyph>
<glyph name="lozenge" format="2">
  <advance width="1200"/>
  <unicode hex="25CA"/>
  <outline>
    <contour>
      <point x="663" y="-80" type="line"/>
      <point x="1083" y="795" type="line"/>
      <point x="663" y="1670" type="line"/>
      <point x="537" y="1670" type="line"/>
      <point x="117" y="795" type="line"/>
      <point x="537" y="-80" type="line"/>
    </contour>
    <contour>
      <point x="230" y="795" type="line"/>
      <point x="600" y="1563" type="line"/>
      <point x="970" y="795" type="line"/>
      <point x="600" y="27" type="line"/>
    </contour>
  </outline>
</glyph>
<glyph name="f_f" format="2">
  <advance width="1283"/>
  <unicode hex="FB00"/>
  <anchor x="631" y="0" name="caret_1"/>
  <outline>
    <contour>
      <point x="382" y="0" type="line"/>
      <point x="382" y="946" type="line"/>
      <point x="717" y="946" type="line"/>
      <point x="717" y="0" type="line"/>
      <point x="820" y="0" type="line"/>
      <point x="820" y="946" type="line"/>
      <point x="1087" y="946" type="line"/>
      <point x="1087" y="1024" type="line"/>
      <point x="820" y="1024" type="line"/>
      <point x="820" y="1428" type="line" smooth="yes"/>
      <point x="820" y="1596"/>
      <point x="879" y="1660"/>
      <point x="990" y="1660" type="curve" smooth="yes"/>
      <point x="1045" y="1660"/>
      <point x="1085" y="1645"/>
      <point x="1112" y="1622" type="curve"/>
      <point x="1148" y="1697" type="line"/>
      <point x="1116" y="1722"/>
      <point x="1063" y="1750"/>
      <point x="976" y="1750" type="curve" smooth="yes"/>
      <point x="821" y="1750"/>
      <point x="717" y="1654"/>
      <point x="717" y="1421" type="curve" smooth="yes"/>
      <point x="717" y="1024" type="line"/>
      <point x="382" y="1024" type="line"/>
      <point x="382" y="1428" type="line" smooth="yes"/>
      <point x="382" y="1596"/>
      <point x="441" y="1660"/>
      <point x="551" y="1660" type="curve" smooth="yes"/>
      <point x="592" y="1660"/>
      <point x="625" y="1651"/>
      <point x="650" y="1637" type="curve"/>
      <point x="690" y="1710" type="line"/>
      <point x="657" y="1731"/>
      <point x="607" y="1750"/>
      <point x="538" y="1750" type="curve" smooth="yes"/>
      <point x="383" y="1750"/>
      <point x="279" y="1654"/>
      <point x="279" y="1421" type="curve" smooth="yes"/>
      <point x="279" y="1024" type="line"/>
      <point x="185" y="1024" type="line"/>
      <point x="185" y="946" type="line"/>
      <point x="279" y="946" type="line"/>
      <point x="279" y="0" type="line"/>
    </contour>
  </outline>
</glyph>
<glyph name="fi" format="2">
  <advance width="940"/>
  <unicode hex="FB01"/>
  <anchor x="471" y="0" name="caret_1"/>
  <outline>
    <contour>
      <point x="337" y="0" type="line"/>
      <point x="337" y="946" type="line"/>
      <point x="657" y="946" type="line"/>
      <point x="657" y="0" type="line"/>
      <point x="760" y="0" type="line"/>
      <point x="760" y="1024" type="line"/>
      <point x="337" y="1024" type="line"/>
      <point x="337" y="1428" type="line" smooth="yes"/>
      <point x="337" y="1596"/>
      <point x="398" y="1661"/>
      <point x="513" y="1661" type="curve" smooth="yes"/>
      <point x="575" y="1661"/>
      <point x="648" y="1622"/>
      <point x="675" y="1565" type="curve"/>
      <point x="733" y="1619" type="line"/>
      <point x="688" y="1699"/>
      <point x="592" y="1750"/>
      <point x="493" y="1750" type="curve" smooth="yes"/>
      <point x="338" y="1750"/>
      <point x="234" y="1654"/>
      <point x="234" y="1421" type="curve" smooth="yes"/>
      <point x="234" y="1024" type="line"/>
      <point x="140" y="1024" type="line"/>
      <point x="140" y="946" type="line"/>
      <point x="234" y="946" type="line"/>
      <point x="234" y="0" type="line"/>
    </contour>
  </outline>
</glyph>
<glyph name="fl" format="2">
  <advance width="1106"/>
  <unicode hex="FB02"/>
  <anchor x="549" y="0" name="caret_1"/>
  <outline>
    <contour>
      <point x="370" y="0" type="line"/>
      <point x="370" y="946" type="line"/>
      <point x="637" y="946" type="line"/>
      <point x="637" y="1024" type="line"/>
      <point x="370" y="1024" type="line"/>
      <point x="370" y="1428" type="line" smooth="yes"/>
      <point x="370" y="1596"/>
      <point x="430" y="1660"/>
      <point x="540" y="1660" type="curve" smooth="yes"/>
      <point x="577" y="1660"/>
      <point x="609" y="1653"/>
      <point x="635" y="1639" type="curve"/>
      <point x="667" y="1717" type="line"/>
      <point x="638" y="1734"/>
      <point x="591" y="1750"/>
      <point x="526" y="1750" type="curve" smooth="yes"/>
      <point x="372" y="1750"/>
      <point x="270" y="1654"/>
      <point x="270" y="1421" type="curve" smooth="yes"/>
      <point x="270" y="1024" type="line"/>
      <point x="174" y="1024" type="line"/>
      <point x="174" y="946" type="line"/>
      <point x="270" y="946" type="line"/>
      <point x="270" y="0" type="line"/>
    </contour>
    <contour>
      <point x="842" y="0" type="line"/>
      <point x="842" y="1720" type="line" name=".hr01"/>
      <point x="742" y="1720" type="line"/>
      <point x="742" y="0" type="line"/>
    </contour>
  </outline>
</glyph>
<glyph name="f_f_i" format="2">
  <advance width="1459"/>
  <unicode hex="FB03"/>
  <anchor x="485" y="0" name="caret_1"/>
  <anchor x="971" y="0" name="caret_2"/>
  <outline>
    <contour>
      <point x="377" y="0" type="line"/>
      <point x="377" y="946" type="line"/>
      <point x="713" y="946" type="line"/>
      <point x="713" y="0" type="line"/>
      <point x="816" y="0" type="line"/>
      <point x="816" y="946" type="line"/>
      <point x="1135" y="946" type="line"/>
      <point x="1135" y="0" type="line"/>
      <point x="1237" y="0" type="line"/>
      <point x="1237" y="1024" type="line"/>
      <point x="816" y="1024" type="line"/>
      <point x="816" y="1428" type="line" smooth="yes"/>
      <point x="816" y="1596"/>
      <point x="878" y="1661"/>
      <point x="992" y="1661" type="curve" smooth="yes"/>
      <point x="1055" y="1661"/>
      <point x="1128" y="1622"/>
      <point x="1155" y="1565" type="curve"/>
      <point x="1212" y="1619" type="line"/>
      <point x="1168" y="1699"/>
      <point x="1071" y="1750"/>
      <point x="972" y="1750" type="curve" smooth="yes"/>
      <point x="817" y="1750"/>
      <point x="713" y="1654"/>
      <point x="713" y="1421" type="curve" smooth="yes"/>
      <point x="713" y="1024" type="line"/>
      <point x="377" y="1024" type="line"/>
      <point x="377" y="1428" type="line" smooth="yes"/>
      <point x="377" y="1596"/>
      <point x="436" y="1660"/>
      <point x="546" y="1660" type="curve" smooth="yes"/>
      <point x="587" y="1660"/>
      <point x="621" y="1651"/>
      <point x="645" y="1637" type="curve"/>
      <point x="685" y="1710" type="line"/>
      <point x="653" y="1731"/>
      <point x="603" y="1750"/>
      <point x="533" y="1750" type="curve" smooth="yes"/>
      <point x="379" y="1750"/>
      <point x="275" y="1654"/>
      <point x="275" y="1421" type="curve" smooth="yes"/>
      <point x="275" y="1024" type="line"/>
      <point x="181" y="1024" type="line"/>
      <point x="181" y="946" type="line"/>
      <point x="275" y="946" type="line"/>
      <point x="275" y="0" type="line"/>
    </contour>
  </outline>
</glyph>
<glyph name="f_f_l" format="2">
  <advance width="1548"/>
  <unicode hex="FB04"/>
  <anchor x="509" y="0" name="caret_1"/>
  <anchor x="1024" y="0" name="caret_2"/>
  <outline>
    <contour>
      <point x="372" y="0" type="line"/>
      <point x="372" y="946" type="line"/>
      <point x="708" y="946" type="line"/>
      <point x="708" y="0" type="line"/>
      <point x="810" y="0" type="line"/>
      <point x="810" y="946" type="line"/>
      <point x="1077" y="946" type="line"/>
      <point x="1077" y="1024" type="line"/>
      <point x="810" y="1024" type="line"/>
      <point x="810" y="1428" type="line" smooth="yes"/>
      <point x="810" y="1596"/>
      <point x="870" y="1660"/>
      <point x="980" y="1660" type="curve" smooth="yes"/>
      <point x="1017" y="1660"/>
      <point x="1049" y="1653"/>
      <point x="1075" y="1639" type="curve"/>
      <point x="1107" y="1717" type="line"/>
      <point x="1078" y="1734"/>
      <point x="1031" y="1750"/>
      <point x="966" y="1750" type="curve" smooth="yes"/>
      <point x="812" y="1750"/>
      <point x="708" y="1654"/>
      <point x="708" y="1421" type="curve" smooth="yes"/>
      <point x="708" y="1024" type="line"/>
      <point x="372" y="1024" type="line"/>
      <point x="372" y="1428" type="line" smooth="yes"/>
      <point x="372" y="1596"/>
      <point x="431" y="1660"/>
      <point x="541" y="1660" type="curve" smooth="yes"/>
      <point x="582" y="1660"/>
      <point x="616" y="1651"/>
      <point x="640" y="1637" type="curve"/>
      <point x="680" y="1710" type="line"/>
      <point x="648" y="1731"/>
      <point x="598" y="1750"/>
      <point x="528" y="1750" type="curve" smooth="yes"/>
      <point x="374" y="1750"/>
      <point x="270" y="1654"/>
      <point x="270" y="1421" type="curve" smooth="yes"/>
      <point x="270" y="1024" type="line"/>
      <point x="176" y="1024" type="line"/>
      <point x="176" y="946" type="line"/>
      <point x="270" y="946" type="line"/>
      <point x="270" y="0" type="line"/>
    </contour>
    <contour>
      <point x="1283" y="0" type="line"/>
      <point x="1283" y="1720" type="line" name=".hr01"/>
      <point x="1180" y="1720" type="line"/>
      <point x="1180" y="0" type="line"/>
    </contour>
  </outline>
</glyph>
<glyph name="A.tnum" format="2">
  <advance width="1500"/>
  <anchor x="750" y="0" name="bottom"/>
  <anchor x="1445" y="0" name="ogonek"/>
  <anchor x="750" y="1650" name="top"/>
  <outline>
    <contour>
      <point x="169" y="0" type="line"/>
      <point x="387" y="566" type="line"/>
      <point x="1113" y="566" type="line"/>
      <point x="1331" y="0" type="line"/>
      <point x="1445" y="0" type="line"/>
      <point x="799" y="1650" type="line"/>
      <point x="701" y="1650" type="line"/>
      <point x="55" y="0" type="line"/>
    </contour>
    <contour>
      <point x="750" y="1513" type="line"/>
      <point x="1077" y="660" type="line"/>
      <point x="423" y="660" type="line"/>
    </contour>
  </outline>
</glyph>
<glyph name="M.ss01" format="2">
  <advance width="2062"/>
  <anchor x="1031" y="116" name="bottom"/>
  <anchor x="1031" y="1650" name="top"/>
  <outline>
    <contour>
      <point x="287" y="0" type="line"/>
      <point x="491" y="1447" type="line"/>
      <point x="988" y="116" type="line"/>
      <point x="1074" y="116" type="line"/>
      <point x="1571" y="1447" type="line"/>
      <point x="1775" y="0" type="line"/>
      <point x="1881" y="0" type="line"/>
      <point x="1654" y="1650" type="line"/>
      <point x="1540" y="1650" type="line"/>
      <point x="1031" y="289" type="line"/>
      <point x="522" y="1650" type="line"/>
      <point x="408" y="1650" type="line"/>
      <point x="181" y="0" type="line"/>
    </contour>
  </outline>
</glyph>
<glyph name="P.tnum" format="2">
  <advance width="1500"/>
  <outline>
    <contour>
      <point x="459" y="0" type="line"/>
      <point x="459" y="716" type="line"/>
      <point x="745" y="716" type="line" smooth="yes"/>
      <point x="1069" y="716"/>
      <point x="1263" y="902"/>
      <point x="1263" y="1183" type="curve" smooth="yes"/>
      <point x="1263" y="1464"/>
      <point x="1069" y="1650"/>
      <point x="745" y="1650" type="curve" smooth="yes"/>
      <point x="353" y="1650" type="line"/>
      <point x="353" y="0" type="line"/>
    </contour>
    <contour>
      <point x="459" y="1562" type="line"/>
      <point x="727" y="1562" type="line" smooth="yes"/>
      <point x="995" y="1562"/>
      <point x="1158" y="1412"/>
      <point x="1158" y="1183" type="curve" smooth="yes"/>
      <point x="1158" y="954"/>
      <point x="995" y="804"/>
      <point x="727" y="804" type="curve" smooth="yes"/>
      <point x="459" y="804" type="line"/>
    </contour>
  </outline>
</glyph>
<glyph name="a.ss01" format="2">
  <advance width="1433"/>
  <anchor x="664" y="0" name="bottom"/>
  <anchor x="1208" y="0" name="ogonek"/>
  <anchor x="704" y="1024" name="top"/>
  <outline>
    <contour>
      <point x="257" y="512" type="curve" smooth="yes"/>
      <point x="257" y="776"/>
      <point x="436" y="965"/>
      <point x="684" y="965" type="curve" smooth="yes"/>
      <point x="933" y="965"/>
      <point x="1111" y="777"/>
      <point x="1111" y="512" type="curve" smooth="yes"/>
      <point x="1111" y="248"/>
      <point x="933" y="59"/>
      <point x="684" y="59" type="curve" smooth="yes"/>
      <point x="436" y="59"/>
      <point x="257" y="248"/>
    </contour>
    <contour>
      <point x="153" y="512" type="curve" smooth="yes"/>
      <point x="153" y="199"/>
      <point x="372" y="-32"/>
      <point x="664" y="-32" type="curve" smooth="yes"/>
      <point x="856" y="-32"/>
      <point x="1019" y="69"/>
      <point x="1105" y="239" type="curve"/>
      <point x="1105" y="0" type="line"/>
      <point x="1208" y="0" type="line" name=".hr01"/>
      <point x="1208" y="1024" type="line"/>
      <point x="1105" y="1024" type="line"/>
      <point x="1105" y="785" type="line"/>
      <point x="1019" y="955"/>
      <point x="856" y="1056"/>
      <point x="664" y="1056" type="curve" smooth="yes" name=".hr02"/>
      <point x="372" y="1056"/>
      <point x="153" y="825"/>
    </contour>
  </outline>
</glyph>
<glyph name="eight.pnum" format="2">
  <advance width="1366"/>
  <outline>
    <contour>
      <point x="683" y="-32" type="curve" smooth="yes"/>
      <point x="976" y="-32"/>
      <point x="1188" y="171"/>
      <point x="1188" y="436" type="curve" smooth="yes"/>
      <point x="1188" y="636"/>
      <point x="1065" y="805"/>
      <point x="873" y="875" type="curve"/>
      <point x="1028" y="942"/>
      <point x="1127" y="1090" name=".hr01"/>
      <point x="1127" y="1261" type="curve" smooth="yes"/>
      <point x="1127" y="1501"/>
      <point x="931" y="1680"/>
      <point x="683" y="1680" type="curve" smooth="yes"/>
      <point x="429" y="1680"/>
      <point x="240" y="1496"/>
      <point x="240" y="1261" type="curve" smooth="yes"/>
      <point x="240" y="1091"/>
      <point x="338" y="943"/>
      <point x="494" y="875" type="curve"/>
      <point x="301" y="805"/>
      <point x="179" y="637" name=".hr02"/>
      <point x="179" y="436" type="curve" smooth="yes"/>
      <point x="179" y="171"/>
      <point x="391" y="-32"/>
    </contour>
    <contour>
      <point x="683" y="63" type="curve" smooth="yes"/>
      <point x="454" y="63"/>
      <point x="292" y="226"/>
      <point x="292" y="442" type="curve" smooth="yes"/>
      <point x="292" y="663"/>
      <point x="462" y="822"/>
      <point x="683" y="822" type="curve" smooth="yes"/>
      <point x="908" y="822"/>
      <point x="1075" y="660"/>
      <point x="1075" y="442" type="curve" smooth="yes"/>
      <point x="1075" y="226"/>
      <point x="913" y="63"/>
    </contour>
    <contour>
      <point x="683" y="919" type="curve" smooth="yes"/>
      <point x="488" y="919"/>
      <point x="343" y="1062"/>
      <point x="343" y="1256" type="curve" smooth="yes"/>
      <point x="343" y="1448" name=".hr03"/>
      <point x="489" y="1594"/>
      <point x="683" y="1594" type="curve" smooth="yes"/>
      <point x="877" y="1594"/>
      <point x="1024" y="1448"/>
      <point x="1024" y="1256" type="curve" smooth="yes"/>
      <point x="1024" y="1062"/>
      <point x="878" y="919"/>
    </contour>
  </outline>
</glyph>
<glyph name="f_f_j" format="2">
  <advance width="1355"/>
  <outline>
    <contour>
      <point x="919" y="-550" type="curve" smooth="yes"/>
      <point x="1078" y="-550"/>
      <point x="1173" y="-453"/>
      <point x="1173" y="-239" type="curve" smooth="yes"/>
      <point x="1173" y="1024" type="line"/>
      <point x="752" y="1024" type="line"/>
      <point x="752" y="1428" type="line" smooth="yes"/>
      <point x="752" y="1596"/>
      <point x="813" y="1661"/>
      <point x="928" y="1661" type="curve" smooth="yes"/>
      <point x="990" y="1661"/>
      <point x="1064" y="1622"/>
      <point x="1090" y="1565" type="curve"/>
      <point x="1148" y="1619" type="line"/>
      <point x="1103" y="1699"/>
      <point x="1007" y="1750"/>
      <point x="908" y="1750" type="curve" smooth="yes"/>
      <point x="753" y="1750"/>
      <point x="648" y="1654"/>
      <point x="648" y="1421" type="curve" smooth="yes"/>
      <point x="648" y="1024" type="line"/>
      <point x="313" y="1024" type="line"/>
      <point x="313" y="1428" type="line" smooth="yes"/>
      <point x="313" y="1596"/>
      <point x="372" y="1660"/>
      <point x="482" y="1660" type="curve" smooth="yes"/>
      <point x="523" y="1660"/>
      <point x="556" y="1651"/>
      <point x="581" y="1637" type="curve"/>
      <point x="621" y="1710" type="line"/>
      <point x="588" y="1731"/>
      <point x="538" y="1750"/>
      <point x="469" y="1750" type="curve" smooth="yes"/>
      <point x="314" y="1750"/>
      <point x="210" y="1654"/>
      <point x="210" y="1421" type="curve" smooth="yes"/>
      <point x="210" y="1024" type="line"/>
      <point x="116" y="1024" type="line"/>
      <point x="116" y="946" type="line"/>
      <point x="210" y="946" type="line"/>
      <point x="210" y="0" type="line"/>
      <point x="313" y="0" type="line"/>
      <point x="313" y="946" type="line"/>
      <point x="648" y="946" type="line"/>
      <point x="648" y="0" type="line"/>
      <point x="752" y="0" type="line"/>
      <point x="752" y="946" type="line"/>
      <point x="1070" y="946" type="line"/>
      <point x="1070" y="-237" type="line" smooth="yes"/>
      <point x="1070" y="-390"/>
      <point x="1009" y="-459"/>
      <point x="903" y="-459" type="curve" smooth="yes"/>
      <point x="847" y="-459"/>
      <point x="806" y="-443"/>
      <point x="780" y="-420" type="curve"/>
      <point x="749" y="-501" type="line"/>
      <point x="780" y="-526"/>
      <point x="832" y="-550"/>
    </contour>
  </outline>
</glyph>
<glyph name="f_f_t" format="2">
  <advance width="1719"/>
  <outline>
    <contour>
      <point x="1413" y="-32" type="curve" smooth="yes"/>
      <point x="1486" y="-32"/>
      <point x="1540" y="-10"/>
      <point x="1567" y="10" type="curve"/>
      <point x="1541" y="92" type="line"/>
      <point x="1521" y="77"/>
      <point x="1483" y="58"/>
      <point x="1434" y="58" type="curve" smooth="yes"/>
      <point x="1333" y="58"/>
      <point x="1298" y="126"/>
      <point x="1298" y="254" type="curve" smooth="yes"/>
      <point x="1298" y="946" type="line"/>
      <point x="1561" y="946" type="line"/>
      <point x="1561" y="1024" type="line"/>
      <point x="1298" y="1024" type="line"/>
      <point x="1298" y="1406" type="line"/>
      <point x="1195" y="1406" type="line"/>
      <point x="1195" y="1024" type="line"/>
      <point x="825" y="1024" type="line"/>
      <point x="825" y="1428" type="line" smooth="yes"/>
      <point x="825" y="1596"/>
      <point x="884" y="1660"/>
      <point x="995" y="1660" type="curve" smooth="yes"/>
      <point x="1035" y="1660"/>
      <point x="1067" y="1652"/>
      <point x="1093" y="1638" type="curve"/>
      <point x="1133" y="1710" type="line"/>
      <point x="1100" y="1731"/>
      <point x="1050" y="1750"/>
      <point x="981" y="1750" type="curve" smooth="yes"/>
      <point x="826" y="1750"/>
      <point x="722" y="1654"/>
      <point x="722" y="1421" type="curve" smooth="yes"/>
      <point x="722" y="1024" type="line"/>
      <point x="387" y="1024" type="line"/>
      <point x="387" y="1428" type="line" smooth="yes"/>
      <point x="387" y="1596"/>
      <point x="446" y="1660"/>
      <point x="556" y="1660" type="curve" smooth="yes"/>
      <point x="597" y="1660"/>
      <point x="630" y="1651"/>
      <point x="655" y="1637" type="curve"/>
      <point x="695" y="1710" type="line"/>
      <point x="662" y="1731"/>
      <point x="612" y="1750"/>
      <point x="543" y="1750" type="curve" smooth="yes"/>
      <point x="388" y="1750"/>
      <point x="284" y="1654"/>
      <point x="284" y="1421" type="curve" smooth="yes"/>
      <point x="284" y="1024" type="line"/>
      <point x="190" y="1024" type="line"/>
      <point x="190" y="946" type="line"/>
      <point x="284" y="946" type="line"/>
      <point x="284" y="0" type="line" name=".hr01"/>
      <point x="387" y="0" type="line"/>
      <point x="387" y="946" type="line"/>
      <point x="722" y="946" type="line"/>
      <point x="722" y="0" type="line"/>
      <point x="825" y="0" type="line"/>
      <point x="825" y="946" type="line"/>
      <point x="1195" y="946" type="line"/>
      <point x="1195" y="244" type="line" smooth="yes"/>
      <point x="1195" y="109"/>
      <point x="1226" y="-32" name=".hr02"/>
    </contour>
  </outline>
</glyph>
